<svg xmlns="http://www.w3.org/2000/svg" viewBox="0 0 534.79 46.34">
  <defs>
    <style>
      .a {
        fill: #f55139;
        stroke: #1d1d1b;
        stroke-miterlimit: 10;
      }

      .b {
        fill: #ebe7d9;
      }
    </style>
  </defs>
  <polygon class="a" points="15.18 45.84 0.74 45.84 19.27 0.5 33.71 0.5 15.18 45.84"/>
  <polygon class="a" points="38.18 45.84 23.75 45.84 42.27 0.5 56.71 0.5 38.18 45.84"/>
  <g>
    <path class="b" d="M67.62,3.9h7.7L64.08,44.77h-7.7ZM66,20.92H80.22a4.5,4.5,0,0,0,2.24-.59,5.75,5.75,0,0,0,1.85-1.68,8.49,8.49,0,0,0,1.22-2.53,5.82,5.82,0,0,0,.2-2.53,2.65,2.65,0,0,0-.93-1.68,3,3,0,0,0-1.94-.59H68.65l2-7.42H85.52A9.34,9.34,0,0,1,91,5.42,7,7,0,0,1,93.81,9.7a13.06,13.06,0,0,1-.36,6.42,18.21,18.21,0,0,1-3.17,6.42,15.32,15.32,0,0,1-5.16,4.28,13.8,13.8,0,0,1-6.33,1.52H64Zm6.91,6.15,8.58-1.29,5.79,19H78Z" transform="translate(1.11 0.63)"/>
    <path class="b" d="M101.1,43.32A8.82,8.82,0,0,1,97.31,38a15.12,15.12,0,0,1,.33-7.91l3.18-11.57a21.14,21.14,0,0,1,4-7.9,19.23,19.23,0,0,1,6.69-5.28,19,19,0,0,1,8.34-1.87,13.14,13.14,0,0,1,7.31,1.87A8.77,8.77,0,0,1,131,10.66a15.07,15.07,0,0,1-.32,7.9l-3.18,11.57a21.26,21.26,0,0,1-4,7.91,19.32,19.32,0,0,1-6.69,5.28,19,19,0,0,1-8.34,1.87A13.11,13.11,0,0,1,101.1,43.32Zm13.32-6.71a9,9,0,0,0,3.12-2.52,10.43,10.43,0,0,0,1.9-3.76l3.29-12a7.47,7.47,0,0,0,.18-3.77,4.17,4.17,0,0,0-1.74-2.51,6,6,0,0,0-3.41-.89,8.82,8.82,0,0,0-3.9.89,9.1,9.1,0,0,0-3.12,2.51,10.3,10.3,0,0,0-1.89,3.77l-3.29,12a7.43,7.43,0,0,0-.18,3.76,4.08,4.08,0,0,0,1.74,2.52,6,6,0,0,0,3.41.88A8.76,8.76,0,0,0,114.42,36.61Z" transform="translate(1.11 0.63)"/>
    <path class="b" d="M169.1,3.93h10.14L168,44.77h-7l8.72-31.71-.21,1.8L154.73,40.22h-6.8l-1-24.8.93-2.36-8.73,31.71h-7L143.4,3.93h10.14l.2,27.53Z" transform="translate(1.11 0.63)"/>
    <path class="b" d="M200.48,3.93h4.89l4.38,40.84h-8.28l-2.11-27.89L181.92,44.77h-8.29ZM185,30.81h21.49l-2,7.41H182.93Z" transform="translate(1.11 0.63)"/>
    <path class="b" d="M226.62,3.93H236l6.58,31.29-.87.73,8.81-32h7.36L246.68,44.74h-9.47l-6.66-30.81.88-.73-8.68,31.54h-7.36Z" transform="translate(1.11 0.63)"/>
    <path class="b" d="M262.88,43.32A8.77,8.77,0,0,1,259.1,38a15,15,0,0,1,.32-7.91l3.18-11.57a21.29,21.29,0,0,1,4-7.9,19.23,19.23,0,0,1,6.69-5.28,19,19,0,0,1,8.34-1.87A13.14,13.14,0,0,1,289,5.38a8.77,8.77,0,0,1,3.78,5.28,15.07,15.07,0,0,1-.32,7.9l-3.18,11.57a21.26,21.26,0,0,1-4,7.91,19.23,19.23,0,0,1-6.69,5.28,19,19,0,0,1-8.34,1.87A13.14,13.14,0,0,1,262.88,43.32Zm13.32-6.71a9,9,0,0,0,3.12-2.52,10.28,10.28,0,0,0,1.9-3.76l3.29-12a7.47,7.47,0,0,0,.18-3.77A4.17,4.17,0,0,0,283,12.09a6,6,0,0,0-3.41-.89,8.77,8.77,0,0,0-3.89.89,8.91,8.91,0,0,0-3.12,2.51,10.17,10.17,0,0,0-1.9,3.77l-3.29,12a7.43,7.43,0,0,0-.18,3.76,4.08,4.08,0,0,0,1.74,2.52,6,6,0,0,0,3.41.88A8.76,8.76,0,0,0,276.2,36.61Z" transform="translate(1.11 0.63)"/>
    <path class="b" d="M301,3.93h7.92l1.19,27.24L326.24,3.93h7.92L309.33,44.77h-6Z" transform="translate(1.11 0.63)"/>
    <path class="b" d="M379.63,21.93l-2.2,8a21.84,21.84,0,0,1-4,8,19.53,19.53,0,0,1-6.69,5.36,18.67,18.67,0,0,1-8.33,1.9A14,14,0,0,1,351,43.41a8.6,8.6,0,0,1-3.89-5,13.62,13.62,0,0,1,.21-7.56l3.32-12a21.8,21.8,0,0,1,4-8,19.61,19.61,0,0,1,6.68-5.35,18.8,18.8,0,0,1,8.33-1.89A12.77,12.77,0,0,1,376,5a9.38,9.38,0,0,1,4,4.26,12.48,12.48,0,0,1,1,6.37h-8.31a4,4,0,0,0-.78-2.23A4.36,4.36,0,0,0,370.05,12a6.54,6.54,0,0,0-2.57-.49,8.51,8.51,0,0,0-3.86.89,9.22,9.22,0,0,0-3.12,2.56,10.65,10.65,0,0,0-1.91,3.82l-3.31,12a5.88,5.88,0,0,0-.06,3.37,3.91,3.91,0,0,0,1.85,2.25,7.07,7.07,0,0,0,3.49.78,8.91,8.91,0,0,0,3.88-.85,8.66,8.66,0,0,0,3.08-2.49,10.53,10.53,0,0,0,1.9-3.85l.19-.67h-6.18l2-7.42Z" transform="translate(1.11 0.63)"/>
    <path class="b" d="M393.31,3.9H401L389.76,44.77h-7.69Zm-1.62,17H405.9a4.47,4.47,0,0,0,2.24-.59A5.55,5.55,0,0,0,410,18.65a8.25,8.25,0,0,0,1.22-2.53,5.82,5.82,0,0,0,.2-2.53,2.59,2.59,0,0,0-.92-1.68,3,3,0,0,0-1.95-.59H394.33l2-7.42H411.2a9.32,9.32,0,0,1,5.51,1.52,7,7,0,0,1,2.78,4.28,13.06,13.06,0,0,1-.36,6.42A18.21,18.21,0,0,1,416,22.54a15.28,15.28,0,0,1-5.15,4.28,13.8,13.8,0,0,1-6.33,1.52H389.65Zm6.9,6.15,8.58-1.29,5.79,19h-9.32Z" transform="translate(1.11 0.63)"/>
    <path class="b" d="M426.78,43.32A8.77,8.77,0,0,1,423,38a15.11,15.11,0,0,1,.32-7.91l3.18-11.57a21.29,21.29,0,0,1,4-7.9,19.32,19.32,0,0,1,6.69-5.28,19,19,0,0,1,8.34-1.87,13.11,13.11,0,0,1,7.31,1.87,8.82,8.82,0,0,1,3.79,5.28,15.08,15.08,0,0,1-.33,7.9l-3.18,11.57a21.11,21.11,0,0,1-4,7.91,19.23,19.23,0,0,1-6.69,5.28,19,19,0,0,1-8.34,1.87A13.14,13.14,0,0,1,426.78,43.32Zm13.32-6.71a9,9,0,0,0,3.13-2.52,10.26,10.26,0,0,0,1.89-3.76l3.29-12a7.47,7.47,0,0,0,.18-3.77,4.09,4.09,0,0,0-1.74-2.51,6,6,0,0,0-3.41-.89,8.77,8.77,0,0,0-3.89.89,9.1,9.1,0,0,0-3.12,2.51,10.3,10.3,0,0,0-1.89,3.77l-3.3,12a7.31,7.31,0,0,0-.17,3.76,4.11,4.11,0,0,0,1.73,2.52,6,6,0,0,0,3.41.88A8.73,8.73,0,0,0,440.1,36.61Z" transform="translate(1.11 0.63)"/>
    <path class="b" d="M464.48,43.41a8,8,0,0,1-3.65-5.2,16.76,16.76,0,0,1,.52-8.22l7.17-26.06h7.69L469,30.19q-1,3.51.38,5.45t4.78,1.94A9.15,9.15,0,0,0,480,35.64a10.22,10.22,0,0,0,3.4-5.45l7.22-26.26h7.7L491.18,30a23,23,0,0,1-4,8.22,17.79,17.79,0,0,1-6.54,5.2,20.13,20.13,0,0,1-8.57,1.78A14.14,14.14,0,0,1,464.48,43.41Z" transform="translate(1.11 0.63)"/>
    <path class="b" d="M507.35,3.93H515L503.81,44.77h-7.7ZM506,21.51h13.06a5.65,5.65,0,0,0,2.61-.63,6.44,6.44,0,0,0,2.13-1.78,7.62,7.62,0,0,0,1.32-2.64,5.61,5.61,0,0,0,.16-2.69A2.87,2.87,0,0,0,524.16,12a3.8,3.8,0,0,0-2.28-.64H508.82l2-7.41h12.86A11.63,11.63,0,0,1,530,5.49a7.49,7.49,0,0,1,3.3,4.39,12,12,0,0,1-.21,6.58,17,17,0,0,1-3.4,6.55A16.37,16.37,0,0,1,524,27.38a16.81,16.81,0,0,1-7.15,1.55H504Z" transform="translate(1.11 0.63)"/>
  </g>
</svg>
