<svg xmlns="http://www.w3.org/2000/svg" viewBox="0 0 227.73 51.12">
  <defs>
    <style>
      .a {
        fill: #6f7479;
      }

      .b {
        fill: #98979a;
      }
    </style>
  </defs>
  <g>
    <g>
      <path class="a" d="M200.26,21.21a2,2,0,1,0-2,2A2,2,0,0,0,200.26,21.21Z"/>
      <path class="a" d="M216,21.21a2.45,2.45,0,1,0-2.44,2.44A2.44,2.44,0,0,0,216,21.21Z"/>
      <path class="a" d="M208.12,21.21a2.21,2.21,0,1,0-2.21,2.2A2.21,2.21,0,0,0,208.12,21.21Z"/>
      <path class="a" d="M223.91,21.21a2.71,2.71,0,1,0-2.71,2.7A2.71,2.71,0,0,0,223.91,21.21Z"/>
      <path class="a" d="M176.8,21.21a1.47,1.47,0,1,0-1.46,1.46A1.47,1.47,0,0,0,176.8,21.21Z"/>
      <path class="a" d="M192.42,21.21a1.8,1.8,0,1,0-1.8,1.79A1.79,1.79,0,0,0,192.42,21.21Z"/>
      <path class="a" d="M169,21.21a1.32,1.32,0,1,0-1.32,1.32A1.33,1.33,0,0,0,169,21.21Z"/>
      <path class="a" d="M184.6,21.21A1.62,1.62,0,1,0,183,22.83,1.62,1.62,0,0,0,184.6,21.21Z"/>
      <path class="a" d="M204.19,17.38a2.1,2.1,0,1,0-2.1,2.1A2.1,2.1,0,0,0,204.19,17.38Z"/>
      <path class="a" d="M161.24,21.21a1.2,1.2,0,1,0-1.19,1.19A1.2,1.2,0,0,0,161.24,21.21Z"/>
      <path class="a" d="M220,17.38A2.57,2.57,0,1,0,217.38,20,2.57,2.57,0,0,0,220,17.38Z"/>
      <path class="a" d="M212.06,17.38a2.32,2.32,0,0,0-1-1.92,2.29,2.29,0,0,0-1.29-.4,2.42,2.42,0,0,0-.47,0,2.32,2.32,0,0,0,0,4.55,2.42,2.42,0,0,0,.47.05,2.29,2.29,0,0,0,1.29-.4A2.33,2.33,0,0,0,212.06,17.38Z"/>
      <path class="a" d="M130.26,21.2a.79.79,0,1,0-.79.8A.79.79,0,0,0,130.26,21.2Z"/>
      <path class="a" d="M138,21.2a.88.88,0,1,0-.88.88A.87.87,0,0,0,138,21.2Z"/>
      <path class="a" d="M145.73,21.2a1,1,0,1,0-1,1A1,1,0,0,0,145.73,21.2Z"/>
      <path class="a" d="M122.54,21.2a.72.72,0,1,0-.72.72A.71.71,0,0,0,122.54,21.2Z"/>
      <path class="a" d="M153.48,21.2a1.08,1.08,0,1,0-1.08,1.08A1.07,1.07,0,0,0,153.48,21.2Z"/>
      <path class="a" d="M130.26,28.85a.79.79,0,1,0-.79.79A.79.79,0,0,0,130.26,28.85Z"/>
      <path class="a" d="M122.54,28.85a.72.72,0,1,0-.72.71A.71.71,0,0,0,122.54,28.85Z"/>
      <path class="a" d="M138,28.85a.88.88,0,1,0-.88.88A.88.88,0,0,0,138,28.85Z"/>
      <path class="a" d="M145.73,28.85a1,1,0,1,0-1,1A1,1,0,0,0,145.73,28.85Z"/>
      <path class="a" d="M192.42,28.85a1.8,1.8,0,1,0-1.8,1.8A1.8,1.8,0,0,0,192.42,28.85Z"/>
      <path class="a" d="M153.48,28.85a1.08,1.08,0,1,0-1.08,1.08A1.08,1.08,0,0,0,153.48,28.85Z"/>
      <path class="a" d="M184.6,28.85A1.62,1.62,0,1,0,183,30.47,1.61,1.61,0,0,0,184.6,28.85Z"/>
      <path class="a" d="M208.12,28.85a2.21,2.21,0,1,0-2.21,2.21A2.21,2.21,0,0,0,208.12,28.85Z"/>
      <path class="a" d="M200.26,28.85a2,2,0,1,0-2,2A2,2,0,0,0,200.26,28.85Z"/>
      <path class="a" d="M161.24,28.85A1.2,1.2,0,1,0,160.05,30,1.19,1.19,0,0,0,161.24,28.85Z"/>
      <path class="a" d="M176.8,28.85a1.47,1.47,0,1,0-1.46,1.46A1.46,1.46,0,0,0,176.8,28.85Z"/>
      <path class="a" d="M169,28.85a1.32,1.32,0,1,0-1.32,1.32A1.32,1.32,0,0,0,169,28.85Z"/>
      <path class="a" d="M172.79,25.57a1.41,1.41,0,0,0,.11-.54,1.39,1.39,0,0,0-2.78,0,1.41,1.41,0,0,0,.11.54,1.43,1.43,0,0,0,.3.44,1.39,1.39,0,0,0,1,.41,1.42,1.42,0,0,0,1-.41A1.6,1.6,0,0,0,172.79,25.57Z"/>
      <path class="a" d="M157.27,25.47a1.12,1.12,0,0,0,.09-.44,1.14,1.14,0,1,0-2.27,0,1.12,1.12,0,0,0,.09.44,1.26,1.26,0,0,0,.24.36,1.15,1.15,0,0,0,1.61,0A1.26,1.26,0,0,0,157.27,25.47Z"/>
      <path class="a" d="M164.76,25.91a1.36,1.36,0,0,0,.27-.39,1.33,1.33,0,0,0,.09-.49,1.24,1.24,0,0,0-.55-1,1.21,1.21,0,0,0-.7-.22,1,1,0,0,0-.25,0,1.25,1.25,0,0,0-1,1.23,1.34,1.34,0,0,0,.1.49,1.36,1.36,0,0,0,.27.39,1.26,1.26,0,0,0,.64.35l.25,0a1.28,1.28,0,0,0,.7-.21Z"/>
      <path class="a" d="M180.44,25.89a2.15,2.15,0,0,0,.14-.26,1.53,1.53,0,0,0,.12-.6,1.55,1.55,0,0,0-1.85-1.51,1.53,1.53,0,0,0-.78.42,1.45,1.45,0,0,0-.19.23,1.5,1.5,0,0,0-.23.55,1.55,1.55,0,0,0,0,.31,1.51,1.51,0,0,0,.12.6,2.15,2.15,0,0,0,.14.26,2.11,2.11,0,0,0,.19.23,1.61,1.61,0,0,0,.78.42,1.56,1.56,0,0,0,1.4-.42A2.11,2.11,0,0,0,180.44,25.89Z"/>
      <path class="a" d="M134,25.49a.64.64,0,0,0,.08-.14.87.87,0,0,0,.06-.32.82.82,0,0,0-.14-.47.83.83,0,0,0-.69-.37l-.17,0a1,1,0,0,0-.42.23l-.1.12a.79.79,0,0,0-.12.3.47.47,0,0,0,0,.17.44.44,0,0,0,0,.16.75.75,0,0,0,0,.16s0,.1.08.14a.64.64,0,0,0,.1.13.85.85,0,0,0,.42.22l.17,0a.83.83,0,0,0,.59-.24A.64.64,0,0,0,134,25.49Z"/>
      <path class="a" d="M126.34,25.32a.72.72,0,0,0,.06-.29.76.76,0,0,0-1.51,0,.94.94,0,0,0,.06.29.81.81,0,0,0,.17.24.76.76,0,0,0,.53.22.79.79,0,0,0,.53-.22A.78.78,0,0,0,126.34,25.32Z"/>
      <path class="a" d="M188.38,25.69a1.8,1.8,0,0,0,.13-.66,1.71,1.71,0,1,0-3.42,0,1.63,1.63,0,0,0,.14.66,1.71,1.71,0,0,0,2.78.54A1.73,1.73,0,0,0,188.38,25.69Z"/>
      <path class="a" d="M141.79,25.39a1.1,1.1,0,0,0,.07-.36A.93.93,0,0,0,140,25a.9.9,0,0,0,.08.36.81.81,0,0,0,.19.29.93.93,0,0,0,1.31,0A1,1,0,0,0,141.79,25.39Z"/>
      <path class="a" d="M149.43,25.6a1,1,0,0,0-.85-1.59.75.75,0,0,0-.21,0,1.05,1.05,0,0,0-.51.27,1,1,0,0,0-.13.16,1.05,1.05,0,0,0-.15.36,1.49,1.49,0,0,0,0,.21,1.23,1.23,0,0,0,0,.2.6.6,0,0,0,.06.19,1,1,0,0,0,.09.18l.13.15a1,1,0,0,0,.51.28l.21,0a1,1,0,0,0,.72-.3Z"/>
      <path class="a" d="M227.52,26.08a2.63,2.63,0,0,0,.21-1,2.71,2.71,0,1,0-5.41,0,2.63,2.63,0,0,0,.21,1,2.66,2.66,0,0,0,.58.86,2.69,2.69,0,0,0,3.83,0A2.83,2.83,0,0,0,227.52,26.08Z"/>
      <path class="a" d="M196,26.08a2.4,2.4,0,0,0,.17-.32,1.77,1.77,0,0,0,.15-.73,1.88,1.88,0,0,0-1.89-1.89,2.34,2.34,0,0,0-.38,0,1.93,1.93,0,0,0-1,.52,2,2,0,0,0-.23.28,1.8,1.8,0,0,0-.29.68,2.34,2.34,0,0,0,0,.38,2.43,2.43,0,0,0,0,.38,3.58,3.58,0,0,0,.11.35,1.65,1.65,0,0,0,.18.32,1.56,1.56,0,0,0,.23.28,1.93,1.93,0,0,0,1,.52,1.58,1.58,0,0,0,.38,0,1.84,1.84,0,0,0,1.33-.56A1.61,1.61,0,0,0,196,26.08Z"/>
      <path class="a" d="M219.75,26A2.57,2.57,0,1,0,215,26a2.69,2.69,0,0,0,.55.82,2.58,2.58,0,0,0,3.64,0A2.69,2.69,0,0,0,219.75,26Z"/>
      <path class="a" d="M204,25.84a2,2,0,0,0,.17-.81,2.1,2.1,0,1,0-4.2,0,2,2,0,0,0,.17.81,2.19,2.19,0,0,0,.45.67,2.1,2.1,0,0,0,3,0A2,2,0,0,0,204,25.84Z"/>
      <path class="a" d="M216,28.85a2.45,2.45,0,1,0-2.44,2.44A2.45,2.45,0,0,0,216,28.85Z"/>
      <path class="a" d="M211.38,26.67a2.36,2.36,0,0,0,.5-.74,2.45,2.45,0,0,0,.18-.9,2.33,2.33,0,0,0-1-1.93,2.28,2.28,0,0,0-1.29-.39,2.42,2.42,0,0,0-.47,0A2.33,2.33,0,0,0,207.41,25a2.27,2.27,0,0,0,.19.9,2.17,2.17,0,0,0,.49.74,2.34,2.34,0,0,0,1.18.63,2.42,2.42,0,0,0,.47.05A2.29,2.29,0,0,0,211,27,2.39,2.39,0,0,0,211.38,26.67Z"/>
      <path class="a" d="M196,10.8a2,2,0,0,0,.28-.68,2.33,2.33,0,0,0,0-.38,1.88,1.88,0,0,0-1.89-1.89,1.58,1.58,0,0,0-.38,0,1.91,1.91,0,0,0-1,.51,2,2,0,0,0-.23.28,1.8,1.8,0,0,0-.29.68,2.42,2.42,0,0,0,0,.76,1.87,1.87,0,0,0,.29.68,2,2,0,0,0,.23.28,1.91,1.91,0,0,0,1,.51,1.58,1.58,0,0,0,.38,0A1.9,1.9,0,0,0,196,10.8Z"/>
      <path class="a" d="M204.14,10.16a2,2,0,0,0,.05-.42,2.1,2.1,0,1,0-4.2,0,2,2,0,0,0,0,.42,2.09,2.09,0,0,0,4.1,0Z"/>
      <path class="a" d="M188.47,10.08a1.27,1.27,0,0,0,0-.34,1.71,1.71,0,1,0-3.42,0,1.86,1.86,0,0,0,0,.34,1.7,1.7,0,0,0,3.34,0Z"/>
      <path class="a" d="M212,10.21a2.42,2.42,0,0,0,.05-.47,2.33,2.33,0,0,0-1-1.93,2.28,2.28,0,0,0-1.29-.39,2.42,2.42,0,0,0-.47,0,2.34,2.34,0,0,0-1.86,2.28,2.42,2.42,0,0,0,.05.47,2.32,2.32,0,0,0,1.81,1.8,1.83,1.83,0,0,0,.47.05,2.22,2.22,0,0,0,1.29-.4A2.28,2.28,0,0,0,212,10.21Z"/>
      <path class="a" d="M180.44,10.6a1.5,1.5,0,0,0,.23-.55,1.55,1.55,0,0,0-1.82-1.82,1.53,1.53,0,0,0-.78.42,2.11,2.11,0,0,0-.19.23,1.5,1.5,0,0,0-.23.55,1.62,1.62,0,0,0,0,.62,1.5,1.5,0,0,0,.23.55,2.11,2.11,0,0,0,.19.23,1.53,1.53,0,0,0,.78.42,1.56,1.56,0,0,0,1.59-.65Z"/>
      <path class="a" d="M157.33,10a.91.91,0,0,0,0-.23,1.14,1.14,0,0,0-2.27,0,1.79,1.79,0,0,0,0,.23,1.15,1.15,0,0,0,1.11.9A1.13,1.13,0,0,0,157.33,10Z"/>
      <path class="a" d="M165.1,10a2,2,0,0,0,0-.25,1.26,1.26,0,0,0-.55-1,1.21,1.21,0,0,0-.7-.22,1,1,0,0,0-.25,0,1.25,1.25,0,0,0-1,1.23,1,1,0,0,0,0,.25,1.26,1.26,0,0,0,1,1,1,1,0,0,0,.25,0,1.28,1.28,0,0,0,.7-.21A1.26,1.26,0,0,0,165.1,10Z"/>
      <path class="a" d="M172.88,10a2.64,2.64,0,0,0,0-.28,1.39,1.39,0,0,0-2.78,0,1.33,1.33,0,0,0,0,.28,1.39,1.39,0,0,0,2.73,0Z"/>
      <path class="a" d="M149.43,10.31a1.11,1.11,0,0,0,.15-.37,1.23,1.23,0,0,0,0-.2,1,1,0,0,0-.17-.57,1,1,0,0,0-.85-.45.75.75,0,0,0-.21,0,1,1,0,0,0-.51.28.64.64,0,0,0-.13.15,1.14,1.14,0,0,0-.15.36,1.49,1.49,0,0,0,0,.21,1.23,1.23,0,0,0,0,.2,1.11,1.11,0,0,0,.15.37.93.93,0,0,0,.13.15,1,1,0,0,0,.51.28l.21,0A1,1,0,0,0,149.43,10.31Z"/>
      <path class="a" d="M200.26,5.92a2,2,0,1,0-2,2A2,2,0,0,0,200.26,5.92Z"/>
      <path class="a" d="M208.12,5.92a2.21,2.21,0,1,0-2.21,2.2A2.21,2.21,0,0,0,208.12,5.92Z"/>
      <path class="a" d="M118.67,9.88a.66.66,0,0,0,0-.14.68.68,0,0,0-.3-.56.64.64,0,0,0-.38-.12l-.13,0a.65.65,0,0,0-.53.8.66.66,0,0,0,.53.52l.13,0a.71.71,0,0,0,.38-.12A.69.69,0,0,0,118.67,9.88Z"/>
      <path class="a" d="M126.38,9.89a.77.77,0,0,0,0-.15.76.76,0,0,0-1.51,0,.77.77,0,0,0,0,.15.75.75,0,0,0,1.47,0Z"/>
      <path class="a" d="M111,9.86a.49.49,0,0,0,0-.12.61.61,0,1,0-1.22,0,.49.49,0,0,0,0,.12.6.6,0,0,0,.6.49A.62.62,0,0,0,111,9.86Z"/>
      <path class="a" d="M134,10.2a.86.86,0,0,0,.13-.29,1,1,0,0,0,0-.17.86.86,0,0,0-.14-.47.83.83,0,0,0-.69-.36h-.17a1,1,0,0,0-.42.23l-.1.12a.79.79,0,0,0-.12.3.73.73,0,0,0,0,.34.69.69,0,0,0,.12.29.64.64,0,0,0,.1.13.85.85,0,0,0,.42.22.5.5,0,0,0,.17,0A.81.81,0,0,0,134,10.2Z"/>
      <path class="a" d="M141.84,9.92a1.1,1.1,0,0,0,0-.18.93.93,0,0,0-1.85,0,1.1,1.1,0,0,0,0,.18.92.92,0,0,0,1.81,0Z"/>
      <path class="a" d="M196,18.44a1.92,1.92,0,0,0,.32-1.06,1.89,1.89,0,0,0-1.89-1.89,2.33,2.33,0,0,0-.38,0,1.93,1.93,0,0,0-1,.52,1.56,1.56,0,0,0-.23.28,1.82,1.82,0,0,0-.29.67,2.43,2.43,0,0,0,0,.38,2.34,2.34,0,0,0,0,.38,1.8,1.8,0,0,0,.29.68,2,2,0,0,0,.23.28,1.93,1.93,0,0,0,1,.52,2.34,2.34,0,0,0,.38,0A1.9,1.9,0,0,0,196,18.44Z"/>
      <path class="a" d="M118.68,17.38a.68.68,0,0,0-.3-.56.7.7,0,0,0-.38-.11h-.13a.68.68,0,0,0-.55.66.69.69,0,0,0,.55.67H118a.7.7,0,0,0,.38-.11A.7.7,0,0,0,118.68,17.38Z"/>
      <path class="a" d="M126.4,17.38a.76.76,0,1,0-.75.75A.76.76,0,0,0,126.4,17.38Z"/>
      <path class="a" d="M165.12,17.38a1.24,1.24,0,0,0-1.25-1.25l-.25,0a1.26,1.26,0,0,0-1,1.23,1.25,1.25,0,0,0,1,1.23,1,1,0,0,0,.25,0,1.21,1.21,0,0,0,.7-.22A1.24,1.24,0,0,0,165.12,17.38Z"/>
      <path class="a" d="M180.44,18.24a1.56,1.56,0,0,0,.26-.86,1.58,1.58,0,0,0-.26-.86,1.56,1.56,0,0,0-1.59-.65,1.69,1.69,0,0,0-.78.42,2.11,2.11,0,0,0-.19.23,1.57,1.57,0,0,0-.23.55,1.63,1.63,0,0,0,0,.31,1.55,1.55,0,0,0,0,.31,1.5,1.5,0,0,0,.23.55,1.45,1.45,0,0,0,.19.23,1.53,1.53,0,0,0,.78.42,1.56,1.56,0,0,0,1.59-.65Z"/>
      <path class="a" d="M172.9,17.38a1.39,1.39,0,1,0-1.39,1.39A1.39,1.39,0,0,0,172.9,17.38Z"/>
      <path class="a" d="M188.51,17.38a1.71,1.71,0,1,0-1.71,1.71A1.7,1.7,0,0,0,188.51,17.38Z"/>
      <path class="a" d="M149.43,18a1,1,0,0,0,.17-.57,1,1,0,0,0-.17-.57,1,1,0,0,0-.85-.45l-.21,0a1,1,0,0,0-.51.28l-.13.15a1.11,1.11,0,0,0-.15.37,1.23,1.23,0,0,0,0,.2,1.49,1.49,0,0,0,0,.21,1.05,1.05,0,0,0,.15.36,1,1,0,0,0,.13.16,1.05,1.05,0,0,0,.51.27.76.76,0,0,0,.21,0A1,1,0,0,0,149.43,18Z"/>
      <path class="a" d="M141.86,17.38a.93.93,0,0,0-1.85,0,.93.93,0,1,0,1.85,0Z"/>
      <path class="a" d="M157.36,17.38a1.14,1.14,0,1,0-1.14,1.14A1.14,1.14,0,0,0,157.36,17.38Z"/>
      <path class="a" d="M134,17.85a.82.82,0,0,0,.14-.47.81.81,0,0,0-.14-.46.83.83,0,0,0-.69-.37l-.17,0a.85.85,0,0,0-.42.22.64.64,0,0,0-.1.13.79.79,0,0,0-.12.3.44.44,0,0,0,0,.16.47.47,0,0,0,0,.17.79.79,0,0,0,.12.3l.1.12a.87.87,0,0,0,.42.23l.17,0A.83.83,0,0,0,134,17.85Z"/>
      <path class="a" d="M122.54,13.56a.72.72,0,1,0-.72.72A.71.71,0,0,0,122.54,13.56Z"/>
      <path class="a" d="M169,13.56a1.32,1.32,0,1,0-1.32,1.32A1.32,1.32,0,0,0,169,13.56Z"/>
      <path class="a" d="M153.48,13.56a1.08,1.08,0,1,0-1.08,1.08A1.07,1.07,0,0,0,153.48,13.56Z"/>
      <path class="a" d="M138,13.56a.88.88,0,1,0-.88.88A.87.87,0,0,0,138,13.56Z"/>
      <path class="a" d="M161.24,13.56a1.2,1.2,0,1,0-1.19,1.19A1.19,1.19,0,0,0,161.24,13.56Z"/>
      <path class="a" d="M145.73,13.56a1,1,0,0,0-1.94,0,1,1,0,0,0,1.94,0Z"/>
      <path class="a" d="M130.26,13.56a.79.79,0,1,0-.79.79A.79.79,0,0,0,130.26,13.56Z"/>
      <path class="a" d="M114.82,13.56a.64.64,0,1,0-.64.65A.64.64,0,0,0,114.82,13.56Z"/>
      <path class="a" d="M176.8,13.56A1.47,1.47,0,1,0,175.34,15,1.46,1.46,0,0,0,176.8,13.56Z"/>
      <path class="a" d="M216,13.56A2.45,2.45,0,1,0,213.56,16,2.44,2.44,0,0,0,216,13.56Z"/>
      <path class="a" d="M208.12,13.56a2.21,2.21,0,1,0-2.21,2.21A2.2,2.2,0,0,0,208.12,13.56Z"/>
      <path class="a" d="M184.6,13.56A1.62,1.62,0,1,0,183,15.18,1.62,1.62,0,0,0,184.6,13.56Z"/>
      <path class="a" d="M200.26,13.56a2,2,0,1,0-2,2A2,2,0,0,0,200.26,13.56Z"/>
      <path class="a" d="M192.42,13.56a1.8,1.8,0,1,0-1.8,1.8A1.8,1.8,0,0,0,192.42,13.56Z"/>
      <path class="a" d="M161.24,36.49a1.2,1.2,0,1,0-1.19,1.19A1.19,1.19,0,0,0,161.24,36.49Z"/>
      <path class="a" d="M200.26,44.14a2,2,0,1,0-2,2A2,2,0,0,0,200.26,44.14Z"/>
      <path class="a" d="M208.12,44.14a2.21,2.21,0,1,0-2.21,2.2A2.21,2.21,0,0,0,208.12,44.14Z"/>
      <path class="a" d="M118.68,48a.68.68,0,0,0-.3-.56.64.64,0,0,0-.38-.12l-.13,0a.67.67,0,0,0,0,1.32l.13,0a.71.71,0,0,0,.38-.12A.68.68,0,0,0,118.68,48Z"/>
      <path class="a" d="M111,48a.61.61,0,1,0-.61.61A.61.61,0,0,0,111,48Z"/>
      <path class="a" d="M192.42,44.14a1.8,1.8,0,1,0-1.8,1.8A1.79,1.79,0,0,0,192.42,44.14Z"/>
      <path class="a" d="M134,48.42a.81.81,0,0,0,.14-.46.86.86,0,0,0-.14-.47.83.83,0,0,0-.69-.36h-.17a1,1,0,0,0-.42.23l-.1.12a.79.79,0,0,0-.12.3.73.73,0,0,0,0,.34.69.69,0,0,0,.12.29.64.64,0,0,0,.1.13,1,1,0,0,0,.42.23h.17A.81.81,0,0,0,134,48.42Z"/>
      <path class="a" d="M126.4,48a.76.76,0,0,0-1.51,0,.76.76,0,0,0,1.51,0Z"/>
      <path class="a" d="M122.54,44.14a.72.72,0,1,0-.72.71A.72.72,0,0,0,122.54,44.14Z"/>
      <path class="a" d="M114.82,44.14a.64.64,0,1,0-.64.64A.64.64,0,0,0,114.82,44.14Z"/>
      <path class="a" d="M184.6,44.14A1.62,1.62,0,1,0,183,45.76,1.61,1.61,0,0,0,184.6,44.14Z"/>
      <path class="a" d="M107.12,44.14a.59.59,0,1,0-.58.58A.58.58,0,0,0,107.12,44.14Z"/>
      <path class="a" d="M169,44.14a1.32,1.32,0,1,0-1.32,1.32A1.32,1.32,0,0,0,169,44.14Z"/>
      <path class="a" d="M161.24,44.14a1.2,1.2,0,1,0-1.19,1.19A1.19,1.19,0,0,0,161.24,44.14Z"/>
      <path class="a" d="M153.48,44.14a1.08,1.08,0,1,0-1.08,1.07A1.08,1.08,0,0,0,153.48,44.14Z"/>
      <path class="a" d="M141.86,48a.93.93,0,1,0-.92.92A.92.92,0,0,0,141.86,48Z"/>
      <path class="a" d="M130.26,44.14a.79.79,0,1,0-.79.79A.79.79,0,0,0,130.26,44.14Z"/>
      <path class="a" d="M138,44.14a.88.88,0,1,0-.88.87A.87.87,0,0,0,138,44.14Z"/>
      <path class="a" d="M145.73,44.14a1,1,0,1,0-1,1A1,1,0,0,0,145.73,44.14Z"/>
      <path class="a" d="M176.8,44.14a1.47,1.47,0,1,0-1.46,1.46A1.47,1.47,0,0,0,176.8,44.14Z"/>
      <path class="a" d="M196,49a1.94,1.94,0,0,0,.32-1.06,1.88,1.88,0,0,0-1.89-1.89,1.58,1.58,0,0,0-.38,0,1.91,1.91,0,0,0-1,.51,2,2,0,0,0-.23.28,1.8,1.8,0,0,0-.29.68,2.42,2.42,0,0,0,0,.76,1.8,1.8,0,0,0,.29.68,2,2,0,0,0,.23.28,1.91,1.91,0,0,0,1,.51,1.58,1.58,0,0,0,.38,0A1.9,1.9,0,0,0,196,49Z"/>
      <path class="a" d="M204.19,48a2.1,2.1,0,1,0-2.1,2.1A2.1,2.1,0,0,0,204.19,48Z"/>
      <path class="a" d="M180.44,48.82a1.58,1.58,0,0,0,.26-.86,1.55,1.55,0,0,0-1.85-1.51,1.53,1.53,0,0,0-.78.42,2.11,2.11,0,0,0-.19.23,1.5,1.5,0,0,0-.23.55,1.62,1.62,0,0,0,0,.62,1.5,1.5,0,0,0,.23.55,2.11,2.11,0,0,0,.19.23,1.53,1.53,0,0,0,.78.42,1.56,1.56,0,0,0,1.59-.65Z"/>
      <path class="a" d="M188.51,48a1.71,1.71,0,1,0-1.71,1.71A1.71,1.71,0,0,0,188.51,48Z"/>
      <path class="a" d="M223.91,28.85a2.71,2.71,0,1,0-2.71,2.71A2.71,2.71,0,0,0,223.91,28.85Z"/>
      <path class="a" d="M172.9,48a1.39,1.39,0,1,0-1.39,1.39A1.39,1.39,0,0,0,172.9,48Z"/>
      <path class="a" d="M165.12,48a1.26,1.26,0,0,0-.55-1,1.2,1.2,0,0,0-.7-.21,1,1,0,0,0-.25,0,1.25,1.25,0,0,0,0,2.46,1,1,0,0,0,.25,0,1.2,1.2,0,0,0,.7-.21A1.27,1.27,0,0,0,165.12,48Z"/>
      <path class="a" d="M149.43,48.53a1,1,0,0,0,0-1.14,1,1,0,0,0-.85-.45.75.75,0,0,0-.21,0,1,1,0,0,0-.51.28.64.64,0,0,0-.13.15,1.14,1.14,0,0,0-.15.36,1.11,1.11,0,0,0,0,.42,1.14,1.14,0,0,0,.15.36.64.64,0,0,0,.13.15,1,1,0,0,0,.51.28l.21,0A1,1,0,0,0,149.43,48.53Z"/>
      <path class="a" d="M157.36,48a1.14,1.14,0,1,0-1.14,1.13A1.13,1.13,0,0,0,157.36,48Z"/>
      <path class="a" d="M220,32.67a2.57,2.57,0,1,0-2.57,2.57A2.57,2.57,0,0,0,220,32.67Z"/>
      <path class="a" d="M130.26,36.49a.79.79,0,1,0-.79.79A.79.79,0,0,0,130.26,36.49Z"/>
      <path class="a" d="M188.51,32.67a1.71,1.71,0,1,0-1.71,1.71A1.71,1.71,0,0,0,188.51,32.67Z"/>
      <path class="a" d="M196,33.73a1.92,1.92,0,0,0,.32-1.06,1.94,1.94,0,0,0-.32-1.06,1.9,1.9,0,0,0-1.57-.83,1.58,1.58,0,0,0-.38,0,1.91,1.91,0,0,0-1,.51,2,2,0,0,0-.23.28,1.87,1.87,0,0,0-.29.68,2.42,2.42,0,0,0,0,.76,1.8,1.8,0,0,0,.29.68,2,2,0,0,0,.23.28,1.84,1.84,0,0,0,1,.51,1.58,1.58,0,0,0,.38,0A1.9,1.9,0,0,0,196,33.73Z"/>
      <path class="a" d="M212.06,32.67a2.34,2.34,0,0,0-2.32-2.32,2.42,2.42,0,0,0-.47,0,2.32,2.32,0,0,0,0,4.55,2.42,2.42,0,0,0,.47,0A2.28,2.28,0,0,0,211,34.6,2.33,2.33,0,0,0,212.06,32.67Z"/>
      <path class="a" d="M114.82,36.49a.64.64,0,1,0-.64.65A.64.64,0,0,0,114.82,36.49Z"/>
      <path class="a" d="M122.54,36.49a.72.72,0,1,0-.72.72A.71.71,0,0,0,122.54,36.49Z"/>
      <path class="a" d="M180.44,33.53a1.56,1.56,0,0,0,.26-.86,1.58,1.58,0,0,0-.26-.86,1.56,1.56,0,0,0-1.59-.65,1.53,1.53,0,0,0-.78.42,2.11,2.11,0,0,0-.19.23,1.5,1.5,0,0,0-.23.55,1.63,1.63,0,0,0,0,.31,1.55,1.55,0,0,0,0,.31,1.5,1.5,0,0,0,.23.55,2.11,2.11,0,0,0,.19.23,1.53,1.53,0,0,0,.78.42,1.56,1.56,0,0,0,1.59-.65Z"/>
      <path class="a" d="M204.19,32.67a2.1,2.1,0,1,0-2.1,2.1A2.09,2.09,0,0,0,204.19,32.67Z"/>
      <path class="a" d="M157.36,32.67a1.14,1.14,0,1,0-1.14,1.13A1.14,1.14,0,0,0,157.36,32.67Z"/>
      <path class="a" d="M141.86,32.67a.93.93,0,1,0-.92.92A.92.92,0,0,0,141.86,32.67Z"/>
      <path class="a" d="M149.43,33.24a1,1,0,0,0,0-1.14,1,1,0,0,0-.85-.45l-.21,0a1,1,0,0,0-.51.28l-.13.15a1.11,1.11,0,0,0-.15.37,1.23,1.23,0,0,0,0,.2,1.49,1.49,0,0,0,0,.21,1.14,1.14,0,0,0,.15.36.64.64,0,0,0,.13.15,1,1,0,0,0,.51.28.75.75,0,0,0,.21,0A1,1,0,0,0,149.43,33.24Z"/>
      <path class="a" d="M165.12,32.67a1.24,1.24,0,0,0-1.25-1.25l-.25,0a1.25,1.25,0,0,0,0,2.46,1,1,0,0,0,.25,0,1.21,1.21,0,0,0,.7-.22A1.26,1.26,0,0,0,165.12,32.67Z"/>
      <path class="a" d="M118.68,32.67a.68.68,0,0,0-.3-.56A.71.71,0,0,0,118,32l-.13,0a.68.68,0,0,0-.55.66.69.69,0,0,0,.55.67H118a.64.64,0,0,0,.38-.12A.66.66,0,0,0,118.68,32.67Z"/>
      <path class="a" d="M172.9,32.67a1.39,1.39,0,1,0-1.39,1.39A1.39,1.39,0,0,0,172.9,32.67Z"/>
      <path class="a" d="M126.4,32.67a.76.76,0,1,0-.75.75A.76.76,0,0,0,126.4,32.67Z"/>
      <path class="a" d="M134,33.14a.86.86,0,0,0,.14-.47.83.83,0,0,0-.83-.83l-.17,0a.85.85,0,0,0-.42.22.64.64,0,0,0-.1.13.74.74,0,0,0-.12.29.73.73,0,0,0,0,.34.79.79,0,0,0,.12.3l.1.12a1,1,0,0,0,.42.23h.17A.83.83,0,0,0,134,33.14Z"/>
      <path class="a" d="M138,36.49a.88.88,0,1,0-.88.88A.87.87,0,0,0,138,36.49Z"/>
      <path class="a" d="M141.79,40.67a1,1,0,0,0,.07-.35.93.93,0,1,0-1.85,0,.85.85,0,0,0,.08.35,1,1,0,0,0,.19.3.93.93,0,0,0,1.31,0A1.21,1.21,0,0,0,141.79,40.67Z"/>
      <path class="a" d="M149.43,40.89a1.51,1.51,0,0,0,.09-.18,1,1,0,0,0,.08-.39,1,1,0,0,0-1-1l-.21,0a1.07,1.07,0,0,0-.51.28l-.13.15a1.2,1.2,0,0,0-.15.37,1.06,1.06,0,0,0,0,.41.6.6,0,0,0,.06.19,1.51,1.51,0,0,0,.09.18l.13.15a1,1,0,0,0,.51.28l.21,0a1,1,0,0,0,.72-.3Z"/>
      <path class="a" d="M126.34,40.61a.72.72,0,0,0,.06-.29.76.76,0,1,0-1.51,0,.94.94,0,0,0,.06.29.81.81,0,0,0,.17.24.76.76,0,0,0,.53.22.79.79,0,0,0,.53-.22A.78.78,0,0,0,126.34,40.61Z"/>
      <path class="a" d="M118.48,40.79a.8.8,0,0,0,.15-.21.75.75,0,0,0,.05-.26.7.7,0,0,0-.3-.57.7.7,0,0,0-.38-.11h-.13a.69.69,0,0,0-.55.67.58.58,0,0,0,.06.26.6.6,0,0,0,.14.21.64.64,0,0,0,.35.19H118a.7.7,0,0,0,.38-.11A.43.43,0,0,0,118.48,40.79Z"/>
      <path class="a" d="M157.27,40.76a1.12,1.12,0,0,0,.09-.44,1.14,1.14,0,1,0-2.27,0,1.12,1.12,0,0,0,.09.44,1.41,1.41,0,0,0,.24.36,1.15,1.15,0,0,0,1.61,0A1.41,1.41,0,0,0,157.27,40.76Z"/>
      <path class="a" d="M110.92,40.55a.59.59,0,0,0,0-.23.61.61,0,1,0-1.22,0,.59.59,0,0,0,0,.23.69.69,0,0,0,.13.2.65.65,0,0,0,.44.18.6.6,0,0,0,.43-.18A.53.53,0,0,0,110.92,40.55Z"/>
      <path class="a" d="M204,41.13a2,2,0,0,0,.17-.82,2.1,2.1,0,0,0-4.2,0,2,2,0,0,0,.17.82,2.19,2.19,0,0,0,.45.67,2.1,2.1,0,0,0,3,0A2,2,0,0,0,204,41.13Z"/>
      <path class="a" d="M196,41.37a3.24,3.24,0,0,0,.17-.32,1.81,1.81,0,0,0,.15-.74,1.89,1.89,0,0,0-1.89-1.89,2.33,2.33,0,0,0-.38,0,1.93,1.93,0,0,0-1,.52,1.56,1.56,0,0,0-.23.28,1.82,1.82,0,0,0-.29.67,2.43,2.43,0,0,0,0,.38,2.47,2.47,0,0,0,0,.39,3.58,3.58,0,0,0,.11.35,2,2,0,0,0,.18.32,1.56,1.56,0,0,0,.23.28,1.93,1.93,0,0,0,1,.52,2.33,2.33,0,0,0,.38,0,1.88,1.88,0,0,0,1.33-.56A1.61,1.61,0,0,0,196,41.37Z"/>
      <path class="a" d="M211.38,42a2.36,2.36,0,0,0,.5-.74,2.46,2.46,0,0,0,.18-.91,2.32,2.32,0,0,0-1-1.92,2.29,2.29,0,0,0-1.29-.4,2.42,2.42,0,0,0-.47,0,2.33,2.33,0,0,0-1.86,2.27,2.28,2.28,0,0,0,.19.91,2.17,2.17,0,0,0,.49.74,2.34,2.34,0,0,0,1.18.63,2.42,2.42,0,0,0,.47,0,2.29,2.29,0,0,0,1.29-.4A2.39,2.39,0,0,0,211.38,42Z"/>
      <path class="a" d="M164.76,41.2a1.41,1.41,0,0,0,.27-.4,1.25,1.25,0,0,0-1.16-1.74,1,1,0,0,0-.25,0,1.25,1.25,0,0,0-1,1.23,1.29,1.29,0,0,0,.1.48,1.41,1.41,0,0,0,.27.4,1.25,1.25,0,0,0,.64.34,1,1,0,0,0,.25,0,1.28,1.28,0,0,0,.7-.21Z"/>
      <path class="a" d="M188.38,41a1.86,1.86,0,0,0,.13-.67,1.71,1.71,0,0,0-3.42,0,1.67,1.67,0,0,0,.14.67,1.82,1.82,0,0,0,.36.54,1.71,1.71,0,0,0,2.42,0A1.85,1.85,0,0,0,188.38,41Z"/>
      <path class="a" d="M172.79,40.86a1.41,1.41,0,0,0,.11-.54,1.39,1.39,0,0,0-2.78,0,1.41,1.41,0,0,0,.11.54,1.43,1.43,0,0,0,.3.44,1.39,1.39,0,0,0,1,.41,1.42,1.42,0,0,0,1-.41A1.6,1.6,0,0,0,172.79,40.86Z"/>
      <path class="a" d="M180.44,41.18a2.29,2.29,0,0,0,.14-.27,1.46,1.46,0,0,0,.12-.6,1.61,1.61,0,0,0-.26-.86,1.48,1.48,0,0,0-1.59-.64,1.53,1.53,0,0,0-.78.42,2,2,0,0,0-.19.22,1.57,1.57,0,0,0-.23.55,1.63,1.63,0,0,0,0,.31,1.66,1.66,0,0,0,0,.32,1.31,1.31,0,0,0,.09.28,2.29,2.29,0,0,0,.14.27,2,2,0,0,0,.19.22,1.53,1.53,0,0,0,.78.42,1.06,1.06,0,0,0,.31,0,1.55,1.55,0,0,0,1.09-.46A2,2,0,0,0,180.44,41.18Z"/>
      <path class="a" d="M134,40.78a.64.64,0,0,0,.08-.14.87.87,0,0,0,.06-.32.82.82,0,0,0-.14-.47.83.83,0,0,0-.69-.37l-.17,0a.8.8,0,0,0-.42.23.58.58,0,0,0-.1.12.79.79,0,0,0-.12.3.47.47,0,0,0,0,.17.44.44,0,0,0,0,.16.75.75,0,0,0,0,.16s0,.1.08.14a.58.58,0,0,0,.1.12.8.8,0,0,0,.42.23l.17,0a.84.84,0,0,0,.59-.25A.58.58,0,0,0,134,40.78Z"/>
      <path class="a" d="M176.8,36.49A1.47,1.47,0,1,0,175.34,38,1.46,1.46,0,0,0,176.8,36.49Z"/>
      <path class="a" d="M184.6,36.49A1.62,1.62,0,1,0,183,38.11,1.62,1.62,0,0,0,184.6,36.49Z"/>
      <path class="a" d="M200.26,36.49a2,2,0,1,0-2,2A2,2,0,0,0,200.26,36.49Z"/>
      <path class="a" d="M169,36.49a1.32,1.32,0,1,0-1.32,1.32A1.32,1.32,0,0,0,169,36.49Z"/>
      <path class="a" d="M145.73,36.49a1,1,0,0,0-1.94,0,1,1,0,0,0,1.94,0Z"/>
      <path class="a" d="M153.48,36.49a1.08,1.08,0,1,0-1.08,1.08A1.07,1.07,0,0,0,153.48,36.49Z"/>
      <path class="a" d="M192.42,5.92a1.8,1.8,0,1,0-1.8,1.79A1.79,1.79,0,0,0,192.42,5.92Z"/>
      <path class="a" d="M192.42,36.49a1.8,1.8,0,1,0-1.8,1.8A1.79,1.79,0,0,0,192.42,36.49Z"/>
      <path class="a" d="M216,36.49a2.45,2.45,0,1,0-2.44,2.45A2.44,2.44,0,0,0,216,36.49Z"/>
      <path class="a" d="M208.12,36.49a2.21,2.21,0,1,0-2.21,2.21A2.2,2.2,0,0,0,208.12,36.49Z"/>
      <path class="a" d="M184.6,5.92A1.62,1.62,0,1,0,183,7.54,1.62,1.62,0,0,0,184.6,5.92Z"/>
      <path class="a" d="M114.82,5.92a.64.64,0,1,0-.64.64A.64.64,0,0,0,114.82,5.92Z"/>
      <path class="a" d="M107.12,5.92a.59.59,0,1,0-.58.58A.58.58,0,0,0,107.12,5.92Z"/>
      <path class="a" d="M145.73,5.92a1,1,0,1,0-1,1A1,1,0,0,0,145.73,5.92Z"/>
      <path class="a" d="M161.24,5.92a1.2,1.2,0,1,0-1.19,1.19A1.2,1.2,0,0,0,161.24,5.92Z"/>
      <path class="a" d="M169,5.92a1.32,1.32,0,1,0-1.32,1.32A1.32,1.32,0,0,0,169,5.92Z"/>
      <path class="a" d="M176.8,5.92a1.47,1.47,0,1,0-1.46,1.46A1.47,1.47,0,0,0,176.8,5.92Z"/>
      <path class="a" d="M153.48,5.92A1.08,1.08,0,1,0,152.4,7,1.08,1.08,0,0,0,153.48,5.92Z"/>
      <path class="a" d="M130.26,5.92a.79.79,0,1,0-.79.79A.79.79,0,0,0,130.26,5.92Z"/>
      <path class="a" d="M122.54,5.92a.72.72,0,1,0-.72.71A.72.72,0,0,0,122.54,5.92Z"/>
      <path class="a" d="M138,5.92a.88.88,0,1,0-.88.87A.87.87,0,0,0,138,5.92Z"/>
      <path class="a" d="M157.36,2.1a1.14,1.14,0,1,0-1.14,1.13A1.14,1.14,0,0,0,157.36,2.1Z"/>
      <path class="a" d="M126.4,2.1a.76.76,0,1,0-.75.75A.76.76,0,0,0,126.4,2.1Z"/>
      <path class="a" d="M141.86,2.1a.93.93,0,1,0-.92.92A.93.93,0,0,0,141.86,2.1Z"/>
      <path class="a" d="M149.43,2.67a1.06,1.06,0,0,0,0-1.15,1,1,0,0,0-.85-.45l-.21,0a1.07,1.07,0,0,0-.51.28l-.13.15a1.2,1.2,0,0,0-.15.37,1.36,1.36,0,0,0,0,.21,1.36,1.36,0,0,0,0,.2,1.2,1.2,0,0,0,.15.37l.13.15a1,1,0,0,0,.51.28l.21,0A1,1,0,0,0,149.43,2.67Z"/>
      <path class="a" d="M134,2.56a.81.81,0,0,0,.14-.46.82.82,0,0,0-.14-.47.83.83,0,0,0-.69-.37l-.17,0a.8.8,0,0,0-.42.23.58.58,0,0,0-.1.12.79.79,0,0,0-.12.3.47.47,0,0,0,0,.17.44.44,0,0,0,0,.16.79.79,0,0,0,.12.3.58.58,0,0,0,.1.12.8.8,0,0,0,.42.23l.17,0A.83.83,0,0,0,134,2.56Z"/>
      <path class="a" d="M118.68,2.1a.7.7,0,0,0-.3-.57.7.7,0,0,0-.38-.11h-.13a.68.68,0,0,0,0,1.33H118a.7.7,0,0,0,.38-.11A.68.68,0,0,0,118.68,2.1Z"/>
      <path class="a" d="M103.17,2.4a.51.51,0,0,0,.1-.3.52.52,0,0,0-.1-.31.56.56,0,0,0-.46-.25h-.11a.69.69,0,0,0-.28.15l-.06.09a.66.66,0,0,0-.09.19.49.49,0,0,0,0,.12.45.45,0,0,0,0,.11.56.56,0,0,0,.09.19l.06.09a.69.69,0,0,0,.28.15h.11A.56.56,0,0,0,103.17,2.4Z"/>
      <path class="a" d="M103.17,48.27a.53.53,0,0,0,0-.62.55.55,0,0,0-.46-.24h-.11a.51.51,0,0,0-.28.15l-.06.08a.72.72,0,0,0-.09.2.37.37,0,0,0,0,.11.41.41,0,0,0,0,.11.72.72,0,0,0,.09.2l.06.08a.51.51,0,0,0,.28.15h.11A.55.55,0,0,0,103.17,48.27Z"/>
      <path class="a" d="M111,2.1a.61.61,0,1,0-.61.61A.61.61,0,0,0,111,2.1Z"/>
      <path class="a" d="M196,3.15A1.9,1.9,0,0,0,194.45.2a2.33,2.33,0,0,0-.38,0,1.93,1.93,0,0,0-1,.52,1.56,1.56,0,0,0-.23.28,1.82,1.82,0,0,0-.29.67,2.43,2.43,0,0,0,0,.38,2.47,2.47,0,0,0,0,.39,1.82,1.82,0,0,0,.29.67,1.56,1.56,0,0,0,.23.28,1.93,1.93,0,0,0,1,.52,2.33,2.33,0,0,0,.38,0A1.88,1.88,0,0,0,196,3.15Z"/>
      <path class="a" d="M165.12,2.1a1.24,1.24,0,0,0-.55-1,1.21,1.21,0,0,0-.7-.22,1,1,0,0,0-.25,0,1.25,1.25,0,0,0,0,2.45,1,1,0,0,0,.25,0,1.28,1.28,0,0,0,.7-.21A1.27,1.27,0,0,0,165.12,2.1Z"/>
      <path class="a" d="M204.19,2.09a2.1,2.1,0,1,0-2.1,2.1A2.1,2.1,0,0,0,204.19,2.09Z"/>
      <path class="a" d="M188.51,2.1a1.71,1.71,0,1,0-1.71,1.7A1.7,1.7,0,0,0,188.51,2.1Z"/>
      <path class="a" d="M172.9,2.1a1.39,1.39,0,1,0-1.39,1.39A1.39,1.39,0,0,0,172.9,2.1Z"/>
      <path class="a" d="M180.44,3a1.61,1.61,0,0,0,.26-.86,1.62,1.62,0,0,0-.26-.87A1.55,1.55,0,0,0,178.07,1a2,2,0,0,0-.19.22,1.57,1.57,0,0,0-.23.55,1.73,1.73,0,0,0,0,.32,1.63,1.63,0,0,0,0,.31,1.57,1.57,0,0,0,.23.55,2,2,0,0,0,.19.22,1.53,1.53,0,0,0,.78.42,1.06,1.06,0,0,0,.31,0A1.55,1.55,0,0,0,180.44,3Z"/>
    </g>
    <g>
      <path class="b" d="M16.06,21.34c1.85.74,3.07,1.75,3.07,4.77v9.43c0,3-1.06,4.61-3.07,4.77h-13C1.06,40.15,0,38.56,0,35.54H2.33c0,2.12.53,3.45,2.81,3.45H14c2.28,0,2.81-1.33,2.81-3.45v-11c0-2.27-2.65-1.53-13.73-6.67C1.27,17.05,0,16.15,0,13.13V7C0,4,1.06,2.42,3.07,2.26h13c2,.16,3.07,1.75,3.07,4.77H16.27c0-2.12-.53-3.44-2.81-3.44H5.14C2.86,3.59,2.33,4.91,2.33,7v7.32c0,2.12.69,2.59,2.81,3.44Z"/>
      <path class="b" d="M34,40.31H31.59L23.37,18.9h2.07l7.52,19,4.19-14.47L35.77,18.9h2.07l7.52,19,5.36-19h1.85l-6.2,21.41H44L38.32,26.06Z"/>
      <path class="b" d="M58.19,9.21a2.41,2.41,0,0,1,0,4.82,2.41,2.41,0,1,1,0-4.82Zm1.06,31.05H56.92V19h2.33Z"/>
      <path class="b" d="M64.82,18.9h2.33v.9l10.28-1.06c2-.26,3.07,1.75,3.07,4.77v12c0,3-1.06,5-3.07,4.77L67,39.2l.06,11.92H64.87Zm2.33,19,8.21.52c2.28.32,2.81-.79,2.81-2.91v-12c0-2.12-.53-3.23-2.81-2.91l-8.21.53Z"/>
      <path class="b" d="M98.42,18.69c2,.16,3.07,1.75,3.07,4.77v1.86c0,3-1.06,4.61-3.07,4.77H88.08v5.45C88.14,37.66,88.67,39,91,39h5.4c2.28,0,2.81-1.33,2.81-3.45h2.33c0,3-1.06,4.61-3.07,4.77H88.88c-2-.16-3.08-1.75-3.08-4.77V23.46c0-3,1.06-4.61,3.08-4.77Zm.74,4.77c0-2.12-.53-3.44-2.81-3.44H91c-2.28,0-2.81,1.32-2.81,3.44v5.3h8.21c2.28,0,2.81-1.32,2.81-3.44Z"/>
    </g>
  </g>
</svg>
