<svg xmlns="http://www.w3.org/2000/svg" viewBox="0 0 232.73 51.79">
  <defs>
    <style>
      .a {
        fill: #6f7479;
      }

      .b {
        fill: #98979a;
      }
    </style>
  </defs>
  <g>
    <g>
      <path class="a" d="M27.47,28.85a2,2,0,1,0,2-2A2,2,0,0,0,27.47,28.85Z"/>
      <path class="a" d="M11.73,28.85a2.45,2.45,0,1,0,2.44-2.44A2.44,2.44,0,0,0,11.73,28.85Z"/>
      <path class="a" d="M19.61,28.85a2.21,2.21,0,1,0,2.21-2.21A2.21,2.21,0,0,0,19.61,28.85Z"/>
      <path class="a" d="M3.82,28.85a2.71,2.71,0,1,0,2.71-2.71A2.71,2.71,0,0,0,3.82,28.85Z"/>
      <path class="a" d="M50.93,28.85a1.47,1.47,0,1,0,1.47-1.46A1.46,1.46,0,0,0,50.93,28.85Z"/>
      <path class="a" d="M35.31,28.85a1.8,1.8,0,1,0,1.8-1.8A1.81,1.81,0,0,0,35.31,28.85Z"/>
      <path class="a" d="M58.72,28.85A1.32,1.32,0,1,0,60,27.53,1.32,1.32,0,0,0,58.72,28.85Z"/>
      <path class="a" d="M43.13,28.85a1.62,1.62,0,1,0,1.62-1.62A1.62,1.62,0,0,0,43.13,28.85Z"/>
      <path class="a" d="M23.55,32.67a2.1,2.1,0,1,0,2.09-2.09A2.09,2.09,0,0,0,23.55,32.67Z"/>
      <path class="a" d="M66.49,28.85a1.2,1.2,0,1,0,1.2-1.19A1.19,1.19,0,0,0,66.49,28.85Z"/>
      <path class="a" d="M7.78,32.67a2.58,2.58,0,1,0,2.57-2.57A2.57,2.57,0,0,0,7.78,32.67Z"/>
      <path class="a" d="M15.68,32.67A2.3,2.3,0,0,0,18,35a2.49,2.49,0,0,0,.47,0,2.32,2.32,0,0,0,0-4.55,2.5,2.5,0,0,0-.47,0,2.32,2.32,0,0,0-1.3.4A2.29,2.29,0,0,0,15.68,32.67Z"/>
      <path class="a" d="M97.47,28.85a.79.79,0,1,0,.79-.79A.79.79,0,0,0,97.47,28.85Z"/>
      <path class="a" d="M89.74,28.85a.88.88,0,1,0,.88-.88A.89.89,0,0,0,89.74,28.85Z"/>
      <path class="a" d="M82,28.85a1,1,0,1,0,1-1A1,1,0,0,0,82,28.85Z"/>
      <path class="a" d="M105.19,28.85a.72.72,0,1,0,.72-.71A.71.71,0,0,0,105.19,28.85Z"/>
      <path class="a" d="M74.25,28.85a1.08,1.08,0,1,0,1.08-1.08A1.09,1.09,0,0,0,74.25,28.85Z"/>
      <path class="a" d="M97.47,21.21a.79.79,0,1,0,.79-.8A.8.8,0,0,0,97.47,21.21Z"/>
      <path class="a" d="M105.19,21.21a.72.72,0,1,0,.72-.72A.71.71,0,0,0,105.19,21.21Z"/>
      <path class="a" d="M89.74,21.21a.88.88,0,1,0,.88-.88A.88.88,0,0,0,89.74,21.21Z"/>
      <path class="a" d="M82,21.21a1,1,0,1,0,1-1A1,1,0,0,0,82,21.21Z"/>
      <path class="a" d="M35.31,21.21a1.8,1.8,0,1,0,1.8-1.8A1.8,1.8,0,0,0,35.31,21.21Z"/>
      <path class="a" d="M74.25,21.21a1.08,1.08,0,1,0,1.08-1.08A1.08,1.08,0,0,0,74.25,21.21Z"/>
      <path class="a" d="M43.13,21.21a1.62,1.62,0,1,0,1.62-1.63A1.63,1.63,0,0,0,43.13,21.21Z"/>
      <path class="a" d="M19.61,21.21A2.21,2.21,0,1,0,21.82,19,2.21,2.21,0,0,0,19.61,21.21Z"/>
      <path class="a" d="M27.47,21.21a2,2,0,1,0,2-2A2,2,0,0,0,27.47,21.21Z"/>
      <path class="a" d="M66.49,21.21a1.2,1.2,0,1,0,1.2-1.2A1.2,1.2,0,0,0,66.49,21.21Z"/>
      <path class="a" d="M50.93,21.21a1.47,1.47,0,1,0,1.47-1.47A1.47,1.47,0,0,0,50.93,21.21Z"/>
      <path class="a" d="M58.72,21.21A1.32,1.32,0,1,0,60,19.88,1.32,1.32,0,0,0,58.72,21.21Z"/>
      <path class="a" d="M54.94,24.49a1.37,1.37,0,0,0-.11.54,1.39,1.39,0,0,0,2.78,0,1.37,1.37,0,0,0-.11-.54,1.23,1.23,0,0,0-.3-.44,1.38,1.38,0,0,0-2,0A1.23,1.23,0,0,0,54.94,24.49Z"/>
      <path class="a" d="M70.46,24.59a1.23,1.23,0,0,0-.08.44,1.13,1.13,0,0,0,2.26,0,1,1,0,0,0-.09-.44,1.13,1.13,0,0,0-.24-.36,1.12,1.12,0,0,0-.8-.33,1.1,1.1,0,0,0-.8.33A1.16,1.16,0,0,0,70.46,24.59Z"/>
      <path class="a" d="M63,24.14a1.09,1.09,0,0,0-.27.4,1.16,1.16,0,0,0-.1.49,1.24,1.24,0,0,0,1.25,1.25l.26,0a1.26,1.26,0,0,0,1-1.23,1.34,1.34,0,0,0-.1-.49,1.23,1.23,0,0,0-.27-.4,1.26,1.26,0,0,0-.63-.34,1.09,1.09,0,0,0-.26,0,1.21,1.21,0,0,0-.7.22A.84.84,0,0,0,63,24.14Z"/>
      <path class="a" d="M47.3,24.17a.94.94,0,0,0-.14.26,1.48,1.48,0,0,0,.14,1.46,1.52,1.52,0,0,0,1.28.68,1.63,1.63,0,0,0,.31,0,1.46,1.46,0,0,0,.77-.42,1.37,1.37,0,0,0,.19-.23,1.5,1.5,0,0,0,.23-.55,1.65,1.65,0,0,0,0-.31,1.55,1.55,0,0,0,0-.31,1.4,1.4,0,0,0-.09-.29.94.94,0,0,0-.14-.26,1.37,1.37,0,0,0-.19-.23,1.46,1.46,0,0,0-.77-.42,1.63,1.63,0,0,0-.31,0,1.51,1.51,0,0,0-1.09.45A1.37,1.37,0,0,0,47.3,24.17Z"/>
      <path class="a" d="M93.75,24.56l-.08.14a.88.88,0,0,0-.06.33.81.81,0,0,0,.14.46.83.83,0,0,0,.69.37l.17,0a.81.81,0,0,0,.42-.22.64.64,0,0,0,.1-.13.84.84,0,0,0,.13-.29,1,1,0,0,0,0-.17.91.91,0,0,0,0-.17,1,1,0,0,0-.05-.16,1,1,0,0,0-.08-.14l-.1-.12a.91.91,0,0,0-.42-.23h-.17a.83.83,0,0,0-.59.24Z"/>
      <path class="a" d="M101.39,24.74a.88.88,0,0,0-.06.29.76.76,0,0,0,1.51,0,.68.68,0,0,0-.06-.29.67.67,0,0,0-.16-.24.75.75,0,0,0-.53-.22.72.72,0,0,0-.53.22A.7.7,0,0,0,101.39,24.74Z"/>
      <path class="a" d="M39.36,24.36a1.67,1.67,0,0,0-.14.67,1.71,1.71,0,0,0,3.42,0,1.67,1.67,0,0,0-.14-.67,1.76,1.76,0,0,0-.36-.54,1.71,1.71,0,0,0-2.42,0A1.76,1.76,0,0,0,39.36,24.36Z"/>
      <path class="a" d="M86,24.67a.86.86,0,0,0-.08.36.93.93,0,0,0,1.85,0,1,1,0,0,0-.07-.36,1,1,0,0,0-.2-.29.91.91,0,0,0-.65-.27.88.88,0,0,0-.65.27A.72.72,0,0,0,86,24.67Z"/>
      <path class="a" d="M78.31,24.46a1,1,0,0,0-.1.17,1.06,1.06,0,0,0-.08.4,1,1,0,0,0,1,1l.21,0a1,1,0,0,0,.52-.28L80,25.6a.93.93,0,0,0,.15-.37.65.65,0,0,0,0-.2.75.75,0,0,0,0-.21.7.7,0,0,0-.06-.19.56.56,0,0,0-.09-.17,1,1,0,0,0-.12-.15,1,1,0,0,0-.52-.28.75.75,0,0,0-.21,0,1,1,0,0,0-.72.3A.44.44,0,0,0,78.31,24.46Z"/>
      <path class="a" d="M.21,24A2.86,2.86,0,0,0,0,25a2.71,2.71,0,0,0,5.42,0A2.68,2.68,0,0,0,5.2,24a2.61,2.61,0,0,0-.58-.86,2.72,2.72,0,0,0-3.83,0A3,3,0,0,0,.21,24Z"/>
      <path class="a" d="M31.72,24A1.81,1.81,0,0,0,31.39,25a1.9,1.9,0,0,0,1.9,1.89,1.64,1.64,0,0,0,.38,0,1.84,1.84,0,0,0,.95-.51,1.49,1.49,0,0,0,.23-.28,1.87,1.87,0,0,0,.29-.68,1.83,1.83,0,0,0,0-.76,2.15,2.15,0,0,0-.11-.36,2,2,0,0,0-.18-.32,1.49,1.49,0,0,0-.23-.28,1.77,1.77,0,0,0-.95-.51,1.64,1.64,0,0,0-.38,0,1.88,1.88,0,0,0-1.34.55A2,2,0,0,0,31.72,24Z"/>
      <path class="a" d="M8,24a2.58,2.58,0,0,0,2.37,3.57A2.56,2.56,0,0,0,12.72,24a2.42,2.42,0,0,0-.55-.82A2.57,2.57,0,0,0,8,24Z"/>
      <path class="a" d="M23.71,24.21a2,2,0,0,0-.16.82,2.1,2.1,0,0,0,4.19,0,2,2,0,0,0-.17-.82,2,2,0,0,0-.45-.66,2.08,2.08,0,0,0-3,0A2.15,2.15,0,0,0,23.71,24.21Z"/>
      <path class="a" d="M11.73,21.21a2.45,2.45,0,1,0,2.44-2.45A2.44,2.44,0,0,0,11.73,21.21Z"/>
      <path class="a" d="M16.35,23.39a2.23,2.23,0,0,0-.49.73A2.33,2.33,0,0,0,18,27.35a2.5,2.5,0,0,0,.47-.05A2.32,2.32,0,0,0,20.32,25a2.5,2.5,0,0,0-.18-.91,2.43,2.43,0,0,0-.5-.73,2.37,2.37,0,0,0-1.17-.64,2.49,2.49,0,0,0-.47,0,2.32,2.32,0,0,0-1.3.39A2.45,2.45,0,0,0,16.35,23.39Z"/>
      <path class="a" d="M31.72,39.26a1.8,1.8,0,0,0-.29.68,2.33,2.33,0,0,0,0,.38,1.82,1.82,0,0,0,.33,1,1.87,1.87,0,0,0,1.57.84,2.45,2.45,0,0,0,.38,0,1.85,1.85,0,0,0,.95-.52,1.23,1.23,0,0,0,.23-.28,1.82,1.82,0,0,0,.29-.67,2.45,2.45,0,0,0,0-.38,2.33,2.33,0,0,0,0-.38,1.8,1.8,0,0,0-.29-.68,1.23,1.23,0,0,0-.23-.28,1.85,1.85,0,0,0-.95-.52,2.45,2.45,0,0,0-.38,0A1.9,1.9,0,0,0,31.72,39.26Z"/>
      <path class="a" d="M23.59,39.89a2,2,0,0,0,0,.43,2.1,2.1,0,0,0,4.19,0,3,3,0,0,0,0-.43,2.1,2.1,0,0,0-4.11,0Z"/>
      <path class="a" d="M39.26,40a2,2,0,0,0,0,.35,1.71,1.71,0,0,0,3.42,0,1.34,1.34,0,0,0,0-.35,1.71,1.71,0,0,0-3.34,0Z"/>
      <path class="a" d="M15.72,39.85a2.42,2.42,0,0,0,0,.47A2.32,2.32,0,0,0,18,42.64a2.5,2.5,0,0,0,.47,0,2.33,2.33,0,0,0,1.85-2.27,2.42,2.42,0,0,0-.05-.47A2.32,2.32,0,0,0,18.47,38,2.5,2.5,0,0,0,18,38a2.34,2.34,0,0,0-2.28,1.86Z"/>
      <path class="a" d="M47.3,39.46a1.5,1.5,0,0,0-.23.55,1.55,1.55,0,0,0,0,.31,1.56,1.56,0,0,0,1.55,1.54,1.49,1.49,0,0,0,1.08-.45,1.37,1.37,0,0,0,.19-.23,1.57,1.57,0,0,0,.23-.55,1.65,1.65,0,0,0,0-.31,1.55,1.55,0,0,0,0-.31,1.5,1.5,0,0,0-.23-.55,1.06,1.06,0,0,0-.19-.23,1.46,1.46,0,0,0-.77-.42,1.63,1.63,0,0,0-.31,0A1.52,1.52,0,0,0,47.3,39.46Z"/>
      <path class="a" d="M70.4,40.09a.86.86,0,0,0,0,.23,1.13,1.13,0,1,0,2.26,0,1.64,1.64,0,0,0,0-.23,1.13,1.13,0,0,0-2.22,0Z"/>
      <path class="a" d="M62.63,40.06a2.28,2.28,0,0,0,0,.26,1.24,1.24,0,0,0,1.25,1.25l.26,0a1.26,1.26,0,0,0,1-1.23,1.15,1.15,0,0,0,0-.26,1.24,1.24,0,0,0-1-1,1.09,1.09,0,0,0-.26,0,1.21,1.21,0,0,0-.7.22A1.3,1.3,0,0,0,62.63,40.06Z"/>
      <path class="a" d="M54.86,40a1.27,1.27,0,0,0,0,.28,1.39,1.39,0,0,0,2.78,0,1.27,1.27,0,0,0,0-.28,1.39,1.39,0,0,0-2.72,0Z"/>
      <path class="a" d="M78.31,39.74a1,1,0,0,0-.16.37,1.49,1.49,0,0,0,0,.21,1,1,0,0,0,.18.57,1,1,0,0,0,.84.45l.21,0a1,1,0,0,0,.52-.28l.12-.15a.93.93,0,0,0,.15-.37.65.65,0,0,0,0-.2.75.75,0,0,0,0-.21,1,1,0,0,0-.15-.37l-.12-.15a1.1,1.1,0,0,0-.52-.28l-.21,0A1,1,0,0,0,78.31,39.74Z"/>
      <path class="a" d="M27.47,44.14a2,2,0,1,0,2-2A2,2,0,0,0,27.47,44.14Z"/>
      <path class="a" d="M19.61,44.14a2.21,2.21,0,1,0,2.21-2.21A2.2,2.2,0,0,0,19.61,44.14Z"/>
      <path class="a" d="M109.07,40.18a.59.59,0,0,0,0,.14.68.68,0,0,0,.3.56.7.7,0,0,0,.38.11h.14a.68.68,0,0,0,.54-.66.59.59,0,0,0,0-.14.67.67,0,0,0-.52-.53h-.14a.7.7,0,0,0-.38.11A.67.67,0,0,0,109.07,40.18Z"/>
      <path class="a" d="M101.35,40.16a.78.78,0,0,0,0,.16.76.76,0,0,0,1.51,0,.78.78,0,0,0,0-.16.75.75,0,0,0-1.47,0Z"/>
      <path class="a" d="M116.78,40.19a.51.51,0,0,0,0,.13.62.62,0,0,0,1.23,0,.51.51,0,0,0,0-.13.61.61,0,0,0-1.19,0Z"/>
      <path class="a" d="M93.75,39.85a.79.79,0,0,0-.12.3.88.88,0,0,0,0,.17.81.81,0,0,0,.14.46.83.83,0,0,0,.69.37l.17,0A.76.76,0,0,0,95,40.9a.4.4,0,0,0,.1-.12.81.81,0,0,0,.13-.3.86.86,0,0,0,0-.16.91.91,0,0,0,0-.17.81.81,0,0,0-.13-.3l-.1-.12a.76.76,0,0,0-.42-.23l-.17,0A.83.83,0,0,0,93.75,39.85Z"/>
      <path class="a" d="M85.89,40.13a1.11,1.11,0,0,0,0,.19.93.93,0,0,0,1.85,0,1.11,1.11,0,0,0,0-.19.92.92,0,0,0-.9-.74A.93.93,0,0,0,85.89,40.13Z"/>
      <path class="a" d="M31.72,31.61a1.87,1.87,0,0,0-.33,1.06,1.85,1.85,0,0,0,.33,1.06,1.89,1.89,0,0,0,1.57.83,1.64,1.64,0,0,0,.38,0,1.77,1.77,0,0,0,.95-.51,1.49,1.49,0,0,0,.23-.28,1.8,1.8,0,0,0,.29-.68,1.82,1.82,0,0,0,0-.76,1.94,1.94,0,0,0-.29-.68,1.49,1.49,0,0,0-.23-.28,1.84,1.84,0,0,0-.95-.51,1.64,1.64,0,0,0-.38,0A1.89,1.89,0,0,0,31.72,31.61Z"/>
      <path class="a" d="M109.05,32.67a.66.66,0,0,0,.3.56.64.64,0,0,0,.38.12h.14a.69.69,0,0,0,.54-.67.67.67,0,0,0-.54-.66l-.14,0a.71.71,0,0,0-.38.12A.68.68,0,0,0,109.05,32.67Z"/>
      <path class="a" d="M101.33,32.67a.76.76,0,1,0,.76-.75A.75.75,0,0,0,101.33,32.67Z"/>
      <path class="a" d="M62.61,32.67a1.26,1.26,0,0,0,.55,1,1.21,1.21,0,0,0,.7.22,1.09,1.09,0,0,0,.26,0,1.26,1.26,0,0,0,0-2.46l-.26,0a1.24,1.24,0,0,0-1.25,1.25Z"/>
      <path class="a" d="M47.3,31.81a1.51,1.51,0,0,0-.27.86,1.49,1.49,0,0,0,.27.86,1.52,1.52,0,0,0,1.28.68,1.63,1.63,0,0,0,.31,0,1.46,1.46,0,0,0,.77-.42,1.37,1.37,0,0,0,.19-.23,1.5,1.5,0,0,0,.23-.55,1.55,1.55,0,0,0,0-.31,1.65,1.65,0,0,0,0-.31,1.5,1.5,0,0,0-.23-.55,1.37,1.37,0,0,0-.19-.23,1.46,1.46,0,0,0-.77-.42,1.63,1.63,0,0,0-.31,0A1.52,1.52,0,0,0,47.3,31.81Z"/>
      <path class="a" d="M54.83,32.67a1.39,1.39,0,1,0,1.39-1.39A1.39,1.39,0,0,0,54.83,32.67Z"/>
      <path class="a" d="M39.22,32.67A1.71,1.71,0,1,0,40.93,31,1.72,1.72,0,0,0,39.22,32.67Z"/>
      <path class="a" d="M78.31,32.1a1,1,0,0,0,.84,1.59.75.75,0,0,0,.21,0,1,1,0,0,0,.52-.28,1,1,0,0,0,.12-.15,1,1,0,0,0,.15-.36.75.75,0,0,0,0-.21.65.65,0,0,0,0-.2A.93.93,0,0,0,80,32.1L79.88,32a1,1,0,0,0-.52-.28l-.21,0A1,1,0,0,0,78.31,32.1Z"/>
      <path class="a" d="M85.87,32.67a.93.93,0,1,0,.93-.92A.93.93,0,0,0,85.87,32.67Z"/>
      <path class="a" d="M70.38,32.67a1.13,1.13,0,0,0,2.26,0,1.13,1.13,0,1,0-2.26,0Z"/>
      <path class="a" d="M93.75,32.21a.81.81,0,0,0-.14.46.86.86,0,0,0,.14.47.83.83,0,0,0,.69.36h.17a.91.91,0,0,0,.42-.23l.1-.12a.81.81,0,0,0,.13-.3.91.91,0,0,0,0-.17,1,1,0,0,0,0-.17.84.84,0,0,0-.13-.29.64.64,0,0,0-.1-.13.81.81,0,0,0-.42-.22l-.17,0A.83.83,0,0,0,93.75,32.21Z"/>
      <path class="a" d="M105.19,36.49a.72.72,0,1,0,.72-.71A.72.72,0,0,0,105.19,36.49Z"/>
      <path class="a" d="M58.72,36.49A1.32,1.32,0,1,0,60,35.17,1.32,1.32,0,0,0,58.72,36.49Z"/>
      <path class="a" d="M74.25,36.49a1.08,1.08,0,1,0,1.08-1.07A1.08,1.08,0,0,0,74.25,36.49Z"/>
      <path class="a" d="M89.74,36.49a.88.88,0,1,0,.88-.87A.88.88,0,0,0,89.74,36.49Z"/>
      <path class="a" d="M66.49,36.49a1.2,1.2,0,1,0,1.2-1.19A1.2,1.2,0,0,0,66.49,36.49Z"/>
      <path class="a" d="M82,36.49a1,1,0,1,0,1-1A1,1,0,0,0,82,36.49Z"/>
      <path class="a" d="M97.47,36.49a.79.79,0,1,0,.79-.79A.79.79,0,0,0,97.47,36.49Z"/>
      <path class="a" d="M112.91,36.49a.65.65,0,1,0,.64-.64A.65.65,0,0,0,112.91,36.49Z"/>
      <path class="a" d="M50.93,36.49A1.47,1.47,0,1,0,52.4,35,1.47,1.47,0,0,0,50.93,36.49Z"/>
      <path class="a" d="M11.73,36.49a2.45,2.45,0,1,0,2.44-2.44A2.45,2.45,0,0,0,11.73,36.49Z"/>
      <path class="a" d="M19.61,36.49a2.21,2.21,0,1,0,2.21-2.2A2.21,2.21,0,0,0,19.61,36.49Z"/>
      <path class="a" d="M43.13,36.49a1.62,1.62,0,1,0,1.62-1.62A1.63,1.63,0,0,0,43.13,36.49Z"/>
      <path class="a" d="M27.47,36.49a2,2,0,1,0,2-2A2,2,0,0,0,27.47,36.49Z"/>
      <path class="a" d="M35.31,36.49a1.8,1.8,0,1,0,1.8-1.79A1.8,1.8,0,0,0,35.31,36.49Z"/>
      <path class="a" d="M66.49,13.56a1.2,1.2,0,1,0,1.2-1.19A1.19,1.19,0,0,0,66.49,13.56Z"/>
      <path class="a" d="M27.47,5.92a2,2,0,1,0,2-2A2,2,0,0,0,27.47,5.92Z"/>
      <path class="a" d="M19.61,5.92a2.21,2.21,0,1,0,2.21-2.21A2.2,2.2,0,0,0,19.61,5.92Z"/>
      <path class="a" d="M109.05,2.1a.68.68,0,0,0,.3.56.7.7,0,0,0,.38.11h.14a.68.68,0,0,0,0-1.33h-.14a.7.7,0,0,0-.38.11A.7.7,0,0,0,109.05,2.1Z"/>
      <path class="a" d="M116.76,2.1a.62.62,0,1,0,.62-.62A.62.62,0,0,0,116.76,2.1Z"/>
      <path class="a" d="M35.31,5.92a1.8,1.8,0,1,0,1.8-1.8A1.8,1.8,0,0,0,35.31,5.92Z"/>
      <path class="a" d="M93.75,1.63a.82.82,0,0,0-.14.47.81.81,0,0,0,.14.46.83.83,0,0,0,.69.37l.17,0A.76.76,0,0,0,95,2.68a.4.4,0,0,0,.1-.12.81.81,0,0,0,.13-.3.86.86,0,0,0,0-.16.91.91,0,0,0,0-.17.81.81,0,0,0-.13-.3.58.58,0,0,0-.1-.12.76.76,0,0,0-.42-.23l-.17,0A.83.83,0,0,0,93.75,1.63Z"/>
      <path class="a" d="M101.33,2.1a.76.76,0,1,0,.76-.76A.76.76,0,0,0,101.33,2.1Z"/>
      <path class="a" d="M105.19,5.92a.72.72,0,1,0,.72-.72A.71.71,0,0,0,105.19,5.92Z"/>
      <path class="a" d="M112.91,5.92a.65.65,0,1,0,.64-.65A.64.64,0,0,0,112.91,5.92Z"/>
      <path class="a" d="M43.13,5.92A1.62,1.62,0,1,0,44.75,4.3,1.63,1.63,0,0,0,43.13,5.92Z"/>
      <path class="a" d="M120.62,5.92a.58.58,0,1,0,.58-.58A.58.58,0,0,0,120.62,5.92Z"/>
      <path class="a" d="M58.72,5.92A1.32,1.32,0,1,0,60,4.6,1.32,1.32,0,0,0,58.72,5.92Z"/>
      <path class="a" d="M66.49,5.92a1.2,1.2,0,1,0,1.2-1.19A1.19,1.19,0,0,0,66.49,5.92Z"/>
      <path class="a" d="M74.25,5.92a1.08,1.08,0,1,0,1.08-1.08A1.08,1.08,0,0,0,74.25,5.92Z"/>
      <path class="a" d="M85.87,2.1a.93.93,0,1,0,.93-.93A.93.93,0,0,0,85.87,2.1Z"/>
      <path class="a" d="M97.47,5.92a.79.79,0,0,0,1.58,0,.79.79,0,0,0-1.58,0Z"/>
      <path class="a" d="M89.74,5.92A.88.88,0,1,0,90.62,5,.88.88,0,0,0,89.74,5.92Z"/>
      <path class="a" d="M82,5.92a1,1,0,1,0,1-1A1,1,0,0,0,82,5.92Z"/>
      <path class="a" d="M50.93,5.92A1.47,1.47,0,1,0,52.4,4.45,1.46,1.46,0,0,0,50.93,5.92Z"/>
      <path class="a" d="M31.72,1a1.85,1.85,0,0,0,0,2.11A1.87,1.87,0,0,0,33.29,4a2.45,2.45,0,0,0,.38,0,1.85,1.85,0,0,0,.95-.52,1.23,1.23,0,0,0,.23-.28,1.82,1.82,0,0,0,.29-.67,2.45,2.45,0,0,0,0-.38,2.58,2.58,0,0,0,0-.39A1.82,1.82,0,0,0,34.85,1a1.23,1.23,0,0,0-.23-.28,1.85,1.85,0,0,0-.95-.52,2.45,2.45,0,0,0-.38,0A1.9,1.9,0,0,0,31.72,1Z"/>
      <path class="a" d="M23.55,2.1A2.1,2.1,0,1,0,25.64,0,2.09,2.09,0,0,0,23.55,2.1Z"/>
      <path class="a" d="M47.3,1.23A1.52,1.52,0,0,0,47.3,3a1.52,1.52,0,0,0,1.28.68,1.1,1.1,0,0,0,.31,0,1.46,1.46,0,0,0,.77-.42A1,1,0,0,0,49.85,3a1.57,1.57,0,0,0,.23-.55,1.65,1.65,0,0,0,0-.31,1.55,1.55,0,0,0,0-.31,1.62,1.62,0,0,0-.23-.56A1.3,1.3,0,0,0,49.66,1a1.46,1.46,0,0,0-.77-.42,1.63,1.63,0,0,0-.31,0A1.52,1.52,0,0,0,47.3,1.23Z"/>
      <path class="a" d="M39.22,2.1A1.71,1.71,0,1,0,40.93.39,1.71,1.71,0,0,0,39.22,2.1Z"/>
      <path class="a" d="M3.82,21.21A2.71,2.71,0,1,0,6.53,18.5,2.71,2.71,0,0,0,3.82,21.21Z"/>
      <path class="a" d="M54.83,2.1A1.39,1.39,0,1,0,56.22.71,1.39,1.39,0,0,0,54.83,2.1Z"/>
      <path class="a" d="M62.61,2.1a1.27,1.27,0,0,0,.55,1,1.28,1.28,0,0,0,.7.21,1.09,1.09,0,0,0,.26,0,1.25,1.25,0,0,0,0-2.45,1.09,1.09,0,0,0-.26,0,1.21,1.21,0,0,0-.7.22A1.24,1.24,0,0,0,62.61,2.1Z"/>
      <path class="a" d="M78.31,1.52a1,1,0,0,0-.18.58,1,1,0,0,0,.18.57,1,1,0,0,0,.84.45l.21,0a1,1,0,0,0,.52-.28L80,2.67a1,1,0,0,0,.15-.37.65.65,0,0,0,0-.2.75.75,0,0,0,0-.21A1,1,0,0,0,80,1.52l-.12-.15a1.1,1.1,0,0,0-.52-.28l-.21,0A1,1,0,0,0,78.31,1.52Z"/>
      <path class="a" d="M70.38,2.1A1.13,1.13,0,1,0,71.51,1,1.13,1.13,0,0,0,70.38,2.1Z"/>
      <path class="a" d="M7.78,17.38a2.58,2.58,0,1,0,2.57-2.57A2.58,2.58,0,0,0,7.78,17.38Z"/>
      <path class="a" d="M97.47,13.56a.79.79,0,1,0,.79-.79A.79.79,0,0,0,97.47,13.56Z"/>
      <path class="a" d="M39.22,17.38a1.71,1.71,0,1,0,1.71-1.7A1.71,1.71,0,0,0,39.22,17.38Z"/>
      <path class="a" d="M31.72,16.33a1.85,1.85,0,0,0,0,2.11,1.89,1.89,0,0,0,1.57.83,2.43,2.43,0,0,0,.38,0,1.85,1.85,0,0,0,.95-.52,1.23,1.23,0,0,0,.23-.28,1.82,1.82,0,0,0,.29-.67,2.58,2.58,0,0,0,0-.39,2.45,2.45,0,0,0,0-.38,1.82,1.82,0,0,0-.29-.67,1.23,1.23,0,0,0-.23-.28,1.85,1.85,0,0,0-.95-.52,2.45,2.45,0,0,0-.38,0A1.87,1.87,0,0,0,31.72,16.33Z"/>
      <path class="a" d="M15.68,17.38A2.32,2.32,0,0,0,18,19.71a2.5,2.5,0,0,0,.47-.05,2.32,2.32,0,0,0,0-4.55,2.5,2.5,0,0,0-.47,0,2.32,2.32,0,0,0-2.32,2.32Z"/>
      <path class="a" d="M112.91,13.56a.65.65,0,1,0,.64-.64A.65.65,0,0,0,112.91,13.56Z"/>
      <path class="a" d="M105.19,13.56a.72.72,0,1,0,.72-.71A.72.72,0,0,0,105.19,13.56Z"/>
      <path class="a" d="M47.3,16.52a1.54,1.54,0,0,0-.27.86,1.49,1.49,0,0,0,.27.86,1.52,1.52,0,0,0,1.28.68,1.63,1.63,0,0,0,.31,0,1.46,1.46,0,0,0,.77-.42,1.06,1.06,0,0,0,.19-.23,1.5,1.5,0,0,0,.23-.55,1.55,1.55,0,0,0,0-.31,1.65,1.65,0,0,0,0-.31,1.57,1.57,0,0,0-.23-.55,1.37,1.37,0,0,0-.19-.23,1.49,1.49,0,0,0-1.08-.45A1.52,1.52,0,0,0,47.3,16.52Z"/>
      <path class="a" d="M23.55,17.38a2.1,2.1,0,1,0,2.09-2.09A2.09,2.09,0,0,0,23.55,17.38Z"/>
      <path class="a" d="M70.38,17.38a1.13,1.13,0,1,0,1.13-1.13A1.13,1.13,0,0,0,70.38,17.38Z"/>
      <path class="a" d="M85.87,17.38a.93.93,0,1,0,1.85,0,.93.93,0,0,0-1.85,0Z"/>
      <path class="a" d="M78.31,16.81a1,1,0,0,0,0,1.15,1,1,0,0,0,.84.45.76.76,0,0,0,.21,0,1.08,1.08,0,0,0,.52-.27L80,18a1,1,0,0,0,.15-.37.75.75,0,0,0,0-.21.65.65,0,0,0,0-.2,1,1,0,0,0-.15-.37l-.12-.15a1,1,0,0,0-.52-.28l-.21,0A1,1,0,0,0,78.31,16.81Z"/>
      <path class="a" d="M62.61,17.38a1.24,1.24,0,0,0,.55,1,1.21,1.21,0,0,0,.7.22,1.09,1.09,0,0,0,.26,0,1.25,1.25,0,0,0,1-1.23,1.26,1.26,0,0,0-1-1.23l-.26,0a1.24,1.24,0,0,0-1.25,1.25Z"/>
      <path class="a" d="M109.05,17.38a.7.7,0,0,0,.3.57.7.7,0,0,0,.38.11h.14a.69.69,0,0,0,.54-.67.68.68,0,0,0-.54-.66h-.14a.7.7,0,0,0-.38.11A.68.68,0,0,0,109.05,17.38Z"/>
      <path class="a" d="M54.83,17.38A1.39,1.39,0,1,0,56.22,16,1.39,1.39,0,0,0,54.83,17.38Z"/>
      <path class="a" d="M101.33,17.38a.76.76,0,1,0,.76-.75A.75.75,0,0,0,101.33,17.38Z"/>
      <path class="a" d="M93.75,16.92a.81.81,0,0,0-.14.46.82.82,0,0,0,.14.47.83.83,0,0,0,.69.37l.17,0A.76.76,0,0,0,95,18l.1-.12a.81.81,0,0,0,.13-.3.91.91,0,0,0,0-.17.86.86,0,0,0,0-.16.81.81,0,0,0-.13-.3.4.4,0,0,0-.1-.12.76.76,0,0,0-.42-.23l-.17,0A.83.83,0,0,0,93.75,16.92Z"/>
      <path class="a" d="M89.74,13.56a.88.88,0,1,0,.88-.87A.88.88,0,0,0,89.74,13.56Z"/>
      <path class="a" d="M86,9.38a.86.86,0,0,0-.08.36.93.93,0,0,0,1.85,0,1,1,0,0,0-.07-.36,1,1,0,0,0-.2-.29.91.91,0,0,0-.65-.27.88.88,0,0,0-.65.27A.72.72,0,0,0,86,9.38Z"/>
      <path class="a" d="M78.31,9.17a1,1,0,0,0-.1.17,1.06,1.06,0,0,0-.08.4,1,1,0,0,0,1,1l.21,0a1,1,0,0,0,.52-.28,1,1,0,0,0,.12-.15,1,1,0,0,0,.15-.36,1.11,1.11,0,0,0,0-.42.7.7,0,0,0-.06-.19A.56.56,0,0,0,80,9.17,1,1,0,0,0,79.88,9a1,1,0,0,0-.52-.28l-.21,0a1,1,0,0,0-.72.3A.44.44,0,0,0,78.31,9.17Z"/>
      <path class="a" d="M101.39,9.45a.94.94,0,0,0-.06.29.76.76,0,0,0,1.51,0,.72.72,0,0,0-.06-.29.78.78,0,0,0-.16-.24.75.75,0,0,0-.53-.22.72.72,0,0,0-.53.22A.81.81,0,0,0,101.39,9.45Z"/>
      <path class="a" d="M109.25,9.26a.64.64,0,0,0-.14.22.58.58,0,0,0-.06.26.68.68,0,0,0,.3.56.64.64,0,0,0,.38.12l.14,0a.67.67,0,0,0,.54-.66.75.75,0,0,0,0-.26.86.86,0,0,0-.15-.22.63.63,0,0,0-.34-.18l-.14,0a.64.64,0,0,0-.38.12Z"/>
      <path class="a" d="M70.46,9.3a1.23,1.23,0,0,0-.08.44,1.13,1.13,0,0,0,2.26,0,1,1,0,0,0-.09-.44,1.13,1.13,0,0,0-.24-.36,1.12,1.12,0,0,0-.8-.33,1.1,1.1,0,0,0-.8.33A1.16,1.16,0,0,0,70.46,9.3Z"/>
      <path class="a" d="M116.81,9.5a.69.69,0,0,0,0,.24.62.62,0,0,0,1.23,0,.69.69,0,0,0,0-.24.64.64,0,0,0-.13-.19.62.62,0,0,0-.87,0A.64.64,0,0,0,116.81,9.5Z"/>
      <path class="a" d="M23.71,8.92a2.07,2.07,0,0,0-.16.82,2.1,2.1,0,1,0,4-.82,2,2,0,0,0-.45-.66,2.08,2.08,0,0,0-3,0A2.15,2.15,0,0,0,23.71,8.92Z"/>
      <path class="a" d="M31.72,8.68a1.81,1.81,0,0,0-.33,1.06,1.85,1.85,0,0,0,.33,1.06,1.89,1.89,0,0,0,1.57.83,1.64,1.64,0,0,0,.38,0,1.84,1.84,0,0,0,.95-.51,1.49,1.49,0,0,0,.23-.28,1.8,1.8,0,0,0,.29-.68,2.33,2.33,0,0,0,0-.38,2.33,2.33,0,0,0,0-.38A2.47,2.47,0,0,0,35,9a2,2,0,0,0-.18-.32,1.49,1.49,0,0,0-.23-.28,1.84,1.84,0,0,0-.95-.51,1.64,1.64,0,0,0-.38,0A1.88,1.88,0,0,0,32,8.4,2,2,0,0,0,31.72,8.68Z"/>
      <path class="a" d="M16.35,8.1a2.17,2.17,0,0,0-.49.74,2.23,2.23,0,0,0-.18.9A2.3,2.3,0,0,0,18,12.06a1.88,1.88,0,0,0,.47-.05,2.32,2.32,0,0,0,1.85-2.27,2.41,2.41,0,0,0-.18-.9,2.36,2.36,0,0,0-.5-.74,2.28,2.28,0,0,0-1.17-.63,1.88,1.88,0,0,0-.47,0,2.32,2.32,0,0,0-1.3.39A2.45,2.45,0,0,0,16.35,8.1Z"/>
      <path class="a" d="M63,8.85a1.18,1.18,0,0,0-.27.4,1.16,1.16,0,0,0-.1.49,1.27,1.27,0,0,0,.55,1,1.2,1.2,0,0,0,.7.21,1.1,1.1,0,0,0,.26,0,1.26,1.26,0,0,0,1-1.23,1.26,1.26,0,0,0-.37-.89,1.26,1.26,0,0,0-.63-.34,1.1,1.1,0,0,0-.26,0,1.2,1.2,0,0,0-.7.21Z"/>
      <path class="a" d="M39.36,9.08a1.59,1.59,0,0,0-.14.66,1.71,1.71,0,0,0,3.42,0,1.59,1.59,0,0,0-.14-.66,1.69,1.69,0,0,0-3.14,0Z"/>
      <path class="a" d="M54.94,9.2a1.41,1.41,0,0,0-.11.54,1.39,1.39,0,0,0,2.78,0,1.41,1.41,0,0,0-.11-.54,1.23,1.23,0,0,0-.3-.44,1.38,1.38,0,0,0-2,0A1.23,1.23,0,0,0,54.94,9.2Z"/>
      <path class="a" d="M47.3,8.88a.94.94,0,0,0-.14.26,1.54,1.54,0,0,0-.13.6,1.49,1.49,0,0,0,.27.86,1.52,1.52,0,0,0,1.28.68,1.63,1.63,0,0,0,.31,0,1.46,1.46,0,0,0,.77-.42,1.37,1.37,0,0,0,.19-.23,1.5,1.5,0,0,0,.23-.55,1.22,1.22,0,0,0,0-.62A1.4,1.4,0,0,0,50,9.14a.94.94,0,0,0-.14-.26,1.37,1.37,0,0,0-.19-.23,1.46,1.46,0,0,0-.77-.42,1.63,1.63,0,0,0-.31,0,1.51,1.51,0,0,0-1.09.45A1.37,1.37,0,0,0,47.3,8.88Z"/>
      <path class="a" d="M93.75,9.27l-.08.15a.87.87,0,0,0,.08.79.83.83,0,0,0,.69.36h.17a.91.91,0,0,0,.42-.23l.1-.12a.81.81,0,0,0,.13-.3,1.45,1.45,0,0,0,0-.34.88.88,0,0,0-.05-.15,1.09,1.09,0,0,0-.08-.15L95,9.15a.91.91,0,0,0-.42-.23h-.17a.83.83,0,0,0-.59.24Z"/>
      <path class="a" d="M50.93,13.56a1.47,1.47,0,1,0,2.93,0,1.47,1.47,0,0,0-2.93,0Z"/>
      <path class="a" d="M43.13,13.56a1.62,1.62,0,1,0,1.62-1.62A1.62,1.62,0,0,0,43.13,13.56Z"/>
      <path class="a" d="M27.47,13.56a2,2,0,1,0,2-2A2,2,0,0,0,27.47,13.56Z"/>
      <path class="a" d="M58.72,13.56A1.32,1.32,0,1,0,60,12.24,1.32,1.32,0,0,0,58.72,13.56Z"/>
      <path class="a" d="M82,13.56a1,1,0,1,0,1-1A1,1,0,0,0,82,13.56Z"/>
      <path class="a" d="M74.25,13.56a1.08,1.08,0,1,0,1.08-1.07A1.08,1.08,0,0,0,74.25,13.56Z"/>
      <path class="a" d="M35.31,44.14a1.8,1.8,0,1,0,1.8-1.8A1.81,1.81,0,0,0,35.31,44.14Z"/>
      <path class="a" d="M35.31,13.56a1.8,1.8,0,1,0,1.8-1.79A1.8,1.8,0,0,0,35.31,13.56Z"/>
      <path class="a" d="M11.73,13.56a2.45,2.45,0,1,0,2.44-2.44A2.45,2.45,0,0,0,11.73,13.56Z"/>
      <path class="a" d="M19.61,13.56a2.21,2.21,0,1,0,2.21-2.2A2.21,2.21,0,0,0,19.61,13.56Z"/>
      <path class="a" d="M43.13,44.14a1.62,1.62,0,1,0,1.62-1.62A1.63,1.63,0,0,0,43.13,44.14Z"/>
      <path class="a" d="M112.91,44.14a.65.65,0,1,0,.64-.65A.64.64,0,0,0,112.91,44.14Z"/>
      <path class="a" d="M120.62,44.14a.58.58,0,1,0,.58-.58A.58.58,0,0,0,120.62,44.14Z"/>
      <path class="a" d="M82,44.14a1,1,0,1,0,1-1A1,1,0,0,0,82,44.14Z"/>
      <path class="a" d="M66.49,44.14A1.2,1.2,0,1,0,67.69,43,1.19,1.19,0,0,0,66.49,44.14Z"/>
      <path class="a" d="M58.72,44.14A1.32,1.32,0,1,0,60,42.82,1.32,1.32,0,0,0,58.72,44.14Z"/>
      <path class="a" d="M50.93,44.14a1.47,1.47,0,1,0,1.47-1.46A1.46,1.46,0,0,0,50.93,44.14Z"/>
      <path class="a" d="M74.25,44.14a1.08,1.08,0,1,0,1.08-1.08A1.08,1.08,0,0,0,74.25,44.14Z"/>
      <path class="a" d="M97.47,44.14a.79.79,0,1,0,.79-.79A.79.79,0,0,0,97.47,44.14Z"/>
      <path class="a" d="M105.19,44.14a.72.72,0,0,0,1.43,0,.72.72,0,0,0-1.43,0Z"/>
      <path class="a" d="M89.74,44.14a.88.88,0,1,0,.88-.88A.88.88,0,0,0,89.74,44.14Z"/>
      <path class="a" d="M70.38,48a1.13,1.13,0,1,0,2.26,0,1.13,1.13,0,1,0-2.26,0Z"/>
      <path class="a" d="M101.33,48a.76.76,0,1,0,.76-.75A.76.76,0,0,0,101.33,48Z"/>
      <path class="a" d="M85.87,48A.93.93,0,1,0,86.8,47,.93.93,0,0,0,85.87,48Z"/>
      <path class="a" d="M78.31,47.39A1,1,0,0,0,79.15,49l.21,0a1,1,0,0,0,.52-.28,1,1,0,0,0,.12-.15,1,1,0,0,0,.15-.36,1.11,1.11,0,0,0,0-.42,1,1,0,0,0-.15-.36,1,1,0,0,0-.12-.15,1,1,0,0,0-.52-.28.75.75,0,0,0-.21,0A1,1,0,0,0,78.31,47.39Z"/>
      <path class="a" d="M93.75,47.49a.86.86,0,0,0,0,.94.83.83,0,0,0,.69.36h.17a.91.91,0,0,0,.42-.23l.1-.12a.81.81,0,0,0,.13-.3,1.45,1.45,0,0,0,0-.34.81.81,0,0,0-.13-.3l-.1-.12a.91.91,0,0,0-.42-.23h-.17A.83.83,0,0,0,93.75,47.49Z"/>
      <path class="a" d="M109.05,48a.68.68,0,0,0,.3.56.64.64,0,0,0,.38.12l.14,0a.67.67,0,0,0,0-1.32l-.14,0a.64.64,0,0,0-.38.12A.68.68,0,0,0,109.05,48Z"/>
      <path class="a" d="M124.56,47.65a.58.58,0,0,0,0,.62.55.55,0,0,0,.46.24h.11a.48.48,0,0,0,.28-.15l.07-.08a.5.5,0,0,0,.08-.2.61.61,0,0,0,0-.22.5.5,0,0,0-.08-.2l-.07-.08a.48.48,0,0,0-.28-.15H125A.55.55,0,0,0,124.56,47.65Z"/>
      <path class="a" d="M124.56,1.79a.54.54,0,0,0-.09.31.51.51,0,0,0,.09.3.56.56,0,0,0,.46.25h.11a.63.63,0,0,0,.28-.15l.07-.09a.41.41,0,0,0,.08-.19.45.45,0,0,0,0-.11.49.49,0,0,0,0-.12.46.46,0,0,0-.08-.19l-.07-.08a.56.56,0,0,0-.28-.16H125A.56.56,0,0,0,124.56,1.79Z"/>
      <path class="a" d="M116.76,48a.62.62,0,1,0,.62-.61A.61.61,0,0,0,116.76,48Z"/>
      <path class="a" d="M31.72,46.9a1.87,1.87,0,0,0,0,2.12,1.89,1.89,0,0,0,1.57.83,1.64,1.64,0,0,0,.38,0,1.84,1.84,0,0,0,.95-.51,1.49,1.49,0,0,0,.23-.28,1.8,1.8,0,0,0,.29-.68,1.82,1.82,0,0,0,0-.76,1.8,1.8,0,0,0-.29-.68,1.49,1.49,0,0,0-.23-.28,1.84,1.84,0,0,0-.95-.51,1.64,1.64,0,0,0-.38,0A1.89,1.89,0,0,0,31.72,46.9Z"/>
      <path class="a" d="M62.61,48a1.27,1.27,0,0,0,.55,1,1.2,1.2,0,0,0,.7.21,1.1,1.1,0,0,0,.26,0,1.26,1.26,0,0,0,0-2.46,1.1,1.1,0,0,0-.26,0,1.2,1.2,0,0,0-.7.21A1.27,1.27,0,0,0,62.61,48Z"/>
      <path class="a" d="M23.55,48a2.1,2.1,0,1,0,2.09-2.1A2.09,2.09,0,0,0,23.55,48Z"/>
      <path class="a" d="M39.22,48a1.71,1.71,0,1,0,1.71-1.71A1.72,1.72,0,0,0,39.22,48Z"/>
      <path class="a" d="M54.83,48a1.39,1.39,0,1,0,1.39-1.39A1.39,1.39,0,0,0,54.83,48Z"/>
      <path class="a" d="M47.3,47.1a1.5,1.5,0,0,0,0,1.72,1.52,1.52,0,0,0,1.28.68,1.63,1.63,0,0,0,.31,0,1.46,1.46,0,0,0,.77-.42,1.37,1.37,0,0,0,.19-.23,1.5,1.5,0,0,0,.23-.55,1.22,1.22,0,0,0,0-.62,1.5,1.5,0,0,0-.23-.55,1.37,1.37,0,0,0-.19-.23,1.46,1.46,0,0,0-.77-.42,1.63,1.63,0,0,0-.31,0A1.52,1.52,0,0,0,47.3,47.1Z"/>
    </g>
    <g>
      <path class="b" d="M147.3,22c1.85.74,3.07,1.75,3.07,4.77v9.43c0,3-1.06,4.61-3.07,4.77h-13c-2-.16-3.08-1.75-3.08-4.77h2.33c0,2.12.53,3.45,2.81,3.45h8.85c2.28,0,2.81-1.33,2.81-3.45v-11c0-2.28-2.65-1.53-13.72-6.67-1.81-.85-3.08-1.75-3.08-4.77V7.7c0-3,1.06-4.61,3.08-4.77h13c2,.16,3.07,1.75,3.07,4.77h-2.86c0-2.12-.53-3.44-2.81-3.44h-8.32c-2.28,0-2.81,1.32-2.81,3.44V15c0,2.12.69,2.6,2.81,3.45Z"/>
      <path class="b" d="M165.21,41h-2.38l-8.22-21.41h2.07l7.53,19,4.18-14.47L167,19.57h2.07l7.53,19,5.35-19h1.85L177.61,41h-2.38l-5.67-14.25Z"/>
      <path class="b" d="M189.43,9.87A2.42,2.42,0,1,1,187,12.26,2.38,2.38,0,0,1,189.43,9.87Zm1.06,31.06h-2.33V19.68h2.33Z"/>
      <path class="b" d="M196.06,19.57h2.33v.9l10.28-1.06c2-.26,3.07,1.75,3.07,4.77v12c0,3-1.06,5-3.07,4.77l-10.39-1.06.06,11.92h-2.23Zm2.33,19,8.21.53c2.28.32,2.81-.79,2.81-2.91v-12c0-2.12-.53-3.23-2.81-2.91l-8.21.53Z"/>
      <path class="b" d="M229.66,19.36c2,.16,3.07,1.75,3.07,4.77V26c0,3-1.06,4.61-3.07,4.77H219.33v5.46c0,2.12.58,3.45,2.86,3.45h5.4c2.28,0,2.81-1.33,2.81-3.45h2.33c0,3-1.06,4.61-3.07,4.77h-9.54c-2-.16-3.07-1.75-3.07-4.77V24.13c0-3,1.06-4.61,3.07-4.77Zm.74,4.77c0-2.12-.53-3.45-2.81-3.45h-5.4c-2.28,0-2.81,1.33-2.81,3.45v5.3h8.21c2.28,0,2.81-1.33,2.81-3.45Z"/>
    </g>
  </g>
</svg>
