<svg xmlns="http://www.w3.org/2000/svg" viewBox="0 0 140.67 56.07">
  <defs>
    <style>
      .a {
        fill: #98979a;
      }
    </style>
  </defs>
  <g>
    <path class="a" d="M109.9,23.76A2.24,2.24,0,1,0,107.66,26,2.24,2.24,0,0,0,109.9,23.76Z"/>
    <path class="a" d="M127.53,23.76a2.74,2.74,0,1,0-2.74,2.73A2.74,2.74,0,0,0,127.53,23.76Z"/>
    <path class="a" d="M118.7,23.76a2.47,2.47,0,1,0-2.47,2.47A2.48,2.48,0,0,0,118.7,23.76Z"/>
    <path class="a" d="M136.39,23.76a3,3,0,1,0-3,3A3,3,0,0,0,136.39,23.76Z"/>
    <path class="a" d="M83.61,23.76A1.64,1.64,0,1,0,82,25.39,1.64,1.64,0,0,0,83.61,23.76Z"/>
    <path class="a" d="M101.11,23.76a2,2,0,1,0-2,2A2,2,0,0,0,101.11,23.76Z"/>
    <path class="a" d="M74.89,23.75a1.48,1.48,0,1,0-1.48,1.48A1.48,1.48,0,0,0,74.89,23.75Z"/>
    <path class="a" d="M92.35,23.76a1.82,1.82,0,1,0-1.81,1.81A1.81,1.81,0,0,0,92.35,23.76Z"/>
    <path class="a" d="M114.29,19.47A2.35,2.35,0,1,0,112,21.82,2.34,2.34,0,0,0,114.29,19.47Z"/>
    <path class="a" d="M66.18,23.75a1.34,1.34,0,1,0-1.33,1.34A1.34,1.34,0,0,0,66.18,23.75Z"/>
    <path class="a" d="M132,19.47a2.89,2.89,0,1,0-2.89,2.89A2.88,2.88,0,0,0,132,19.47Z"/>
    <path class="a" d="M123.11,19.47A2.59,2.59,0,0,0,122,17.32a2.62,2.62,0,0,0-1.46-.45,2.24,2.24,0,0,0-.52.06A2.6,2.6,0,0,0,120,22a2.24,2.24,0,0,0,.52.06,2.6,2.6,0,0,0,2.6-2.61Z"/>
    <path class="a" d="M31.48,23.75a.89.89,0,1,0-.89.89A.89.89,0,0,0,31.48,23.75Z"/>
    <path class="a" d="M40.14,23.75a1,1,0,1,0-1,1A1,1,0,0,0,40.14,23.75Z"/>
    <path class="a" d="M48.81,23.75a1.09,1.09,0,1,0-1.09,1.09A1.08,1.08,0,0,0,48.81,23.75Z"/>
    <path class="a" d="M22.83,23.75a.8.8,0,1,0-.8.8A.8.8,0,0,0,22.83,23.75Z"/>
    <path class="a" d="M57.49,23.75A1.21,1.21,0,1,0,56.28,25,1.21,1.21,0,0,0,57.49,23.75Z"/>
    <path class="a" d="M31.48,32.32a.89.89,0,1,0-1.77,0,.89.89,0,0,0,1.77,0Z"/>
    <path class="a" d="M22.83,32.32a.8.8,0,1,0-.8.8A.8.8,0,0,0,22.83,32.32Z"/>
    <path class="a" d="M40.14,32.32a1,1,0,1,0-1,1A1,1,0,0,0,40.14,32.32Z"/>
    <path class="a" d="M48.81,32.32a1.09,1.09,0,1,0-1.09,1.09A1.09,1.09,0,0,0,48.81,32.32Z"/>
    <path class="a" d="M101.11,32.32a2,2,0,1,0-2,2A2,2,0,0,0,101.11,32.32Z"/>
    <path class="a" d="M57.49,32.32a1.21,1.21,0,1,0-1.21,1.2A1.21,1.21,0,0,0,57.49,32.32Z"/>
    <path class="a" d="M92.35,32.32a1.82,1.82,0,1,0-1.81,1.82A1.81,1.81,0,0,0,92.35,32.32Z"/>
    <path class="a" d="M118.7,32.32a2.47,2.47,0,1,0-2.47,2.47A2.47,2.47,0,0,0,118.7,32.32Z"/>
    <path class="a" d="M109.9,32.32a2.24,2.24,0,1,0-2.24,2.23A2.23,2.23,0,0,0,109.9,32.32Z"/>
    <path class="a" d="M66.18,32.32a1.34,1.34,0,1,0-1.33,1.33A1.34,1.34,0,0,0,66.18,32.32Z"/>
    <path class="a" d="M83.61,32.32A1.64,1.64,0,1,0,82,34,1.63,1.63,0,0,0,83.61,32.32Z"/>
    <path class="a" d="M74.89,32.32a1.48,1.48,0,1,0-1.48,1.48A1.48,1.48,0,0,0,74.89,32.32Z"/>
    <path class="a" d="M79.13,28.64a1.5,1.5,0,0,0,.12-.6,1.56,1.56,0,1,0-3.12,0,1.5,1.5,0,0,0,.13.6,1.56,1.56,0,0,0,2.53.5A1.58,1.58,0,0,0,79.13,28.64Z"/>
    <path class="a" d="M61.73,28.53a1.16,1.16,0,0,0,.1-.49,1.27,1.27,0,1,0-2.53,0,1.16,1.16,0,0,0,.1.49,1.09,1.09,0,0,0,.27.4,1.26,1.26,0,0,0,.89.38,1.28,1.28,0,0,0,.9-.38A1.09,1.09,0,0,0,61.73,28.53Z"/>
    <path class="a" d="M70.12,29a1.42,1.42,0,0,0,.41-1,1.41,1.41,0,0,0-1.4-1.41,1.27,1.27,0,0,0-.28,0A1.41,1.41,0,0,0,67.72,28a1.37,1.37,0,0,0,.11.54,1.54,1.54,0,0,0,.3.45,1.4,1.4,0,0,0,.72.38,1.27,1.27,0,0,0,.28,0,1.38,1.38,0,0,0,.78-.24A1.2,1.2,0,0,0,70.12,29Z"/>
    <path class="a" d="M87.69,29a2.69,2.69,0,0,0,.16-.29A1.9,1.9,0,0,0,88,28a1.78,1.78,0,0,0-.29-1,1.73,1.73,0,0,0-1.43-.76,1.34,1.34,0,0,0-.35,0,1.65,1.65,0,0,0-.87.47,1.79,1.79,0,0,0-.22.25,1.69,1.69,0,0,0-.25.62,1.34,1.34,0,0,0,0,.35,1.94,1.94,0,0,0,.14.67,1.59,1.59,0,0,0,.15.29,2.75,2.75,0,0,0,.22.26,1.72,1.72,0,0,0,.87.47,2,2,0,0,0,.35,0,1.75,1.75,0,0,0,1.22-.5Z"/>
    <path class="a" d="M35.65,28.56a.8.8,0,0,0,.08-.16.86.86,0,0,0,.08-.36.89.89,0,0,0-.16-.52.94.94,0,0,0-.78-.42l-.18,0a.94.94,0,0,0-.48.26,1,1,0,0,0-.25.47.87.87,0,0,0,0,.37,1,1,0,0,0,0,.18l.09.16a1.34,1.34,0,0,0,.11.14,1,1,0,0,0,.48.25l.18,0a1,1,0,0,0,.66-.27Z"/>
    <path class="a" d="M27.09,28.36a.87.87,0,0,0,.06-.32.84.84,0,1,0-1.68,0,.87.87,0,0,0,.06.32,1.06,1.06,0,0,0,.18.27.88.88,0,0,0,.6.25.84.84,0,0,0,.59-.25A.88.88,0,0,0,27.09,28.36Z"/>
    <path class="a" d="M96.58,28.78a1.85,1.85,0,0,0,.15-.74,1.91,1.91,0,1,0-3.82,0,1.85,1.85,0,0,0,.15.74,1.69,1.69,0,0,0,.41.61,1.91,1.91,0,0,0,2.7,0A2,2,0,0,0,96.58,28.78Z"/>
    <path class="a" d="M44.39,28.44a1.06,1.06,0,0,0,.08-.4,1,1,0,1,0-2.07,0,1.06,1.06,0,0,0,.08.4,1.23,1.23,0,0,0,.23.33,1,1,0,0,0,.73.3,1.07,1.07,0,0,0,.73-.3A1.19,1.19,0,0,0,44.39,28.44Z"/>
    <path class="a" d="M53,28.68a1.13,1.13,0,0,0,.2-.64,1.16,1.16,0,0,0-.2-.64,1.14,1.14,0,0,0-1-.51.85.85,0,0,0-.23,0,1.1,1.1,0,0,0-.58.31,1.13,1.13,0,0,0-.31.58.86.86,0,0,0,0,.23.9.9,0,0,0,0,.23.86.86,0,0,0,.07.21.75.75,0,0,0,.1.2,2.09,2.09,0,0,0,.14.17,1.26,1.26,0,0,0,.58.31l.23,0a1.17,1.17,0,0,0,.81-.33A2.09,2.09,0,0,0,53,28.68Z"/>
    <path class="a" d="M140.43,29.22a3,3,0,0,0,.24-1.18,3,3,0,1,0-6.07,0,3.15,3.15,0,0,0,.24,1.18,3.19,3.19,0,0,0,.65,1,3,3,0,0,0,4.29,0A2.86,2.86,0,0,0,140.43,29.22Z"/>
    <path class="a" d="M105.14,29.22a2.08,2.08,0,0,0,.2-.36,2.22,2.22,0,0,0,.16-.82,2.11,2.11,0,0,0-2.12-2.12,1.93,1.93,0,0,0-.42,0,2.08,2.08,0,0,0-1.07.58,1.53,1.53,0,0,0-.26.31,1.9,1.9,0,0,0-.32.76,2,2,0,0,0,0,.43,1.93,1.93,0,0,0,0,.42,2.64,2.64,0,0,0,.12.4,1.58,1.58,0,0,0,.2.36,1.53,1.53,0,0,0,.26.31,2,2,0,0,0,1.07.58,1.93,1.93,0,0,0,.42.05,2.08,2.08,0,0,0,1.5-.63A1.94,1.94,0,0,0,105.14,29.22Z"/>
    <path class="a" d="M131.73,29.16A2.84,2.84,0,0,0,132,28a2.89,2.89,0,1,0-5.77,0,2.84,2.84,0,0,0,.23,1.12,2.68,2.68,0,0,0,.62.91,2.86,2.86,0,0,0,4.07,0A3,3,0,0,0,131.73,29.16Z"/>
    <path class="a" d="M114.11,29a2.31,2.31,0,0,0,.18-.91,2.35,2.35,0,1,0-4.69,0,2.31,2.31,0,0,0,.18.91,2.38,2.38,0,0,0,.51.75,2.37,2.37,0,0,0,3.32,0A2.52,2.52,0,0,0,114.11,29Z"/>
    <path class="a" d="M127.53,32.32a2.74,2.74,0,1,0-2.74,2.74A2.74,2.74,0,0,0,127.53,32.32Z"/>
    <path class="a" d="M122.35,29.88a2.61,2.61,0,0,0-.38-4,2.62,2.62,0,0,0-1.46-.44,2.24,2.24,0,0,0-.52,0,2.61,2.61,0,0,0-1.88,3.56,3,3,0,0,0,.56.83,2.66,2.66,0,0,0,1.32.71,3,3,0,0,0,.52.05,2.62,2.62,0,0,0,1.46-.45A3.68,3.68,0,0,0,122.35,29.88Z"/>
    <path class="a" d="M105.14,12.09a2.18,2.18,0,0,0,.32-.75,2,2,0,0,0,0-.43,2.06,2.06,0,0,0-.36-1.18,2.1,2.1,0,0,0-1.76-.94,2.85,2.85,0,0,0-.42,0,2.08,2.08,0,0,0-1.07.58,1.59,1.59,0,0,0-.26.32,1.86,1.86,0,0,0-.32.75,1.87,1.87,0,0,0,0,.86,1.86,1.86,0,0,0,.32.75,1.59,1.59,0,0,0,.26.32A2.08,2.08,0,0,0,103,13a2.85,2.85,0,0,0,.42,0A2.1,2.1,0,0,0,105.14,12.09Z"/>
    <path class="a" d="M114.25,11.38a2.42,2.42,0,0,0,0-.47,2.35,2.35,0,1,0-4.69,0,1.83,1.83,0,0,0,.05.47,2.35,2.35,0,0,0,4.6,0Z"/>
    <path class="a" d="M96.69,11.3a1.72,1.72,0,0,0,0-.39,1.91,1.91,0,0,0-3.82,0,1.72,1.72,0,0,0,0,.39,1.91,1.91,0,0,0,3.74,0Z"/>
    <path class="a" d="M123.06,11.43a3,3,0,0,0,0-.52,2.58,2.58,0,0,0-2.6-2.6,3,3,0,0,0-.52,0,2.6,2.6,0,0,0-2.08,2.55,3,3,0,0,0,0,.52,2.61,2.61,0,0,0,2,2,3,3,0,0,0,.52,0,2.58,2.58,0,0,0,2.55-2.08Z"/>
    <path class="a" d="M87.69,11.87a1.85,1.85,0,0,0,.26-.61,2,2,0,0,0,0-.35,1.73,1.73,0,0,0-1.72-1.73,2,2,0,0,0-.35,0,1.72,1.72,0,0,0-.87.47,1.88,1.88,0,0,0-.22.26,1.64,1.64,0,0,0-.25.61,1.55,1.55,0,0,0,0,.7,1.64,1.64,0,0,0,.25.61,1.88,1.88,0,0,0,.22.26,1.72,1.72,0,0,0,.87.47,2,2,0,0,0,.35,0A1.74,1.74,0,0,0,87.69,11.87Z"/>
    <path class="a" d="M61.81,11.17a2.28,2.28,0,0,0,0-.26,1.27,1.27,0,1,0-2.53,0,1.14,1.14,0,0,0,0,.26,1.27,1.27,0,0,0,2.49,0Z"/>
    <path class="a" d="M70.51,11.19a2.46,2.46,0,0,0,0-.28,1.4,1.4,0,0,0-.62-1.17,1.38,1.38,0,0,0-.78-.24,1.27,1.27,0,0,0-.28,0,1.41,1.41,0,0,0-1.13,1.38,1.27,1.27,0,0,0,0,.28,1.43,1.43,0,0,0,1.1,1.1,1.27,1.27,0,0,0,.28,0,1.38,1.38,0,0,0,.78-.24A1.46,1.46,0,0,0,70.51,11.19Z"/>
    <path class="a" d="M79.22,11.22a1.56,1.56,0,1,0-3.09-.31,1.06,1.06,0,0,0,0,.31,1.55,1.55,0,0,0,1.52,1.25A1.57,1.57,0,0,0,79.22,11.22Z"/>
    <path class="a" d="M53,11.55a1.15,1.15,0,0,0,.17-.41.85.85,0,0,0,0-.23A1.15,1.15,0,0,0,52,9.77a.86.86,0,0,0-.23,0,1.17,1.17,0,0,0-.58.31,1.13,1.13,0,0,0-.31.58,1.33,1.33,0,0,0,0,.46,1.13,1.13,0,0,0,.31.58,1.1,1.1,0,0,0,.58.31.85.85,0,0,0,.23,0A1.16,1.16,0,0,0,53,11.55Z"/>
    <path class="a" d="M109.9,6.63a2.24,2.24,0,1,0-2.24,2.23A2.23,2.23,0,0,0,109.9,6.63Z"/>
    <path class="a" d="M118.7,6.63a2.47,2.47,0,1,0-2.47,2.47A2.47,2.47,0,0,0,118.7,6.63Z"/>
    <path class="a" d="M18.49,11.06a.76.76,0,0,0-.74-.91l-.16,0a.79.79,0,0,0-.59.89.76.76,0,0,0,.59.59l.16,0a.76.76,0,0,0,.74-.61Z"/>
    <path class="a" d="M27.13,11.08a.5.5,0,0,0,0-.17.84.84,0,0,0-1.68,0,1,1,0,0,0,0,.17.85.85,0,0,0,.83.67A.83.83,0,0,0,27.13,11.08Z"/>
    <path class="a" d="M9.85,11.05a.68.68,0,0,0,0-.14.69.69,0,0,0-.69-.69.68.68,0,0,0-.68.69.66.66,0,0,0,0,.14.68.68,0,0,0,1.34,0Z"/>
    <path class="a" d="M35.65,11.43a.93.93,0,0,0,.16-.52.93.93,0,0,0-.94-.93.55.55,0,0,0-.18,0,.86.86,0,0,0-.48.25.76.76,0,0,0-.11.14.81.81,0,0,0-.14.33.91.91,0,0,0,0,.38.81.81,0,0,0,.14.33.76.76,0,0,0,.11.14.86.86,0,0,0,.48.25.55.55,0,0,0,.18,0A.93.93,0,0,0,35.65,11.43Z"/>
    <path class="a" d="M44.45,11.12a1.49,1.49,0,0,0,0-.21,1,1,0,0,0-2.07,0,1.49,1.49,0,0,0,0,.21,1,1,0,0,0,1,.82A1,1,0,0,0,44.45,11.12Z"/>
    <path class="a" d="M105.14,20.66a2.11,2.11,0,0,0,.36-1.19,2.08,2.08,0,0,0-.36-1.18,2.11,2.11,0,0,0-1.76-.93,1.93,1.93,0,0,0-.42,0,2,2,0,0,0-1.07.58,1.53,1.53,0,0,0-.26.31,1.84,1.84,0,0,0-.32.76,1.93,1.93,0,0,0,0,.42,2,2,0,0,0,0,.43,1.9,1.9,0,0,0,.32.76,1.53,1.53,0,0,0,.26.31,2.08,2.08,0,0,0,1.07.58,1.93,1.93,0,0,0,.42,0A2.11,2.11,0,0,0,105.14,20.66Z"/>
    <path class="a" d="M18.51,19.47a.77.77,0,0,0-.76-.76l-.16,0a.76.76,0,0,0,0,1.49h.16a.7.7,0,0,0,.42-.13A.75.75,0,0,0,18.51,19.47Z"/>
    <path class="a" d="M27.15,19.47a.84.84,0,1,0-.84.85A.85.85,0,0,0,27.15,19.47Z"/>
    <path class="a" d="M70.53,19.47a1.41,1.41,0,0,0-1.4-1.4,1.27,1.27,0,0,0-.28,0,1.4,1.4,0,0,0,0,2.75,1.27,1.27,0,0,0,.28,0,1.41,1.41,0,0,0,1.4-1.41Z"/>
    <path class="a" d="M87.69,20.44a1.78,1.78,0,0,0,.29-1,1.75,1.75,0,0,0-.29-1,1.73,1.73,0,0,0-1.43-.76,2,2,0,0,0-.35,0,1.72,1.72,0,0,0-.87.47,2.75,2.75,0,0,0-.22.26,1.62,1.62,0,0,0-.25.62,1.27,1.27,0,0,0,0,.34,1.34,1.34,0,0,0,0,.35,1.69,1.69,0,0,0,.25.62,1.79,1.79,0,0,0,.22.25,1.59,1.59,0,0,0,.87.47,1.34,1.34,0,0,0,.35,0A1.73,1.73,0,0,0,87.69,20.44Z"/>
    <path class="a" d="M79.25,19.47A1.56,1.56,0,1,0,77.69,21,1.55,1.55,0,0,0,79.25,19.47Z"/>
    <path class="a" d="M96.73,19.47a1.91,1.91,0,1,0-1.91,1.92A1.91,1.91,0,0,0,96.73,19.47Z"/>
    <path class="a" d="M53,20.11a1.16,1.16,0,0,0,.2-.64,1.21,1.21,0,0,0-.2-.64,1.15,1.15,0,0,0-1-.5l-.23,0a1.26,1.26,0,0,0-.58.31,2.09,2.09,0,0,0-.14.17,1.23,1.23,0,0,0-.17.41.9.9,0,0,0,0,.23.86.86,0,0,0,0,.23,1.13,1.13,0,0,0,.31.58,1.19,1.19,0,0,0,.58.32l.23,0A1.14,1.14,0,0,0,53,20.11Z"/>
    <path class="a" d="M44.47,19.47a1,1,0,0,0-2.07,0,1,1,0,1,0,2.07,0Z"/>
    <path class="a" d="M61.83,19.47a1.27,1.27,0,1,0-1.27,1.27A1.26,1.26,0,0,0,61.83,19.47Z"/>
    <path class="a" d="M35.65,20a.89.89,0,0,0,.16-.52.93.93,0,0,0-.94-.93l-.18,0a1,1,0,0,0-.48.25,1.34,1.34,0,0,0-.11.14.79.79,0,0,0-.14.34.87.87,0,0,0,0,.37,1,1,0,0,0,.25.47.94.94,0,0,0,.48.26l.18,0A.94.94,0,0,0,35.65,20Z"/>
    <path class="a" d="M22.83,15.19a.8.8,0,1,0-.8.8A.8.8,0,0,0,22.83,15.19Z"/>
    <path class="a" d="M74.89,15.19a1.48,1.48,0,1,0-1.48,1.48A1.48,1.48,0,0,0,74.89,15.19Z"/>
    <path class="a" d="M57.49,15.19a1.21,1.21,0,1,0-1.21,1.21A1.21,1.21,0,0,0,57.49,15.19Z"/>
    <path class="a" d="M40.14,15.19a1,1,0,1,0-1,1A1,1,0,0,0,40.14,15.19Z"/>
    <path class="a" d="M66.18,15.19a1.34,1.34,0,1,0-1.33,1.34A1.33,1.33,0,0,0,66.18,15.19Z"/>
    <path class="a" d="M48.81,15.19a1.09,1.09,0,1,0-1.09,1.09A1.09,1.09,0,0,0,48.81,15.19Z"/>
    <path class="a" d="M31.48,15.19a.89.89,0,1,0-.89.89A.88.88,0,0,0,31.48,15.19Z"/>
    <path class="a" d="M14.19,15.19a.73.73,0,1,0-.73.72A.73.73,0,0,0,14.19,15.19Z"/>
    <path class="a" d="M83.61,15.19A1.64,1.64,0,1,0,82,16.83,1.64,1.64,0,0,0,83.61,15.19Z"/>
    <path class="a" d="M127.53,15.19a2.74,2.74,0,1,0-2.74,2.74A2.74,2.74,0,0,0,127.53,15.19Z"/>
    <path class="a" d="M118.7,15.19a2.47,2.47,0,1,0-2.47,2.47A2.48,2.48,0,0,0,118.7,15.19Z"/>
    <path class="a" d="M92.35,15.19A1.82,1.82,0,1,0,90.54,17,1.81,1.81,0,0,0,92.35,15.19Z"/>
    <path class="a" d="M109.9,15.19a2.24,2.24,0,1,0-2.24,2.23A2.23,2.23,0,0,0,109.9,15.19Z"/>
    <path class="a" d="M101.11,15.19a2,2,0,1,0-2,2A2,2,0,0,0,101.11,15.19Z"/>
    <path class="a" d="M66.18,40.88a1.34,1.34,0,1,0-1.33,1.34A1.33,1.33,0,0,0,66.18,40.88Z"/>
    <path class="a" d="M109.9,49.44a2.24,2.24,0,1,0-2.24,2.24A2.23,2.23,0,0,0,109.9,49.44Z"/>
    <path class="a" d="M118.7,49.44a2.47,2.47,0,1,0-2.47,2.48A2.48,2.48,0,0,0,118.7,49.44Z"/>
    <path class="a" d="M18.51,53.73a.75.75,0,0,0-.34-.63.77.77,0,0,0-.42-.13h-.16a.76.76,0,0,0,0,1.49l.16,0a.77.77,0,0,0,.76-.76Z"/>
    <path class="a" d="M9.87,53.73A.69.69,0,0,0,9.18,53a.68.68,0,0,0-.68.69.67.67,0,0,0,.68.68A.68.68,0,0,0,9.87,53.73Z"/>
    <path class="a" d="M101.11,49.44a2,2,0,1,0-2,2A2,2,0,0,0,101.11,49.44Z"/>
    <path class="a" d="M35.65,54.25a.94.94,0,0,0,.16-.52.89.89,0,0,0-.16-.52.94.94,0,0,0-.78-.42l-.18,0a.94.94,0,0,0-.48.26,1,1,0,0,0-.25.47.87.87,0,0,0,0,.37.79.79,0,0,0,.14.34,1.34,1.34,0,0,0,.11.14,1,1,0,0,0,.48.25l.18,0A.93.93,0,0,0,35.65,54.25Z"/>
    <path class="a" d="M27.15,53.73a.84.84,0,1,0-.84.84A.84.84,0,0,0,27.15,53.73Z"/>
    <path class="a" d="M22.83,49.45a.8.8,0,1,0-.8.8A.8.8,0,0,0,22.83,49.45Z"/>
    <path class="a" d="M14.19,49.45a.73.73,0,1,0-.73.72A.73.73,0,0,0,14.19,49.45Z"/>
    <path class="a" d="M92.35,49.44a1.82,1.82,0,1,0-1.81,1.82A1.81,1.81,0,0,0,92.35,49.44Z"/>
    <path class="a" d="M5.55,49.45a.65.65,0,1,0-.65.65A.66.66,0,0,0,5.55,49.45Z"/>
    <path class="a" d="M74.89,49.45a1.48,1.48,0,1,0-1.48,1.48A1.48,1.48,0,0,0,74.89,49.45Z"/>
    <path class="a" d="M66.18,49.45a1.34,1.34,0,1,0-1.33,1.33A1.34,1.34,0,0,0,66.18,49.45Z"/>
    <path class="a" d="M57.49,49.45a1.21,1.21,0,1,0-1.21,1.2A1.21,1.21,0,0,0,57.49,49.45Z"/>
    <path class="a" d="M44.47,53.73a1,1,0,1,0-1,1A1,1,0,0,0,44.47,53.73Z"/>
    <path class="a" d="M31.48,49.45a.89.89,0,1,0-1.77,0,.89.89,0,0,0,1.77,0Z"/>
    <path class="a" d="M40.14,49.45a1,1,0,1,0-1,1A1,1,0,0,0,40.14,49.45Z"/>
    <path class="a" d="M48.81,49.45a1.09,1.09,0,1,0-1.09,1.08A1.09,1.09,0,0,0,48.81,49.45Z"/>
    <path class="a" d="M83.61,49.45A1.64,1.64,0,1,0,82,51.09,1.63,1.63,0,0,0,83.61,49.45Z"/>
    <path class="a" d="M105.14,54.91a2.12,2.12,0,0,0-1.76-3.3,1.93,1.93,0,0,0-.42,0,2.08,2.08,0,0,0-1.07.58,1.53,1.53,0,0,0-.26.31,1.9,1.9,0,0,0-.32.76,2,2,0,0,0,0,.43,1.93,1.93,0,0,0,0,.42,1.84,1.84,0,0,0,.32.76,1.53,1.53,0,0,0,.26.31,2,2,0,0,0,1.07.58,1.93,1.93,0,0,0,.42.05A2.12,2.12,0,0,0,105.14,54.91Z"/>
    <path class="a" d="M114.29,53.73A2.35,2.35,0,1,0,112,56.07,2.35,2.35,0,0,0,114.29,53.73Z"/>
    <path class="a" d="M87.69,54.69a1.75,1.75,0,0,0,.29-1,1.78,1.78,0,0,0-.29-1A1.73,1.73,0,0,0,86.26,52a1.34,1.34,0,0,0-.35,0,1.65,1.65,0,0,0-.87.47,1.79,1.79,0,0,0-.22.25,1.69,1.69,0,0,0-.25.62,1.34,1.34,0,0,0,0,.35,1.27,1.27,0,0,0,0,.34,1.62,1.62,0,0,0,.25.62A2.75,2.75,0,0,0,85,55a1.72,1.72,0,0,0,.87.47,2,2,0,0,0,.35,0A1.73,1.73,0,0,0,87.69,54.69Z"/>
    <path class="a" d="M96.73,53.73a1.91,1.91,0,1,0-1.91,1.91A1.91,1.91,0,0,0,96.73,53.73Z"/>
    <path class="a" d="M136.39,32.32a3,3,0,1,0-3,3A3,3,0,0,0,136.39,32.32Z"/>
    <path class="a" d="M79.25,53.73a1.56,1.56,0,1,0-1.56,1.55A1.56,1.56,0,0,0,79.25,53.73Z"/>
    <path class="a" d="M70.53,53.73a1.41,1.41,0,0,0-1.4-1.41,1.27,1.27,0,0,0-.28,0,1.4,1.4,0,0,0,0,2.75,1.27,1.27,0,0,0,.28,0,1.41,1.41,0,0,0,1.4-1.4Z"/>
    <path class="a" d="M53,54.37a1.21,1.21,0,0,0,.2-.64,1.16,1.16,0,0,0-.2-.64,1.14,1.14,0,0,0-1-.51.85.85,0,0,0-.23,0,1.1,1.1,0,0,0-.58.31,1.13,1.13,0,0,0-.31.58.86.86,0,0,0,0,.23.9.9,0,0,0,0,.23,1.23,1.23,0,0,0,.17.41,2.09,2.09,0,0,0,.14.17,1.26,1.26,0,0,0,.58.31l.23,0A1.15,1.15,0,0,0,53,54.37Z"/>
    <path class="a" d="M61.83,53.73A1.27,1.27,0,1,0,60.56,55,1.27,1.27,0,0,0,61.83,53.73Z"/>
    <path class="a" d="M132,36.6a2.89,2.89,0,1,0-2.89,2.88A2.88,2.88,0,0,0,132,36.6Z"/>
    <path class="a" d="M31.48,40.88a.89.89,0,1,0-.89.89A.88.88,0,0,0,31.48,40.88Z"/>
    <path class="a" d="M96.73,36.6a1.91,1.91,0,1,0-1.91,1.91A1.9,1.9,0,0,0,96.73,36.6Z"/>
    <path class="a" d="M105.14,37.78a2.11,2.11,0,0,0,0-2.36,2.1,2.1,0,0,0-1.76-.94,2.85,2.85,0,0,0-.42,0,2.08,2.08,0,0,0-1.07.58,1.59,1.59,0,0,0-.26.32,1.86,1.86,0,0,0-.32.75,1.87,1.87,0,0,0,0,.86,1.86,1.86,0,0,0,.32.75,1.59,1.59,0,0,0,.26.32,2.08,2.08,0,0,0,1.07.58,2.85,2.85,0,0,0,.42,0A2.1,2.1,0,0,0,105.14,37.78Z"/>
    <path class="a" d="M123.11,36.6a2.58,2.58,0,0,0-2.6-2.6,3,3,0,0,0-.52,0,2.6,2.6,0,0,0,0,5.1,3,3,0,0,0,.52.05,2.58,2.58,0,0,0,2.6-2.6Z"/>
    <path class="a" d="M14.19,40.88a.73.73,0,1,0-.73.72A.73.73,0,0,0,14.19,40.88Z"/>
    <path class="a" d="M22.83,40.88a.8.8,0,1,0-.8.8A.8.8,0,0,0,22.83,40.88Z"/>
    <path class="a" d="M87.69,37.56a1.73,1.73,0,0,0-1.43-2.69,2,2,0,0,0-.35,0,1.72,1.72,0,0,0-.87.47,1.88,1.88,0,0,0-.22.26,1.64,1.64,0,0,0-.25.61,1.55,1.55,0,0,0,0,.7,1.64,1.64,0,0,0,.25.61,1.88,1.88,0,0,0,.22.26,1.72,1.72,0,0,0,.87.47,2,2,0,0,0,.35,0A1.74,1.74,0,0,0,87.69,37.56Z"/>
    <path class="a" d="M114.29,36.6A2.35,2.35,0,1,0,112,39,2.35,2.35,0,0,0,114.29,36.6Z"/>
    <path class="a" d="M61.83,36.6a1.27,1.27,0,1,0-1.27,1.27A1.27,1.27,0,0,0,61.83,36.6Z"/>
    <path class="a" d="M44.47,36.6a1,1,0,1,0-1,1A1,1,0,0,0,44.47,36.6Z"/>
    <path class="a" d="M53,37.24a1.14,1.14,0,0,0-1-1.78.86.86,0,0,0-.23,0,1.17,1.17,0,0,0-.58.31,1.13,1.13,0,0,0-.31.58,1.33,1.33,0,0,0,0,.46,1.13,1.13,0,0,0,.31.58,1.1,1.1,0,0,0,.58.31.85.85,0,0,0,.23,0A1.16,1.16,0,0,0,53,37.24Z"/>
    <path class="a" d="M70.53,36.6a1.41,1.41,0,0,0-.62-1.17,1.38,1.38,0,0,0-.78-.24,1.27,1.27,0,0,0-.28,0,1.41,1.41,0,0,0,0,2.76,1.27,1.27,0,0,0,.28,0,1.38,1.38,0,0,0,.78-.24A1.41,1.41,0,0,0,70.53,36.6Z"/>
    <path class="a" d="M18.51,36.6a.77.77,0,0,0-.76-.76l-.16,0a.76.76,0,0,0,0,1.48l.16,0a.77.77,0,0,0,.76-.76Z"/>
    <path class="a" d="M79.25,36.6a1.56,1.56,0,1,0-1.56,1.56A1.56,1.56,0,0,0,79.25,36.6Z"/>
    <path class="a" d="M27.15,36.6a.84.84,0,1,0-.84.84A.85.85,0,0,0,27.15,36.6Z"/>
    <path class="a" d="M35.65,37.12a.93.93,0,0,0-.78-1.45.55.55,0,0,0-.18,0,.86.86,0,0,0-.48.25.76.76,0,0,0-.11.14.81.81,0,0,0-.14.33.91.91,0,0,0,0,.38.81.81,0,0,0,.14.33.76.76,0,0,0,.11.14.86.86,0,0,0,.48.25.55.55,0,0,0,.18,0A.93.93,0,0,0,35.65,37.12Z"/>
    <path class="a" d="M40.14,40.88a1,1,0,1,0-1,1A1,1,0,0,0,40.14,40.88Z"/>
    <path class="a" d="M44.39,45.57a1.11,1.11,0,0,0,.08-.41,1,1,0,0,0-2.07,0,1.11,1.11,0,0,0,.08.41,1,1,0,0,0,.23.32,1,1,0,0,0,.73.31,1,1,0,0,0,.73-.31A1,1,0,0,0,44.39,45.57Z"/>
    <path class="a" d="M53,45.8a1.18,1.18,0,0,0,.11-.19,1.34,1.34,0,0,0,.09-.45,1.21,1.21,0,0,0-.2-.64,1.15,1.15,0,0,0-1-.5l-.23,0a1.26,1.26,0,0,0-.58.31,2.09,2.09,0,0,0-.14.17,1.15,1.15,0,0,0-.17.41.9.9,0,0,0,0,.23.86.86,0,0,0,0,.23.81.81,0,0,0,.07.22.69.69,0,0,0,.1.19,1.15,1.15,0,0,0,.14.17,1.19,1.19,0,0,0,.58.32l.23,0a1.13,1.13,0,0,0,.81-.34A1.15,1.15,0,0,0,53,45.8Z"/>
    <path class="a" d="M27.09,45.49a.88.88,0,0,0,.06-.33.84.84,0,0,0-1.68,0,.88.88,0,0,0,.06.33,1.27,1.27,0,0,0,.18.27.88.88,0,0,0,.6.25.84.84,0,0,0,.59-.25A1,1,0,0,0,27.09,45.49Z"/>
    <path class="a" d="M18.28,45.7a.81.81,0,0,0,.17-.24.94.94,0,0,0,.06-.3.77.77,0,0,0-.76-.76l-.16,0a.76.76,0,0,0-.6.74.73.73,0,0,0,.06.3.63.63,0,0,0,.16.24.75.75,0,0,0,.38.21h.16a.7.7,0,0,0,.42-.13A.48.48,0,0,0,18.28,45.7Z"/>
    <path class="a" d="M61.73,45.66a1.21,1.21,0,0,0,.1-.5,1.27,1.27,0,1,0-2.53,0,1.21,1.21,0,0,0,.1.5,1.09,1.09,0,0,0,.27.4,1.25,1.25,0,0,0,.89.37,1.27,1.27,0,0,0,.9-.37A1.09,1.09,0,0,0,61.73,45.66Z"/>
    <path class="a" d="M9.81,45.43a.6.6,0,0,0,.06-.27.68.68,0,0,0-.69-.68.67.67,0,0,0-.68.68.76.76,0,0,0,.05.27.86.86,0,0,0,.15.22.68.68,0,0,0,.48.2.72.72,0,0,0,.49-.2A.64.64,0,0,0,9.81,45.43Z"/>
    <path class="a" d="M114.11,46.08a2.35,2.35,0,1,0-4.33,0,2.23,2.23,0,0,0,.51.74,2.34,2.34,0,0,0,3.32,0A2.36,2.36,0,0,0,114.11,46.08Z"/>
    <path class="a" d="M105.14,46.35a3.24,3.24,0,0,0,.2-.36,2.27,2.27,0,0,0,.16-.83,2.08,2.08,0,0,0-.36-1.18,2.12,2.12,0,0,0-1.76-.94,1.93,1.93,0,0,0-.42.05,2,2,0,0,0-1.07.58,1.53,1.53,0,0,0-.26.31,1.84,1.84,0,0,0-.32.76,1.93,1.93,0,0,0,0,.42,2,2,0,0,0,0,.43,2.64,2.64,0,0,0,.12.4,2.16,2.16,0,0,0,.2.36,1.53,1.53,0,0,0,.26.31,2.08,2.08,0,0,0,1.07.58,1.93,1.93,0,0,0,.42,0,2.12,2.12,0,0,0,1.5-.62A1.94,1.94,0,0,0,105.14,46.35Z"/>
    <path class="a" d="M122.35,47a2.39,2.39,0,0,0,.56-.83,2.61,2.61,0,0,0-2.4-3.61,3,3,0,0,0-.52,0,2.61,2.61,0,0,0-1.88,3.56,2.7,2.7,0,0,0,.56.83,2.51,2.51,0,0,0,1.32.71,2.24,2.24,0,0,0,.52,0,2.62,2.62,0,0,0,1.46-.44A2.8,2.8,0,0,0,122.35,47Z"/>
    <path class="a" d="M70.12,46.16a1.37,1.37,0,0,0,.3-.45,1.42,1.42,0,0,0,.11-.55,1.41,1.41,0,0,0-1.4-1.4,1.27,1.27,0,0,0-.28,0,1.39,1.39,0,0,0-1.13,1.37,1.42,1.42,0,0,0,.11.55,1.54,1.54,0,0,0,.3.45,1.48,1.48,0,0,0,.72.38,1.27,1.27,0,0,0,.28,0,1.38,1.38,0,0,0,.78-.24A1.2,1.2,0,0,0,70.12,46.16Z"/>
    <path class="a" d="M96.58,45.91a1.86,1.86,0,0,0,.15-.75,1.91,1.91,0,0,0-3.82,0,1.86,1.86,0,0,0,.15.75,1.77,1.77,0,0,0,.41.61,1.91,1.91,0,0,0,2.7,0A2.11,2.11,0,0,0,96.58,45.91Z"/>
    <path class="a" d="M79.13,45.77a1.57,1.57,0,1,0-2.87,0,1.55,1.55,0,0,0,2.53.49A1.54,1.54,0,0,0,79.13,45.77Z"/>
    <path class="a" d="M87.69,46.13a2.11,2.11,0,0,0,.16-.3,1.82,1.82,0,0,0,.13-.67,1.75,1.75,0,0,0-.29-1,1.73,1.73,0,0,0-1.43-.76,2,2,0,0,0-.35,0,1.72,1.72,0,0,0-.87.47,2.75,2.75,0,0,0-.22.26,1.62,1.62,0,0,0-.25.62,1.27,1.27,0,0,0,0,.34,1.34,1.34,0,0,0,0,.35,1.19,1.19,0,0,0,.1.32,1.4,1.4,0,0,0,.15.3,1.79,1.79,0,0,0,.22.25,1.59,1.59,0,0,0,.87.47,1.34,1.34,0,0,0,.35,0,1.72,1.72,0,0,0,1.22-.51A2.76,2.76,0,0,0,87.69,46.13Z"/>
    <path class="a" d="M35.65,45.68a1.09,1.09,0,0,0,.08-.15.91.91,0,0,0-.08-.89.93.93,0,0,0-.78-.41l-.18,0a1,1,0,0,0-.48.25,1.34,1.34,0,0,0-.11.14A.79.79,0,0,0,34,45a.87.87,0,0,0,0,.37,1.21,1.21,0,0,0,0,.18l.09.15a.76.76,0,0,0,.11.14.94.94,0,0,0,.48.26l.18,0a.93.93,0,0,0,.66-.28A.81.81,0,0,0,35.65,45.68Z"/>
    <path class="a" d="M83.61,40.88A1.64,1.64,0,1,0,82,42.52,1.64,1.64,0,0,0,83.61,40.88Z"/>
    <path class="a" d="M92.35,40.88a1.82,1.82,0,1,0-1.81,1.82A1.82,1.82,0,0,0,92.35,40.88Z"/>
    <path class="a" d="M109.9,40.88a2.24,2.24,0,1,0-2.24,2.23A2.23,2.23,0,0,0,109.9,40.88Z"/>
    <path class="a" d="M74.89,40.88a1.48,1.48,0,1,0-1.48,1.48A1.48,1.48,0,0,0,74.89,40.88Z"/>
    <path class="a" d="M48.81,40.88A1.09,1.09,0,1,0,47.72,42,1.09,1.09,0,0,0,48.81,40.88Z"/>
    <path class="a" d="M57.49,40.88a1.21,1.21,0,1,0-1.21,1.21A1.21,1.21,0,0,0,57.49,40.88Z"/>
    <path class="a" d="M101.11,6.63a2,2,0,1,0-2,2A2,2,0,0,0,101.11,6.63Z"/>
    <path class="a" d="M101.11,40.88a2,2,0,1,0-2,2A2,2,0,0,0,101.11,40.88Z"/>
    <path class="a" d="M127.53,40.88a2.74,2.74,0,1,0-2.74,2.74A2.74,2.74,0,0,0,127.53,40.88Z"/>
    <path class="a" d="M118.7,40.88a2.47,2.47,0,1,0-2.47,2.47A2.48,2.48,0,0,0,118.7,40.88Z"/>
    <path class="a" d="M92.35,6.63a1.82,1.82,0,1,0-1.81,1.81A1.81,1.81,0,0,0,92.35,6.63Z"/>
    <path class="a" d="M14.19,6.63a.73.73,0,1,0-.73.72A.73.73,0,0,0,14.19,6.63Z"/>
    <path class="a" d="M5.55,6.63a.65.65,0,1,0-.65.65A.65.65,0,0,0,5.55,6.63Z"/>
    <path class="a" d="M48.81,6.63a1.09,1.09,0,1,0-1.09,1.09A1.09,1.09,0,0,0,48.81,6.63Z"/>
    <path class="a" d="M66.18,6.63A1.34,1.34,0,1,0,64.85,8,1.34,1.34,0,0,0,66.18,6.63Z"/>
    <path class="a" d="M74.89,6.63a1.48,1.48,0,1,0-1.48,1.48A1.48,1.48,0,0,0,74.89,6.63Z"/>
    <path class="a" d="M83.61,6.63A1.64,1.64,0,1,0,82,8.27,1.63,1.63,0,0,0,83.61,6.63Z"/>
    <path class="a" d="M57.49,6.63a1.21,1.21,0,1,0-1.21,1.2A1.21,1.21,0,0,0,57.49,6.63Z"/>
    <path class="a" d="M31.48,6.63a.89.89,0,1,0-1.77,0,.89.89,0,0,0,1.77,0Z"/>
    <path class="a" d="M22.83,6.63a.8.8,0,1,0-.8.8A.8.8,0,0,0,22.83,6.63Z"/>
    <path class="a" d="M40.14,6.63a1,1,0,1,0-1,1A1,1,0,0,0,40.14,6.63Z"/>
    <path class="a" d="M61.83,2.35a1.27,1.27,0,1,0-1.27,1.27A1.27,1.27,0,0,0,61.83,2.35Z"/>
    <path class="a" d="M27.15,2.35a.84.84,0,1,0-.84.84A.84.84,0,0,0,27.15,2.35Z"/>
    <path class="a" d="M44.47,2.35a1,1,0,1,0-1,1A1,1,0,0,0,44.47,2.35Z"/>
    <path class="a" d="M53,3a1.21,1.21,0,0,0,.2-.64,1.16,1.16,0,0,0-.2-.64,1.14,1.14,0,0,0-1-.51.85.85,0,0,0-.23,0,1.1,1.1,0,0,0-.58.31,1.13,1.13,0,0,0-.31.58.86.86,0,0,0,0,.23.9.9,0,0,0,0,.23,1.15,1.15,0,0,0,.17.41,2.09,2.09,0,0,0,.14.17,1.26,1.26,0,0,0,.58.31l.23,0A1.15,1.15,0,0,0,53,3Z"/>
    <path class="a" d="M35.65,2.87a.94.94,0,0,0,.16-.52.89.89,0,0,0-.16-.52.94.94,0,0,0-.78-.42l-.18,0a.94.94,0,0,0-.48.26.76.76,0,0,0-.11.14.81.81,0,0,0-.14.33,1.11,1.11,0,0,0,0,.19,1.37,1.37,0,0,0,0,.19.81.81,0,0,0,.14.33,1.34,1.34,0,0,0,.11.14,1,1,0,0,0,.48.25l.18,0A.93.93,0,0,0,35.65,2.87Z"/>
    <path class="a" d="M18.51,2.35a.76.76,0,0,0-.34-.63.77.77,0,0,0-.42-.13h-.16a.76.76,0,0,0,0,1.49l.16,0a.77.77,0,0,0,.76-.76Z"/>
    <path class="a" d="M1.13,2.69a.58.58,0,0,0,.11-.34A.61.61,0,0,0,1.13,2a.62.62,0,0,0-.51-.27H.49a.73.73,0,0,0-.31.17L.11,2a.62.62,0,0,0-.1.22.53.53,0,0,0,0,.13.49.49,0,0,0,0,.12.55.55,0,0,0,.1.22.22.22,0,0,0,.07.09A.56.56,0,0,0,.49,3L.62,3A.61.61,0,0,0,1.13,2.69Z"/>
    <path class="a" d="M1.13,54.07a.6.6,0,0,0,.11-.34.61.61,0,0,0-.11-.35.62.62,0,0,0-.51-.27H.49a.73.73,0,0,0-.31.17l-.07.09a.62.62,0,0,0-.1.22.53.53,0,0,0,0,.13.49.49,0,0,0,0,.12.55.55,0,0,0,.1.22.22.22,0,0,0,.07.09.56.56,0,0,0,.31.17l.13,0A.61.61,0,0,0,1.13,54.07Z"/>
    <path class="a" d="M9.87,2.35a.69.69,0,0,0-.69-.69.68.68,0,0,0-.68.69A.67.67,0,0,0,9.18,3,.68.68,0,0,0,9.87,2.35Z"/>
    <path class="a" d="M105.14,3.53a2.08,2.08,0,0,0,.36-1.18A2.11,2.11,0,0,0,103.38.23a1.93,1.93,0,0,0-.42,0,2.08,2.08,0,0,0-1.07.58,1.86,1.86,0,0,0-.26.31,1.9,1.9,0,0,0-.32.76,2,2,0,0,0,0,.43,1.93,1.93,0,0,0,0,.42,1.84,1.84,0,0,0,.32.76,1.53,1.53,0,0,0,.26.31,2,2,0,0,0,1.07.58,1.93,1.93,0,0,0,.42,0A2.1,2.1,0,0,0,105.14,3.53Z"/>
    <path class="a" d="M70.53,2.35A1.41,1.41,0,0,0,69.13.94a1.27,1.27,0,0,0-.28,0,1.4,1.4,0,0,0,0,2.75,1.27,1.27,0,0,0,.28,0,1.41,1.41,0,0,0,1.4-1.4Z"/>
    <path class="a" d="M114.29,2.35A2.35,2.35,0,1,0,112,4.69,2.35,2.35,0,0,0,114.29,2.35Z"/>
    <path class="a" d="M96.73,2.35a1.91,1.91,0,1,0-1.91,1.91A1.9,1.9,0,0,0,96.73,2.35Z"/>
    <path class="a" d="M79.25,2.35A1.56,1.56,0,1,0,77.69,3.9,1.56,1.56,0,0,0,79.25,2.35Z"/>
    <path class="a" d="M87.69,3.31a1.75,1.75,0,0,0,.29-1,1.78,1.78,0,0,0-.29-1A1.73,1.73,0,0,0,86.26.62a1.34,1.34,0,0,0-.35,0,1.65,1.65,0,0,0-.87.47,2.62,2.62,0,0,0-.22.25,1.69,1.69,0,0,0-.25.62,1.34,1.34,0,0,0,0,.35,1.27,1.27,0,0,0,0,.34,1.62,1.62,0,0,0,.25.62,2.75,2.75,0,0,0,.22.26,1.72,1.72,0,0,0,.87.47,2,2,0,0,0,.35,0A1.73,1.73,0,0,0,87.69,3.31Z"/>
  </g>
</svg>
