<svg xmlns="http://www.w3.org/2000/svg" viewBox="0 0 199.82 50.1">
  <defs>
    <style>
      .a {
        fill: #6f7479;
      }

      .b {
        fill: #98979a;
      }
    </style>
  </defs>
  <g>
    <g>
      <path class="a" d="M173.51,27a2,2,0,1,0-2,2A2,2,0,0,0,173.51,27Z" transform="translate(-1.16 -5.76)"/>
      <path class="a" d="M189.25,27a2.45,2.45,0,1,0-2.45,2.44A2.45,2.45,0,0,0,189.25,27Z" transform="translate(-1.16 -5.76)"/>
      <path class="a" d="M181.37,27a2.21,2.21,0,1,0-2.21,2.21A2.21,2.21,0,0,0,181.37,27Z" transform="translate(-1.16 -5.76)"/>
      <path class="a" d="M197.16,27a2.71,2.71,0,1,0-2.71,2.71A2.71,2.71,0,0,0,197.16,27Z" transform="translate(-1.16 -5.76)"/>
      <path class="a" d="M150.05,27a1.47,1.47,0,1,0-1.47,1.46A1.46,1.46,0,0,0,150.05,27Z" transform="translate(-1.16 -5.76)"/>
      <path class="a" d="M165.67,27a1.8,1.8,0,1,0-1.8,1.8A1.81,1.81,0,0,0,165.67,27Z" transform="translate(-1.16 -5.76)"/>
      <path class="a" d="M142.26,27a1.32,1.32,0,1,0-1.32,1.32A1.32,1.32,0,0,0,142.26,27Z" transform="translate(-1.16 -5.76)"/>
      <path class="a" d="M157.85,27a1.63,1.63,0,1,0-1.62,1.62A1.62,1.62,0,0,0,157.85,27Z" transform="translate(-1.16 -5.76)"/>
      <path class="a" d="M177.43,23.14a2.1,2.1,0,1,0-2.09,2.09A2.09,2.09,0,0,0,177.43,23.14Z" transform="translate(-1.16 -5.76)"/>
      <path class="a" d="M134.49,27a1.2,1.2,0,1,0-1.2,1.19A1.19,1.19,0,0,0,134.49,27Z" transform="translate(-1.16 -5.76)"/>
      <path class="a" d="M193.2,23.14a2.58,2.58,0,1,0-2.57,2.57A2.57,2.57,0,0,0,193.2,23.14Z" transform="translate(-1.16 -5.76)"/>
      <path class="a" d="M185.3,23.14A2.3,2.3,0,0,0,183,20.82a2.49,2.49,0,0,0-.47,0,2.32,2.32,0,0,0,0,4.55,2.5,2.5,0,0,0,.47.05,2.32,2.32,0,0,0,1.3-.4A2.29,2.29,0,0,0,185.3,23.14Z" transform="translate(-1.16 -5.76)"/>
      <path class="a" d="M103.51,27a.8.8,0,1,0-.79.79A.79.79,0,0,0,103.51,27Z" transform="translate(-1.16 -5.76)"/>
      <path class="a" d="M111.24,27a.88.88,0,1,0-.88.88A.89.89,0,0,0,111.24,27Z" transform="translate(-1.16 -5.76)"/>
      <path class="a" d="M119,27a1,1,0,1,0-1,1A1,1,0,0,0,119,27Z" transform="translate(-1.16 -5.76)"/>
      <path class="a" d="M95.78,27a.71.71,0,1,0-.71.71A.71.71,0,0,0,95.78,27Z" transform="translate(-1.16 -5.76)"/>
      <path class="a" d="M126.72,27A1.08,1.08,0,1,0,125.65,28,1.08,1.08,0,0,0,126.72,27Z" transform="translate(-1.16 -5.76)"/>
      <path class="a" d="M103.51,34.6a.8.8,0,1,0-.79.8A.8.8,0,0,0,103.51,34.6Z" transform="translate(-1.16 -5.76)"/>
      <path class="a" d="M95.78,34.6a.71.71,0,0,0-1.42,0,.71.71,0,1,0,1.42,0Z" transform="translate(-1.16 -5.76)"/>
      <path class="a" d="M111.24,34.6a.88.88,0,1,0-.88.88A.88.88,0,0,0,111.24,34.6Z" transform="translate(-1.16 -5.76)"/>
      <path class="a" d="M119,34.6a1,1,0,1,0-1,1A1,1,0,0,0,119,34.6Z" transform="translate(-1.16 -5.76)"/>
      <path class="a" d="M165.67,34.6a1.8,1.8,0,1,0-1.8,1.8A1.8,1.8,0,0,0,165.67,34.6Z" transform="translate(-1.16 -5.76)"/>
      <path class="a" d="M126.72,34.6a1.08,1.08,0,1,0-1.07,1.08A1.07,1.07,0,0,0,126.72,34.6Z" transform="translate(-1.16 -5.76)"/>
      <path class="a" d="M157.85,34.6a1.63,1.63,0,1,0-1.62,1.63A1.63,1.63,0,0,0,157.85,34.6Z" transform="translate(-1.16 -5.76)"/>
      <path class="a" d="M181.37,34.6a2.21,2.21,0,1,0-2.21,2.21A2.21,2.21,0,0,0,181.37,34.6Z" transform="translate(-1.16 -5.76)"/>
      <path class="a" d="M173.51,34.6a2,2,0,1,0-2,2A2,2,0,0,0,173.51,34.6Z" transform="translate(-1.16 -5.76)"/>
      <path class="a" d="M134.49,34.6a1.2,1.2,0,1,0-1.2,1.2A1.2,1.2,0,0,0,134.49,34.6Z" transform="translate(-1.16 -5.76)"/>
      <path class="a" d="M150.05,34.6a1.47,1.47,0,1,0-1.47,1.47A1.47,1.47,0,0,0,150.05,34.6Z" transform="translate(-1.16 -5.76)"/>
      <path class="a" d="M142.26,34.6a1.32,1.32,0,1,0-1.32,1.33A1.33,1.33,0,0,0,142.26,34.6Z" transform="translate(-1.16 -5.76)"/>
      <path class="a" d="M146,31.32a1.37,1.37,0,0,0,.11-.54,1.39,1.39,0,0,0-2.78,0,1.39,1.39,0,0,0,2.67.54Z" transform="translate(-1.16 -5.76)"/>
      <path class="a" d="M130.51,31.22a1,1,0,0,0,.09-.44,1.13,1.13,0,0,0-2.26,0,1,1,0,0,0,.09.44,1,1,0,0,0,.24.36,1.11,1.11,0,0,0,1.6,0A1,1,0,0,0,130.51,31.22Z" transform="translate(-1.16 -5.76)"/>
      <path class="a" d="M138,31.67a1.09,1.09,0,0,0,.27-.4,1.13,1.13,0,0,0,.1-.49,1.24,1.24,0,0,0-1.25-1.25l-.26,0a1.26,1.26,0,0,0-1,1.23,1.3,1.3,0,0,0,.1.49,1.09,1.09,0,0,0,.27.4,1.26,1.26,0,0,0,.63.34,1.09,1.09,0,0,0,.26,0,1.21,1.21,0,0,0,.7-.22A.84.84,0,0,0,138,31.67Z" transform="translate(-1.16 -5.76)"/>
      <path class="a" d="M153.68,31.64a1.3,1.3,0,0,0,.14-.26,1.56,1.56,0,0,0-.14-1.46,1.52,1.52,0,0,0-1.28-.68,1.63,1.63,0,0,0-.31,0,1.53,1.53,0,0,0-.77.42,1.37,1.37,0,0,0-.19.23,1.57,1.57,0,0,0-.23.55,1.1,1.1,0,0,0,0,.31,1.06,1.06,0,0,0,0,.31,2.45,2.45,0,0,0,.08.29,1.35,1.35,0,0,0,.15.26,1.06,1.06,0,0,0,.19.23,1.46,1.46,0,0,0,.77.42,1.63,1.63,0,0,0,.31,0,1.51,1.51,0,0,0,1.09-.45A1.06,1.06,0,0,0,153.68,31.64Z" transform="translate(-1.16 -5.76)"/>
      <path class="a" d="M107.23,31.25a.91.91,0,0,0,.07-.14.72.72,0,0,0,.07-.33.81.81,0,0,0-.14-.46.83.83,0,0,0-.69-.37l-.17,0a.81.81,0,0,0-.42.22.64.64,0,0,0-.1.13.84.84,0,0,0-.13.29,1,1,0,0,0,0,.17.91.91,0,0,0,0,.17,1,1,0,0,0,0,.16,1,1,0,0,0,.08.14l.1.12a.91.91,0,0,0,.42.23l.17,0a.84.84,0,0,0,.59-.25Z" transform="translate(-1.16 -5.76)"/>
      <path class="a" d="M99.59,31.07a.88.88,0,0,0,0-.29.75.75,0,0,0-1.5,0,.68.68,0,0,0,.06.29.67.67,0,0,0,.16.24.75.75,0,0,0,.53.22.72.72,0,0,0,.53-.22A.7.7,0,0,0,99.59,31.07Z" transform="translate(-1.16 -5.76)"/>
      <path class="a" d="M161.62,31.45a1.67,1.67,0,0,0,.14-.67,1.71,1.71,0,0,0-3.42,0,1.67,1.67,0,0,0,.14.67,1.76,1.76,0,0,0,.36.54,1.71,1.71,0,0,0,2.42,0A1.76,1.76,0,0,0,161.62,31.45Z" transform="translate(-1.16 -5.76)"/>
      <path class="a" d="M115,31.14a.86.86,0,0,0,.07-.36.92.92,0,0,0-1.84,0,1,1,0,0,0,.07.36,1,1,0,0,0,.2.29.92.92,0,0,0,.65.28.89.89,0,0,0,.65-.28A.72.72,0,0,0,115,31.14Z" transform="translate(-1.16 -5.76)"/>
      <path class="a" d="M122.67,31.35a1,1,0,0,0,.1-.17,1.06,1.06,0,0,0,.08-.4,1,1,0,0,0-1-1l-.21,0a1,1,0,0,0-.52.28l-.12.15a.93.93,0,0,0-.15.37.64.64,0,0,0,0,.2.76.76,0,0,0,0,.21,1.33,1.33,0,0,0,0,.19,1,1,0,0,0,.1.17l.12.16a1.08,1.08,0,0,0,.52.27.75.75,0,0,0,.21,0,1,1,0,0,0,.72-.29A.61.61,0,0,0,122.67,31.35Z" transform="translate(-1.16 -5.76)"/>
      <path class="a" d="M200.77,31.84a2.86,2.86,0,0,0,.21-1.06,2.71,2.71,0,1,0-5.42,0,2.68,2.68,0,0,0,.22,1.06,2.61,2.61,0,0,0,.58.86,2.72,2.72,0,0,0,3.83,0A3,3,0,0,0,200.77,31.84Z" transform="translate(-1.16 -5.76)"/>
      <path class="a" d="M169.26,31.84a1.73,1.73,0,0,0,.32-1.06,1.81,1.81,0,0,0-.32-1.05,1.87,1.87,0,0,0-1.57-.84,1.64,1.64,0,0,0-.38,0,1.85,1.85,0,0,0-.95.52,1,1,0,0,0-.23.28,1.75,1.75,0,0,0-.29.67,1.82,1.82,0,0,0,0,.76,2.15,2.15,0,0,0,.11.36,2,2,0,0,0,.18.32,1.49,1.49,0,0,0,.23.28,1.85,1.85,0,0,0,.95.52,2.43,2.43,0,0,0,.38,0,1.88,1.88,0,0,0,1.34-.55A2,2,0,0,0,169.26,31.84Z" transform="translate(-1.16 -5.76)"/>
      <path class="a" d="M193,31.78a2.51,2.51,0,0,0,.2-1,2.58,2.58,0,0,0-5.15,0,2.52,2.52,0,0,0,.21,1,2.42,2.42,0,0,0,.55.82,2.57,2.57,0,0,0,4.19-.82Z" transform="translate(-1.16 -5.76)"/>
      <path class="a" d="M177.27,31.6a2.22,2.22,0,0,0,.16-.82,2.1,2.1,0,0,0-4.19,0,2,2,0,0,0,.17.82,2,2,0,0,0,.45.66,2.08,2.08,0,0,0,3,0A2.15,2.15,0,0,0,177.27,31.6Z" transform="translate(-1.16 -5.76)"/>
      <path class="a" d="M189.25,34.6a2.45,2.45,0,1,0-2.45,2.45A2.45,2.45,0,0,0,189.25,34.6Z" transform="translate(-1.16 -5.76)"/>
      <path class="a" d="M184.62,32.42a2.43,2.43,0,0,0,.5-.73A2.33,2.33,0,0,0,183,28.46a2.5,2.5,0,0,0-.47.05,2.32,2.32,0,0,0-1.85,2.27,2.5,2.5,0,0,0,.18.91,2.43,2.43,0,0,0,.5.73,2.37,2.37,0,0,0,1.17.64,2.49,2.49,0,0,0,.47,0,2.32,2.32,0,0,0,1.3-.39A2.37,2.37,0,0,0,184.62,32.42Z" transform="translate(-1.16 -5.76)"/>
      <path class="a" d="M169.26,16.55a1.8,1.8,0,0,0,.29-.68,2.34,2.34,0,0,0,0-.38,1.81,1.81,0,0,0-.32-1.05,1.87,1.87,0,0,0-1.57-.84,2.45,2.45,0,0,0-.38,0,1.85,1.85,0,0,0-.95.52,1.23,1.23,0,0,0-.23.28,1.82,1.82,0,0,0-.29.67,2.45,2.45,0,0,0,0,.38,2.33,2.33,0,0,0,0,.38,1.8,1.8,0,0,0,.29.68,1.23,1.23,0,0,0,.23.28,1.85,1.85,0,0,0,.95.52,2.45,2.45,0,0,0,.38,0A1.9,1.9,0,0,0,169.26,16.55Z" transform="translate(-1.16 -5.76)"/>
      <path class="a" d="M177.39,15.92a2,2,0,0,0,0-.43,2.1,2.1,0,0,0-4.19,0,3,3,0,0,0,0,.43,2.1,2.1,0,0,0,4.11,0Z" transform="translate(-1.16 -5.76)"/>
      <path class="a" d="M161.72,15.84a2,2,0,0,0,0-.35,1.71,1.71,0,0,0-3.42,0,1.34,1.34,0,0,0,0,.35,1.71,1.71,0,0,0,3.34,0Z" transform="translate(-1.16 -5.76)"/>
      <path class="a" d="M185.26,16a2.42,2.42,0,0,0,0-.47A2.32,2.32,0,0,0,183,13.17a2.5,2.5,0,0,0-.47.05,2.33,2.33,0,0,0-1.85,2.27,2.42,2.42,0,0,0,.05.47,2.32,2.32,0,0,0,1.8,1.81,2.5,2.5,0,0,0,.47.05,2.32,2.32,0,0,0,1.3-.4A2.35,2.35,0,0,0,185.26,16Z" transform="translate(-1.16 -5.76)"/>
      <path class="a" d="M153.68,16.36a1.62,1.62,0,0,0,.23-.56,1.55,1.55,0,0,0,0-.31A1.53,1.53,0,0,0,152.4,14a1.1,1.1,0,0,0-.31,0,1.46,1.46,0,0,0-.77.42,1,1,0,0,0-.19.22,1.57,1.57,0,0,0-.23.55,1.1,1.1,0,0,0,0,.31,1.06,1.06,0,0,0,0,.31,1.62,1.62,0,0,0,.23.56,1.3,1.3,0,0,0,.19.22,1.46,1.46,0,0,0,.77.42,1.65,1.65,0,0,0,.31,0A1.52,1.52,0,0,0,153.68,16.36Z" transform="translate(-1.16 -5.76)"/>
      <path class="a" d="M130.58,15.72a.86.86,0,0,0,0-.23,1.13,1.13,0,0,0-2.26,0,1.64,1.64,0,0,0,0,.23,1.13,1.13,0,0,0,2.22,0Z" transform="translate(-1.16 -5.76)"/>
      <path class="a" d="M138.34,15.75a1.09,1.09,0,0,0,0-.26,1.24,1.24,0,0,0-1.25-1.25,1.09,1.09,0,0,0-.26,0,1.24,1.24,0,0,0-1,1.22,1.09,1.09,0,0,0,0,.26,1.24,1.24,0,0,0,1,1,1.09,1.09,0,0,0,.26,0,1.21,1.21,0,0,0,.7-.22A1.25,1.25,0,0,0,138.34,15.75Z" transform="translate(-1.16 -5.76)"/>
      <path class="a" d="M146.12,15.77a1.27,1.27,0,0,0,0-.28,1.39,1.39,0,0,0-2.78,0,1.27,1.27,0,0,0,0,.28,1.39,1.39,0,0,0,2.72,0Z" transform="translate(-1.16 -5.76)"/>
      <path class="a" d="M122.67,16.07a1,1,0,0,0,.16-.37,1.49,1.49,0,0,0,0-.21,1,1,0,0,0-.18-.57,1,1,0,0,0-.84-.45l-.21,0a1,1,0,0,0-.52.28l-.12.15a1,1,0,0,0-.15.37.64.64,0,0,0,0,.2.76.76,0,0,0,0,.21,1,1,0,0,0,.15.37l.12.15a1.1,1.1,0,0,0,.52.28l.21,0A1,1,0,0,0,122.67,16.07Z" transform="translate(-1.16 -5.76)"/>
      <path class="a" d="M173.51,11.67a2,2,0,1,0-2,2A2,2,0,0,0,173.51,11.67Z" transform="translate(-1.16 -5.76)"/>
      <path class="a" d="M181.37,11.67a2.21,2.21,0,1,0-2.21,2.21A2.2,2.2,0,0,0,181.37,11.67Z" transform="translate(-1.16 -5.76)"/>
      <path class="a" d="M91.91,15.63a.59.59,0,0,0,0-.14.68.68,0,0,0-.3-.56.7.7,0,0,0-.38-.11h-.14a.68.68,0,0,0-.54.66s0,.1,0,.14a.7.7,0,0,0,.53.53h.14a.7.7,0,0,0,.38-.11A.67.67,0,0,0,91.91,15.63Z" transform="translate(-1.16 -5.76)"/>
      <path class="a" d="M99.63,15.65a.81.81,0,0,0,0-.16.75.75,0,1,0-1.5,0,.78.78,0,0,0,0,.16.75.75,0,0,0,1.47,0Z" transform="translate(-1.16 -5.76)"/>
      <path class="a" d="M84.2,15.62a.51.51,0,0,0,0-.13.62.62,0,0,0-1.23,0s0,.09,0,.13a.62.62,0,0,0,.6.49A.6.6,0,0,0,84.2,15.62Z" transform="translate(-1.16 -5.76)"/>
      <path class="a" d="M107.23,16a.79.79,0,0,0,.12-.3.88.88,0,0,0,0-.17.81.81,0,0,0-.14-.46.83.83,0,0,0-.69-.37l-.17,0a.76.76,0,0,0-.42.23.4.4,0,0,0-.1.12.81.81,0,0,0-.13.3.86.86,0,0,0,0,.16.91.91,0,0,0,0,.17.81.81,0,0,0,.13.3.58.58,0,0,0,.1.12.76.76,0,0,0,.42.23l.17,0A.83.83,0,0,0,107.23,16Z" transform="translate(-1.16 -5.76)"/>
      <path class="a" d="M115.09,15.68a1.15,1.15,0,0,0,0-.19.92.92,0,1,0-1.84,0,1.11,1.11,0,0,0,0,.19.92.92,0,0,0,.9.74A.93.93,0,0,0,115.09,15.68Z" transform="translate(-1.16 -5.76)"/>
      <path class="a" d="M169.26,24.2a1.86,1.86,0,0,0,.32-1.06,1.84,1.84,0,0,0-.32-1.06,1.89,1.89,0,0,0-1.57-.83,1.64,1.64,0,0,0-.38,0,1.77,1.77,0,0,0-.95.51,1.49,1.49,0,0,0-.23.28,1.8,1.8,0,0,0-.29.68,1.82,1.82,0,0,0,0,.76,1.87,1.87,0,0,0,.29.68,1.49,1.49,0,0,0,.23.28,1.84,1.84,0,0,0,.95.51,1.64,1.64,0,0,0,.38,0A1.89,1.89,0,0,0,169.26,24.2Z" transform="translate(-1.16 -5.76)"/>
      <path class="a" d="M91.93,23.14a.66.66,0,0,0-.3-.56.64.64,0,0,0-.38-.12h-.14a.69.69,0,0,0-.54.67.67.67,0,0,0,.54.66l.14,0a.71.71,0,0,0,.38-.12A.68.68,0,0,0,91.93,23.14Z" transform="translate(-1.16 -5.76)"/>
      <path class="a" d="M99.64,23.14a.75.75,0,0,0-1.5,0,.75.75,0,0,0,1.5,0Z" transform="translate(-1.16 -5.76)"/>
      <path class="a" d="M138.37,23.14a1.26,1.26,0,0,0-.55-1,1.21,1.21,0,0,0-.7-.22,1.09,1.09,0,0,0-.26,0,1.26,1.26,0,0,0,0,2.46l.26,0a1.24,1.24,0,0,0,1.25-1.25Z" transform="translate(-1.16 -5.76)"/>
      <path class="a" d="M153.68,24a1.5,1.5,0,0,0,.26-.86,1.48,1.48,0,0,0-.26-.86,1.52,1.52,0,0,0-1.28-.68,1.63,1.63,0,0,0-.31,0,1.46,1.46,0,0,0-.77.42,1.37,1.37,0,0,0-.19.23,1.5,1.5,0,0,0-.23.55,1.06,1.06,0,0,0,0,.31,1.1,1.1,0,0,0,0,.31,1.5,1.5,0,0,0,.23.55,1.37,1.37,0,0,0,.19.23,1.46,1.46,0,0,0,.77.42,1.63,1.63,0,0,0,.31,0A1.52,1.52,0,0,0,153.68,24Z" transform="translate(-1.16 -5.76)"/>
      <path class="a" d="M146.15,23.14a1.39,1.39,0,1,0-1.39,1.39A1.39,1.39,0,0,0,146.15,23.14Z" transform="translate(-1.16 -5.76)"/>
      <path class="a" d="M161.76,23.14a1.71,1.71,0,1,0-1.71,1.71A1.72,1.72,0,0,0,161.76,23.14Z" transform="translate(-1.16 -5.76)"/>
      <path class="a" d="M122.67,23.71a1,1,0,0,0-.84-1.59.75.75,0,0,0-.21,0,1,1,0,0,0-.52.28,1,1,0,0,0-.12.15,1,1,0,0,0-.15.36.76.76,0,0,0,0,.21.64.64,0,0,0,0,.2.93.93,0,0,0,.15.37l.12.15a1,1,0,0,0,.52.28l.21,0A1,1,0,0,0,122.67,23.71Z" transform="translate(-1.16 -5.76)"/>
      <path class="a" d="M115.1,23.14a.92.92,0,1,0-.92.92A.92.92,0,0,0,115.1,23.14Z" transform="translate(-1.16 -5.76)"/>
      <path class="a" d="M130.6,23.14a1.13,1.13,0,0,0-2.26,0,1.13,1.13,0,1,0,2.26,0Z" transform="translate(-1.16 -5.76)"/>
      <path class="a" d="M107.23,23.6a.81.81,0,0,0,.14-.46.86.86,0,0,0-.14-.47.83.83,0,0,0-.69-.36h-.17a.91.91,0,0,0-.42.23l-.1.12a.81.81,0,0,0-.13.3,1.45,1.45,0,0,0,0,.34.76.76,0,0,0,.13.29.64.64,0,0,0,.1.13.81.81,0,0,0,.42.22.47.47,0,0,0,.17,0A.81.81,0,0,0,107.23,23.6Z" transform="translate(-1.16 -5.76)"/>
      <path class="a" d="M95.78,19.32a.71.71,0,1,0-.71.71A.71.71,0,0,0,95.78,19.32Z" transform="translate(-1.16 -5.76)"/>
      <path class="a" d="M142.26,19.32a1.32,1.32,0,1,0-1.32,1.32A1.32,1.32,0,0,0,142.26,19.32Z" transform="translate(-1.16 -5.76)"/>
      <path class="a" d="M126.72,19.32a1.08,1.08,0,1,0-1.07,1.07A1.07,1.07,0,0,0,126.72,19.32Z" transform="translate(-1.16 -5.76)"/>
      <path class="a" d="M111.24,19.32a.88.88,0,1,0-.88.87A.88.88,0,0,0,111.24,19.32Z" transform="translate(-1.16 -5.76)"/>
      <path class="a" d="M134.49,19.32a1.2,1.2,0,1,0-1.2,1.19A1.2,1.2,0,0,0,134.49,19.32Z" transform="translate(-1.16 -5.76)"/>
      <path class="a" d="M119,19.32a1,1,0,1,0-1,1A1,1,0,0,0,119,19.32Z" transform="translate(-1.16 -5.76)"/>
      <path class="a" d="M103.51,19.32a.8.8,0,0,0-1.59,0,.8.8,0,0,0,1.59,0Z" transform="translate(-1.16 -5.76)"/>
      <path class="a" d="M88.07,19.32a.65.65,0,1,0-.64.64A.65.65,0,0,0,88.07,19.32Z" transform="translate(-1.16 -5.76)"/>
      <path class="a" d="M150.05,19.32a1.47,1.47,0,1,0-1.47,1.46A1.47,1.47,0,0,0,150.05,19.32Z" transform="translate(-1.16 -5.76)"/>
      <path class="a" d="M189.25,19.32a2.45,2.45,0,1,0-2.45,2.44A2.45,2.45,0,0,0,189.25,19.32Z" transform="translate(-1.16 -5.76)"/>
      <path class="a" d="M181.37,19.32a2.21,2.21,0,1,0-2.21,2.2A2.21,2.21,0,0,0,181.37,19.32Z" transform="translate(-1.16 -5.76)"/>
      <path class="a" d="M157.85,19.32a1.63,1.63,0,1,0-1.62,1.62A1.63,1.63,0,0,0,157.85,19.32Z" transform="translate(-1.16 -5.76)"/>
      <path class="a" d="M173.51,19.32a2,2,0,1,0-2,2A2,2,0,0,0,173.51,19.32Z" transform="translate(-1.16 -5.76)"/>
      <path class="a" d="M165.67,19.32a1.8,1.8,0,1,0-1.8,1.79A1.8,1.8,0,0,0,165.67,19.32Z" transform="translate(-1.16 -5.76)"/>
      <path class="a" d="M134.49,42.25a1.2,1.2,0,1,0-1.2,1.19A1.19,1.19,0,0,0,134.49,42.25Z" transform="translate(-1.16 -5.76)"/>
      <path class="a" d="M173.51,49.89a2,2,0,1,0-2,2A2,2,0,0,0,173.51,49.89Z" transform="translate(-1.16 -5.76)"/>
      <path class="a" d="M181.37,49.89a2.21,2.21,0,1,0-2.21,2.21A2.2,2.2,0,0,0,181.37,49.89Z" transform="translate(-1.16 -5.76)"/>
      <path class="a" d="M91.93,53.71a.68.68,0,0,0-.3-.56.7.7,0,0,0-.38-.11h-.14a.68.68,0,0,0,0,1.33h.14a.7.7,0,0,0,.38-.11A.68.68,0,0,0,91.93,53.71Z" transform="translate(-1.16 -5.76)"/>
      <path class="a" d="M84.22,53.71a.62.62,0,1,0-.62.62A.62.62,0,0,0,84.22,53.71Z" transform="translate(-1.16 -5.76)"/>
      <path class="a" d="M165.67,49.89a1.8,1.8,0,1,0-1.8,1.8A1.8,1.8,0,0,0,165.67,49.89Z" transform="translate(-1.16 -5.76)"/>
      <path class="a" d="M107.23,54.18a.82.82,0,0,0,.14-.47.81.81,0,0,0-.14-.46.83.83,0,0,0-.69-.37l-.17,0a.76.76,0,0,0-.42.23.58.58,0,0,0-.1.12.81.81,0,0,0-.13.3.86.86,0,0,0,0,.16.91.91,0,0,0,0,.17.81.81,0,0,0,.13.3.58.58,0,0,0,.1.12.76.76,0,0,0,.42.23l.17,0A.83.83,0,0,0,107.23,54.18Z" transform="translate(-1.16 -5.76)"/>
      <path class="a" d="M99.64,53.71a.75.75,0,1,0-1.5,0,.75.75,0,1,0,1.5,0Z" transform="translate(-1.16 -5.76)"/>
      <path class="a" d="M95.78,49.89a.71.71,0,0,0-1.42,0,.71.71,0,1,0,1.42,0Z" transform="translate(-1.16 -5.76)"/>
      <path class="a" d="M88.07,49.89a.65.65,0,1,0-.64.65A.64.64,0,0,0,88.07,49.89Z" transform="translate(-1.16 -5.76)"/>
      <path class="a" d="M157.85,49.89a1.63,1.63,0,1,0-1.62,1.63A1.63,1.63,0,0,0,157.85,49.89Z" transform="translate(-1.16 -5.76)"/>
      <path class="a" d="M80.36,49.89a.58.58,0,1,0-.58.58A.58.58,0,0,0,80.36,49.89Z" transform="translate(-1.16 -5.76)"/>
      <path class="a" d="M142.26,49.89a1.32,1.32,0,1,0-1.32,1.32A1.32,1.32,0,0,0,142.26,49.89Z" transform="translate(-1.16 -5.76)"/>
      <path class="a" d="M134.49,49.89a1.2,1.2,0,1,0-1.2,1.2A1.19,1.19,0,0,0,134.49,49.89Z" transform="translate(-1.16 -5.76)"/>
      <path class="a" d="M126.72,49.89A1.08,1.08,0,1,0,125.65,51,1.07,1.07,0,0,0,126.72,49.89Z" transform="translate(-1.16 -5.76)"/>
      <path class="a" d="M115.1,53.71a.92.92,0,1,0-.92.93A.92.92,0,0,0,115.1,53.71Z" transform="translate(-1.16 -5.76)"/>
      <path class="a" d="M103.51,49.89a.8.8,0,1,0-.79.79A.8.8,0,0,0,103.51,49.89Z" transform="translate(-1.16 -5.76)"/>
      <path class="a" d="M111.24,49.89a.88.88,0,1,0-.88.88A.88.88,0,0,0,111.24,49.89Z" transform="translate(-1.16 -5.76)"/>
      <path class="a" d="M119,49.89a1,1,0,1,0-1,1A1,1,0,0,0,119,49.89Z" transform="translate(-1.16 -5.76)"/>
      <path class="a" d="M150.05,49.89a1.47,1.47,0,1,0-1.47,1.47A1.46,1.46,0,0,0,150.05,49.89Z" transform="translate(-1.16 -5.76)"/>
      <path class="a" d="M169.26,54.77a1.9,1.9,0,0,0,0-2.11,1.87,1.87,0,0,0-1.57-.84,2.45,2.45,0,0,0-.38,0,1.85,1.85,0,0,0-.95.52,1.23,1.23,0,0,0-.23.28,1.82,1.82,0,0,0-.29.67,1.87,1.87,0,0,0,0,.77,1.82,1.82,0,0,0,.29.67,1.23,1.23,0,0,0,.23.28,1.85,1.85,0,0,0,.95.52,2.45,2.45,0,0,0,.38,0A1.87,1.87,0,0,0,169.26,54.77Z" transform="translate(-1.16 -5.76)"/>
      <path class="a" d="M177.43,53.71a2.1,2.1,0,1,0-2.09,2.1A2.09,2.09,0,0,0,177.43,53.71Z" transform="translate(-1.16 -5.76)"/>
      <path class="a" d="M153.68,54.58a1.55,1.55,0,0,0-1.28-2.41,1.65,1.65,0,0,0-.31,0,1.46,1.46,0,0,0-.77.42,1.3,1.3,0,0,0-.19.22,1.57,1.57,0,0,0-.23.55,1.1,1.1,0,0,0,0,.31,1.06,1.06,0,0,0,0,.31,1.54,1.54,0,0,0,.23.56,1.3,1.3,0,0,0,.19.22,1.46,1.46,0,0,0,.77.42,1.65,1.65,0,0,0,.31,0A1.52,1.52,0,0,0,153.68,54.58Z" transform="translate(-1.16 -5.76)"/>
      <path class="a" d="M161.76,53.71a1.71,1.71,0,1,0-1.71,1.71A1.71,1.71,0,0,0,161.76,53.71Z" transform="translate(-1.16 -5.76)"/>
      <path class="a" d="M197.16,34.6a2.71,2.71,0,1,0-2.71,2.71A2.71,2.71,0,0,0,197.16,34.6Z" transform="translate(-1.16 -5.76)"/>
      <path class="a" d="M146.15,53.71a1.39,1.39,0,1,0-1.39,1.4A1.39,1.39,0,0,0,146.15,53.71Z" transform="translate(-1.16 -5.76)"/>
      <path class="a" d="M138.37,53.71a1.24,1.24,0,0,0-1.25-1.25,1.09,1.09,0,0,0-.26,0,1.25,1.25,0,0,0,0,2.45,1.09,1.09,0,0,0,.26,0,1.24,1.24,0,0,0,1.25-1.26Z" transform="translate(-1.16 -5.76)"/>
      <path class="a" d="M122.67,54.29a1,1,0,0,0,0-1.15,1,1,0,0,0-.84-.45l-.21,0a1,1,0,0,0-.52.28l-.12.15a1,1,0,0,0-.15.37.69.69,0,0,0,0,.2.71.71,0,0,0,0,.21,1,1,0,0,0,.15.37l.12.15a1,1,0,0,0,.52.28l.21,0A1,1,0,0,0,122.67,54.29Z" transform="translate(-1.16 -5.76)"/>
      <path class="a" d="M130.6,53.71a1.13,1.13,0,1,0-1.13,1.14A1.13,1.13,0,0,0,130.6,53.71Z" transform="translate(-1.16 -5.76)"/>
      <path class="a" d="M193.2,38.43A2.58,2.58,0,1,0,190.63,41,2.58,2.58,0,0,0,193.2,38.43Z" transform="translate(-1.16 -5.76)"/>
      <path class="a" d="M103.51,42.25a.8.8,0,0,0-1.59,0,.8.8,0,0,0,1.59,0Z" transform="translate(-1.16 -5.76)"/>
      <path class="a" d="M161.76,38.43a1.71,1.71,0,1,0-1.71,1.7A1.71,1.71,0,0,0,161.76,38.43Z" transform="translate(-1.16 -5.76)"/>
      <path class="a" d="M169.26,39.48a1.9,1.9,0,0,0,0-2.11,1.89,1.89,0,0,0-1.57-.83,2.43,2.43,0,0,0-.38,0,1.85,1.85,0,0,0-.95.52,1.49,1.49,0,0,0-.23.28,1.8,1.8,0,0,0-.29.68,2.33,2.33,0,0,0,0,.38,2.45,2.45,0,0,0,0,.38,1.82,1.82,0,0,0,.29.67,1.23,1.23,0,0,0,.23.28,1.85,1.85,0,0,0,.95.52,2.45,2.45,0,0,0,.38,0A1.87,1.87,0,0,0,169.26,39.48Z" transform="translate(-1.16 -5.76)"/>
      <path class="a" d="M185.3,38.43A2.3,2.3,0,0,0,183,36.11a2.49,2.49,0,0,0-.47,0,2.32,2.32,0,0,0,0,4.55,2.5,2.5,0,0,0,.47,0,2.32,2.32,0,0,0,2.32-2.32Z" transform="translate(-1.16 -5.76)"/>
      <path class="a" d="M88.07,42.25a.65.65,0,1,0-.64.64A.65.65,0,0,0,88.07,42.25Z" transform="translate(-1.16 -5.76)"/>
      <path class="a" d="M95.78,42.25a.71.71,0,1,0-.71.71A.71.71,0,0,0,95.78,42.25Z" transform="translate(-1.16 -5.76)"/>
      <path class="a" d="M153.68,39.29a1.5,1.5,0,0,0,.26-.86,1.48,1.48,0,0,0-.26-.86,1.52,1.52,0,0,0-1.28-.68,1.63,1.63,0,0,0-.31,0,1.46,1.46,0,0,0-.77.42,1.06,1.06,0,0,0-.19.23,1.5,1.5,0,0,0-.23.55,1.06,1.06,0,0,0,0,.31,1.1,1.1,0,0,0,0,.31,1.57,1.57,0,0,0,.23.55,1.37,1.37,0,0,0,.19.23,1.49,1.49,0,0,0,1.08.45A1.52,1.52,0,0,0,153.68,39.29Z" transform="translate(-1.16 -5.76)"/>
      <path class="a" d="M177.43,38.43a2.1,2.1,0,1,0-2.09,2.09A2.09,2.09,0,0,0,177.43,38.43Z" transform="translate(-1.16 -5.76)"/>
      <path class="a" d="M130.6,38.43a1.13,1.13,0,1,0-1.13,1.13A1.13,1.13,0,0,0,130.6,38.43Z" transform="translate(-1.16 -5.76)"/>
      <path class="a" d="M115.1,38.43a.92.92,0,1,0-.92.92A.93.93,0,0,0,115.1,38.43Z" transform="translate(-1.16 -5.76)"/>
      <path class="a" d="M122.67,39a1,1,0,0,0,.18-.57,1,1,0,0,0-.18-.57,1,1,0,0,0-.84-.45.75.75,0,0,0-.21,0,1.08,1.08,0,0,0-.52.27l-.12.16a.89.89,0,0,0-.15.36.76.76,0,0,0,0,.21.64.64,0,0,0,0,.2A.93.93,0,0,0,121,39l.12.15a1,1,0,0,0,.52.28l.21,0A1,1,0,0,0,122.67,39Z" transform="translate(-1.16 -5.76)"/>
      <path class="a" d="M138.37,38.43a1.24,1.24,0,0,0-.55-1,1.21,1.21,0,0,0-.7-.22,1.09,1.09,0,0,0-.26,0,1.25,1.25,0,0,0-1,1.23,1.26,1.26,0,0,0,1,1.23l.26,0a1.24,1.24,0,0,0,1.25-1.25Z" transform="translate(-1.16 -5.76)"/>
      <path class="a" d="M91.93,38.43a.7.7,0,0,0-.3-.57.7.7,0,0,0-.38-.11h-.14a.69.69,0,0,0-.54.67.68.68,0,0,0,.54.66h.14a.7.7,0,0,0,.38-.11A.68.68,0,0,0,91.93,38.43Z" transform="translate(-1.16 -5.76)"/>
      <path class="a" d="M146.15,38.43a1.39,1.39,0,1,0-1.39,1.39A1.39,1.39,0,0,0,146.15,38.43Z" transform="translate(-1.16 -5.76)"/>
      <path class="a" d="M99.64,38.43a.75.75,0,1,0-1.5,0,.75.75,0,0,0,1.5,0Z" transform="translate(-1.16 -5.76)"/>
      <path class="a" d="M107.23,38.89a.81.81,0,0,0,.14-.46.82.82,0,0,0-.14-.47.83.83,0,0,0-.69-.37l-.17,0a.83.83,0,0,0-.42.23l-.1.12a.81.81,0,0,0-.13.3.91.91,0,0,0,0,.17.86.86,0,0,0,0,.16.81.81,0,0,0,.13.3.64.64,0,0,0,.1.13.81.81,0,0,0,.42.22l.17,0A.83.83,0,0,0,107.23,38.89Z" transform="translate(-1.16 -5.76)"/>
      <path class="a" d="M111.24,42.25a.88.88,0,1,0-.88.87A.88.88,0,0,0,111.24,42.25Z" transform="translate(-1.16 -5.76)"/>
      <path class="a" d="M115,46.43a.86.86,0,0,0,.07-.36.92.92,0,0,0-1.84,0,1,1,0,0,0,.07.36,1,1,0,0,0,.2.29.91.91,0,0,0,.65.27.88.88,0,0,0,.65-.27A.72.72,0,0,0,115,46.43Z" transform="translate(-1.16 -5.76)"/>
      <path class="a" d="M122.67,46.64a1,1,0,0,0,.1-.17,1.06,1.06,0,0,0,.08-.4,1,1,0,0,0-1-1l-.21,0a1,1,0,0,0-.52.28,1,1,0,0,0-.12.15,1,1,0,0,0-.15.36.75.75,0,0,0,0,.42,1.33,1.33,0,0,0,0,.19,1,1,0,0,0,.1.17,1,1,0,0,0,.12.15,1,1,0,0,0,.52.28.75.75,0,0,0,.21,0,1,1,0,0,0,.72-.3A.44.44,0,0,0,122.67,46.64Z" transform="translate(-1.16 -5.76)"/>
      <path class="a" d="M99.59,46.36a.93.93,0,0,0,0-.29.75.75,0,0,0-1.5,0,.72.72,0,0,0,.06.29.78.78,0,0,0,.16.24.75.75,0,0,0,.53.22.72.72,0,0,0,.53-.22A.81.81,0,0,0,99.59,46.36Z" transform="translate(-1.16 -5.76)"/>
      <path class="a" d="M91.73,46.55a.55.55,0,0,0,.14-.22.58.58,0,0,0,.06-.26.68.68,0,0,0-.3-.56.71.71,0,0,0-.38-.12l-.14,0a.67.67,0,0,0-.54.66.75.75,0,0,0,.05.26.72.72,0,0,0,.49.41h.14a.64.64,0,0,0,.38-.12Z" transform="translate(-1.16 -5.76)"/>
      <path class="a" d="M130.51,46.51a1,1,0,0,0,.09-.44,1.13,1.13,0,1,0-2.26,0,1,1,0,0,0,.09.44,1,1,0,0,0,.24.36,1.13,1.13,0,0,0,1.6,0A1,1,0,0,0,130.51,46.51Z" transform="translate(-1.16 -5.76)"/>
      <path class="a" d="M84.17,46.31a.6.6,0,0,0,0-.24.62.62,0,0,0-1.23,0,.6.6,0,0,0,.05.24.64.64,0,0,0,.13.19.62.62,0,0,0,.87,0A.64.64,0,0,0,84.17,46.31Z" transform="translate(-1.16 -5.76)"/>
      <path class="a" d="M177.27,46.89a2.26,2.26,0,0,0,.16-.82,2.1,2.1,0,1,0-4,.82,2,2,0,0,0,.45.66,2.08,2.08,0,0,0,3,0A2.15,2.15,0,0,0,177.27,46.89Z" transform="translate(-1.16 -5.76)"/>
      <path class="a" d="M169.26,47.13a1.73,1.73,0,0,0,.32-1.06,1.84,1.84,0,0,0-.32-1.06,1.89,1.89,0,0,0-1.57-.83,1.64,1.64,0,0,0-.38,0,1.84,1.84,0,0,0-.95.51,1.49,1.49,0,0,0-.23.28,1.8,1.8,0,0,0-.29.68,1.82,1.82,0,0,0,0,.76,2.47,2.47,0,0,0,.11.36,2,2,0,0,0,.18.32,1.49,1.49,0,0,0,.23.28,1.84,1.84,0,0,0,.95.51,1.64,1.64,0,0,0,.38,0,1.88,1.88,0,0,0,1.34-.55A2,2,0,0,0,169.26,47.13Z" transform="translate(-1.16 -5.76)"/>
      <path class="a" d="M184.62,47.71a2.36,2.36,0,0,0,.5-.74,2.23,2.23,0,0,0,.18-.9,2.29,2.29,0,0,0-1-1.92,2.25,2.25,0,0,0-1.3-.4,1.88,1.88,0,0,0-.47,0,2.32,2.32,0,0,0-1.85,2.27,2.41,2.41,0,0,0,.18.9,2.36,2.36,0,0,0,1.67,1.38,2.49,2.49,0,0,0,.47,0,2.32,2.32,0,0,0,1.3-.39A2.37,2.37,0,0,0,184.62,47.71Z" transform="translate(-1.16 -5.76)"/>
      <path class="a" d="M138,47a1.18,1.18,0,0,0,.27-.4,1.16,1.16,0,0,0,.1-.49,1.27,1.27,0,0,0-.55-1,1.2,1.2,0,0,0-.7-.21,1.1,1.1,0,0,0-.26,0,1.26,1.26,0,0,0-1,1.23,1.34,1.34,0,0,0,.1.49,1.18,1.18,0,0,0,.27.4,1.26,1.26,0,0,0,.63.34,1.09,1.09,0,0,0,.26,0,1.21,1.21,0,0,0,.7-.22Z" transform="translate(-1.16 -5.76)"/>
      <path class="a" d="M161.62,46.73a1.59,1.59,0,0,0,.14-.66,1.71,1.71,0,1,0-3.42,0,1.59,1.59,0,0,0,.14.66,1.69,1.69,0,0,0,3.14,0Z" transform="translate(-1.16 -5.76)"/>
      <path class="a" d="M146,46.61a1.37,1.37,0,0,0,.11-.54,1.39,1.39,0,0,0-2.78,0,1.37,1.37,0,0,0,.11.54,1.23,1.23,0,0,0,.3.44,1.38,1.38,0,0,0,2,0A1.23,1.23,0,0,0,146,46.61Z" transform="translate(-1.16 -5.76)"/>
      <path class="a" d="M153.68,46.93a1.3,1.3,0,0,0,.14-.26,1.56,1.56,0,0,0-.14-1.46,1.52,1.52,0,0,0-1.28-.68,1.63,1.63,0,0,0-.31,0,1.46,1.46,0,0,0-.77.42,1.37,1.37,0,0,0-.19.23,1.5,1.5,0,0,0-.23.55,1.22,1.22,0,0,0,0,.62,2.45,2.45,0,0,0,.08.29,1.35,1.35,0,0,0,.15.26,1.37,1.37,0,0,0,.19.23,1.46,1.46,0,0,0,.77.42,1.63,1.63,0,0,0,.31,0,1.51,1.51,0,0,0,1.09-.45A1.37,1.37,0,0,0,153.68,46.93Z" transform="translate(-1.16 -5.76)"/>
      <path class="a" d="M107.23,46.54a1,1,0,0,0,.07-.15.68.68,0,0,0,.07-.32.83.83,0,0,0-.83-.83.47.47,0,0,0-.17,0,.81.81,0,0,0-.42.22.64.64,0,0,0-.1.13.7.7,0,0,0-.13.29,1.45,1.45,0,0,0,0,.34.88.88,0,0,0,0,.15,1.09,1.09,0,0,0,.08.15l.1.12a.91.91,0,0,0,.42.23h.17a.83.83,0,0,0,.59-.24Z" transform="translate(-1.16 -5.76)"/>
      <path class="a" d="M150.05,42.25a1.47,1.47,0,1,0-2.93,0,1.47,1.47,0,0,0,2.93,0Z" transform="translate(-1.16 -5.76)"/>
      <path class="a" d="M157.85,42.25a1.63,1.63,0,1,0-1.62,1.62A1.62,1.62,0,0,0,157.85,42.25Z" transform="translate(-1.16 -5.76)"/>
      <path class="a" d="M173.51,42.25a2,2,0,1,0-2,2A2,2,0,0,0,173.51,42.25Z" transform="translate(-1.16 -5.76)"/>
      <path class="a" d="M142.26,42.25a1.32,1.32,0,1,0-1.32,1.32A1.32,1.32,0,0,0,142.26,42.25Z" transform="translate(-1.16 -5.76)"/>
      <path class="a" d="M119,42.25a1,1,0,1,0-1,1A1,1,0,0,0,119,42.25Z" transform="translate(-1.16 -5.76)"/>
      <path class="a" d="M126.72,42.25a1.08,1.08,0,1,0-1.07,1.07A1.07,1.07,0,0,0,126.72,42.25Z" transform="translate(-1.16 -5.76)"/>
      <path class="a" d="M165.67,11.67a1.8,1.8,0,1,0-1.8,1.8A1.8,1.8,0,0,0,165.67,11.67Z" transform="translate(-1.16 -5.76)"/>
      <path class="a" d="M165.67,42.25a1.8,1.8,0,1,0-1.8,1.79A1.81,1.81,0,0,0,165.67,42.25Z" transform="translate(-1.16 -5.76)"/>
      <path class="a" d="M189.25,42.25a2.45,2.45,0,1,0-2.45,2.44A2.45,2.45,0,0,0,189.25,42.25Z" transform="translate(-1.16 -5.76)"/>
      <path class="a" d="M181.37,42.25a2.21,2.21,0,1,0-2.21,2.2A2.21,2.21,0,0,0,181.37,42.25Z" transform="translate(-1.16 -5.76)"/>
      <path class="a" d="M157.85,11.67a1.63,1.63,0,1,0-1.62,1.62A1.63,1.63,0,0,0,157.85,11.67Z" transform="translate(-1.16 -5.76)"/>
      <path class="a" d="M88.07,11.67a.65.65,0,1,0-.64.65A.64.64,0,0,0,88.07,11.67Z" transform="translate(-1.16 -5.76)"/>
      <path class="a" d="M80.36,11.67a.58.58,0,1,0-.58.58A.58.58,0,0,0,80.36,11.67Z" transform="translate(-1.16 -5.76)"/>
      <path class="a" d="M119,11.67a1,1,0,1,0-1,1A1,1,0,0,0,119,11.67Z" transform="translate(-1.16 -5.76)"/>
      <path class="a" d="M134.49,11.67a1.2,1.2,0,1,0-1.2,1.19A1.19,1.19,0,0,0,134.49,11.67Z" transform="translate(-1.16 -5.76)"/>
      <path class="a" d="M142.26,11.67A1.32,1.32,0,1,0,140.94,13,1.32,1.32,0,0,0,142.26,11.67Z" transform="translate(-1.16 -5.76)"/>
      <path class="a" d="M150.05,11.67a1.47,1.47,0,1,0-1.47,1.47A1.46,1.46,0,0,0,150.05,11.67Z" transform="translate(-1.16 -5.76)"/>
      <path class="a" d="M126.72,11.67a1.08,1.08,0,1,0-1.07,1.08A1.07,1.07,0,0,0,126.72,11.67Z" transform="translate(-1.16 -5.76)"/>
      <path class="a" d="M103.51,11.67a.8.8,0,1,0-.79.79A.79.79,0,0,0,103.51,11.67Z" transform="translate(-1.16 -5.76)"/>
      <path class="a" d="M95.78,11.67a.71.71,0,1,0-1.42,0,.71.71,0,1,0,1.42,0Z" transform="translate(-1.16 -5.76)"/>
      <path class="a" d="M111.24,11.67a.88.88,0,1,0-.88.88A.88.88,0,0,0,111.24,11.67Z" transform="translate(-1.16 -5.76)"/>
      <path class="a" d="M130.6,7.85A1.13,1.13,0,1,0,129.47,9,1.13,1.13,0,0,0,130.6,7.85Z" transform="translate(-1.16 -5.76)"/>
      <path class="a" d="M99.64,7.85a.75.75,0,1,0-.75.75A.75.75,0,0,0,99.64,7.85Z" transform="translate(-1.16 -5.76)"/>
      <path class="a" d="M115.1,7.85a.92.92,0,1,0-.92.92A.92.92,0,0,0,115.1,7.85Z" transform="translate(-1.16 -5.76)"/>
      <path class="a" d="M122.67,8.42a1,1,0,0,0-.84-1.59l-.21,0a1,1,0,0,0-.52.28,1,1,0,0,0-.12.15,1,1,0,0,0-.15.36.75.75,0,0,0,0,.42,1,1,0,0,0,.15.36,1,1,0,0,0,.12.15,1,1,0,0,0,.52.28.75.75,0,0,0,.21,0A1,1,0,0,0,122.67,8.42Z" transform="translate(-1.16 -5.76)"/>
      <path class="a" d="M107.23,8.32a.86.86,0,0,0,.14-.47.83.83,0,0,0-.83-.83.47.47,0,0,0-.17,0,.81.81,0,0,0-.42.22.64.64,0,0,0-.1.13.7.7,0,0,0-.13.29,1.45,1.45,0,0,0,0,.34.81.81,0,0,0,.13.3l.1.12a.91.91,0,0,0,.42.23h.17A.83.83,0,0,0,107.23,8.32Z" transform="translate(-1.16 -5.76)"/>
      <path class="a" d="M91.93,7.85a.68.68,0,0,0-.3-.56.71.71,0,0,0-.38-.12l-.14,0a.67.67,0,0,0,0,1.32l.14,0a.64.64,0,0,0,.38-.12A.68.68,0,0,0,91.93,7.85Z" transform="translate(-1.16 -5.76)"/>
      <path class="a" d="M76.42,8.16a.58.58,0,0,0,0-.62A.57.57,0,0,0,76,7.3h-.11a.55.55,0,0,0-.28.15l-.07.08a.5.5,0,0,0-.08.2.41.41,0,0,0,0,.11.37.37,0,0,0,0,.11.5.5,0,0,0,.08.2.27.27,0,0,0,.07.08.48.48,0,0,0,.28.15H76A.55.55,0,0,0,76.42,8.16Z" transform="translate(-1.16 -5.76)"/>
      <path class="a" d="M76.42,54a.52.52,0,0,0,.09-.31.51.51,0,0,0-.09-.3.56.56,0,0,0-.46-.25h-.11a.63.63,0,0,0-.28.15l-.07.09a.46.46,0,0,0-.08.19.45.45,0,0,0,0,.11.49.49,0,0,0,0,.12.46.46,0,0,0,.08.19l.07.09a.63.63,0,0,0,.28.15H76A.56.56,0,0,0,76.42,54Z" transform="translate(-1.16 -5.76)"/>
      <path class="a" d="M84.22,7.85a.62.62,0,1,0-.62.61A.61.61,0,0,0,84.22,7.85Z" transform="translate(-1.16 -5.76)"/>
      <path class="a" d="M169.26,8.91a1.84,1.84,0,0,0,.32-1.06,1.86,1.86,0,0,0-.32-1.06A1.89,1.89,0,0,0,167.69,6a1.64,1.64,0,0,0-.38,0,1.84,1.84,0,0,0-.95.51,1.49,1.49,0,0,0-.23.28,1.8,1.8,0,0,0-.29.68,2.33,2.33,0,0,0,0,.38,2.33,2.33,0,0,0,0,.38,1.8,1.8,0,0,0,.29.68,1.49,1.49,0,0,0,.23.28,1.84,1.84,0,0,0,.95.51,1.64,1.64,0,0,0,.38,0A1.89,1.89,0,0,0,169.26,8.91Z" transform="translate(-1.16 -5.76)"/>
      <path class="a" d="M138.37,7.85a1.24,1.24,0,0,0-1.25-1.25,1.1,1.1,0,0,0-.26,0,1.26,1.26,0,0,0,0,2.46,1.09,1.09,0,0,0,.26,0,1.21,1.21,0,0,0,.7-.22A1.26,1.26,0,0,0,138.37,7.85Z" transform="translate(-1.16 -5.76)"/>
      <path class="a" d="M177.43,7.85a2.1,2.1,0,1,0-2.09,2.1A2.08,2.08,0,0,0,177.43,7.85Z" transform="translate(-1.16 -5.76)"/>
      <path class="a" d="M161.76,7.85a1.71,1.71,0,1,0-1.71,1.71A1.72,1.72,0,0,0,161.76,7.85Z" transform="translate(-1.16 -5.76)"/>
      <path class="a" d="M146.15,7.85a1.39,1.39,0,1,0-1.39,1.39A1.39,1.39,0,0,0,146.15,7.85Z" transform="translate(-1.16 -5.76)"/>
      <path class="a" d="M153.68,8.71a1.48,1.48,0,0,0,.26-.86,1.5,1.5,0,0,0-.26-.86,1.52,1.52,0,0,0-1.28-.68,1.63,1.63,0,0,0-.31,0,1.46,1.46,0,0,0-.77.42,1.37,1.37,0,0,0-.19.23,1.5,1.5,0,0,0-.23.55,1.22,1.22,0,0,0,0,.62,1.5,1.5,0,0,0,.23.55,1.37,1.37,0,0,0,.19.23,1.46,1.46,0,0,0,.77.42,1.63,1.63,0,0,0,.31,0A1.52,1.52,0,0,0,153.68,8.71Z" transform="translate(-1.16 -5.76)"/>
    </g>
    <g>
      <path class="b" d="M1.16,8.27V7H29V8.27H16.72V45l-2.56,0V8.27Z" transform="translate(-1.16 -5.76)"/>
      <path class="b" d="M32.51,36.83c0-3,1.16-4.61,3.36-4.76H47.19l-.06-3.87c-.05-2.12-.58-3.45-3.07-3.45H38.14c-2.5,0-3.08,1.33-3.08,3.45H32.51c0-3,1.16-4.61,3.36-4.77H46.32c2.21.16,3.37,1.75,3.37,4.77V45.05H35.87c-2.2-.16-3.36-1.75-3.36-4.77Zm2.55,3.45c0,2.12.58,3.44,3.08,3.44h5.92c2.49,0,3.07-1.32,3.07-3.44V33.39h-9c-2.5,0-3.08,1.32-3.08,3.44Z" transform="translate(-1.16 -5.76)"/>
      <path class="b" d="M54.33,23.64h2.56v.9l11.26-1.06c2.2-.26,3.37,1.75,3.37,4.77v12c0,3-1.17,5-3.37,4.77L56.77,43.94l.06,11.92H54.39Zm2.56,19,9,.53c2.49.32,3.07-.79,3.07-2.91v-12c0-2.12-.58-3.23-3.07-2.92l-9,.54Z" transform="translate(-1.16 -5.76)"/>
    </g>
  </g>
</svg>
