<svg xmlns="http://www.w3.org/2000/svg" viewBox="0 0 197.49 54.54">
  <defs>
    <style>
      .a {
        fill: #6f7479;
      }

      .b {
        fill: #98979a;
      }
    </style>
  </defs>
  <g>
    <g>
      <path class="a" d="M27.47,30.17a2,2,0,1,0,2-2A2,2,0,0,0,27.47,30.17Z" transform="translate(0 -1.32)"/>
      <path class="a" d="M11.73,30.17a2.45,2.45,0,1,0,2.44-2.44A2.44,2.44,0,0,0,11.73,30.17Z" transform="translate(0 -1.32)"/>
      <path class="a" d="M19.61,30.17A2.21,2.21,0,1,0,21.82,28,2.21,2.21,0,0,0,19.61,30.17Z" transform="translate(0 -1.32)"/>
      <path class="a" d="M3.82,30.17a2.71,2.71,0,1,0,2.71-2.71A2.71,2.71,0,0,0,3.82,30.17Z" transform="translate(0 -1.32)"/>
      <path class="a" d="M50.93,30.17a1.47,1.47,0,1,0,1.47-1.46A1.46,1.46,0,0,0,50.93,30.17Z" transform="translate(0 -1.32)"/>
      <path class="a" d="M35.31,30.17a1.8,1.8,0,1,0,1.8-1.8A1.81,1.81,0,0,0,35.31,30.17Z" transform="translate(0 -1.32)"/>
      <path class="a" d="M58.72,30.17A1.32,1.32,0,1,0,60,28.85,1.32,1.32,0,0,0,58.72,30.17Z" transform="translate(0 -1.32)"/>
      <path class="a" d="M43.13,30.17a1.62,1.62,0,1,0,1.62-1.62A1.62,1.62,0,0,0,43.13,30.17Z" transform="translate(0 -1.32)"/>
      <path class="a" d="M23.55,34a2.1,2.1,0,1,0,2.09-2.09A2.09,2.09,0,0,0,23.55,34Z" transform="translate(0 -1.32)"/>
      <path class="a" d="M66.49,30.17A1.2,1.2,0,1,0,67.69,29,1.19,1.19,0,0,0,66.49,30.17Z" transform="translate(0 -1.32)"/>
      <path class="a" d="M7.78,34a2.58,2.58,0,1,0,2.57-2.57A2.57,2.57,0,0,0,7.78,34Z" transform="translate(0 -1.32)"/>
      <path class="a" d="M15.68,34A2.3,2.3,0,0,0,18,36.31a2.49,2.49,0,0,0,.47,0,2.32,2.32,0,0,0,0-4.55,2.5,2.5,0,0,0-.47,0,2.32,2.32,0,0,0-1.3.4A2.29,2.29,0,0,0,15.68,34Z" transform="translate(0 -1.32)"/>
      <path class="a" d="M97.47,30.17a.79.79,0,1,0,.79-.79A.79.79,0,0,0,97.47,30.17Z" transform="translate(0 -1.32)"/>
      <path class="a" d="M89.74,30.17a.88.88,0,1,0,.88-.88A.89.89,0,0,0,89.74,30.17Z" transform="translate(0 -1.32)"/>
      <path class="a" d="M82,30.17a1,1,0,1,0,1-1A1,1,0,0,0,82,30.17Z" transform="translate(0 -1.32)"/>
      <path class="a" d="M105.19,30.17a.72.72,0,1,0,.72-.71A.71.71,0,0,0,105.19,30.17Z" transform="translate(0 -1.32)"/>
      <path class="a" d="M74.25,30.17a1.08,1.08,0,1,0,1.08-1.08A1.09,1.09,0,0,0,74.25,30.17Z" transform="translate(0 -1.32)"/>
      <path class="a" d="M97.47,22.53a.79.79,0,1,0,.79-.8A.8.8,0,0,0,97.47,22.53Z" transform="translate(0 -1.32)"/>
      <path class="a" d="M105.19,22.53a.72.72,0,1,0,.72-.72A.71.71,0,0,0,105.19,22.53Z" transform="translate(0 -1.32)"/>
      <path class="a" d="M89.74,22.53a.88.88,0,1,0,.88-.88A.88.88,0,0,0,89.74,22.53Z" transform="translate(0 -1.32)"/>
      <path class="a" d="M82,22.53a1,1,0,1,0,1-1A1,1,0,0,0,82,22.53Z" transform="translate(0 -1.32)"/>
      <path class="a" d="M35.31,22.53a1.8,1.8,0,1,0,1.8-1.8A1.8,1.8,0,0,0,35.31,22.53Z" transform="translate(0 -1.32)"/>
      <path class="a" d="M74.25,22.53a1.08,1.08,0,1,0,1.08-1.08A1.08,1.08,0,0,0,74.25,22.53Z" transform="translate(0 -1.32)"/>
      <path class="a" d="M43.13,22.53a1.62,1.62,0,1,0,1.62-1.63A1.63,1.63,0,0,0,43.13,22.53Z" transform="translate(0 -1.32)"/>
      <path class="a" d="M19.61,22.53a2.21,2.21,0,1,0,2.21-2.21A2.21,2.21,0,0,0,19.61,22.53Z" transform="translate(0 -1.32)"/>
      <path class="a" d="M27.47,22.53a2,2,0,1,0,2-2A2,2,0,0,0,27.47,22.53Z" transform="translate(0 -1.32)"/>
      <path class="a" d="M66.49,22.53a1.2,1.2,0,1,0,1.2-1.2A1.2,1.2,0,0,0,66.49,22.53Z" transform="translate(0 -1.32)"/>
      <path class="a" d="M50.93,22.53a1.47,1.47,0,1,0,1.47-1.47A1.47,1.47,0,0,0,50.93,22.53Z" transform="translate(0 -1.32)"/>
      <path class="a" d="M58.72,22.53A1.32,1.32,0,1,0,60,21.2,1.33,1.33,0,0,0,58.72,22.53Z" transform="translate(0 -1.32)"/>
      <path class="a" d="M54.94,25.81a1.37,1.37,0,0,0-.11.54,1.39,1.39,0,1,0,2.78,0,1.39,1.39,0,0,0-2.67-.54Z" transform="translate(0 -1.32)"/>
      <path class="a" d="M70.46,25.91a1.23,1.23,0,0,0-.08.44,1.13,1.13,0,0,0,2.26,0,1,1,0,0,0-.09-.44,1.14,1.14,0,0,0-1-.7,1.11,1.11,0,0,0-.8.34A1.16,1.16,0,0,0,70.46,25.91Z" transform="translate(0 -1.32)"/>
      <path class="a" d="M63,25.46a1.09,1.09,0,0,0-.27.4,1.13,1.13,0,0,0-.1.49,1.24,1.24,0,0,0,1.25,1.25l.26,0a1.26,1.26,0,0,0,1-1.23,1.3,1.3,0,0,0-.1-.49,1.23,1.23,0,0,0-.27-.4,1.26,1.26,0,0,0-.63-.34,1.09,1.09,0,0,0-.26,0,1.21,1.21,0,0,0-.7.22A.84.84,0,0,0,63,25.46Z" transform="translate(0 -1.32)"/>
      <path class="a" d="M47.3,25.49a.94.94,0,0,0-.14.26,1.48,1.48,0,0,0,.14,1.46,1.52,1.52,0,0,0,1.28.68,1.63,1.63,0,0,0,.31,0,1.53,1.53,0,0,0,.77-.42,1.37,1.37,0,0,0,.19-.23,1.57,1.57,0,0,0,.23-.55,1.65,1.65,0,0,0,0-.31,1.55,1.55,0,0,0,0-.31,1.4,1.4,0,0,0-.09-.29.94.94,0,0,0-.14-.26,1.06,1.06,0,0,0-.19-.23,1.46,1.46,0,0,0-.77-.42,1.63,1.63,0,0,0-.31,0,1.51,1.51,0,0,0-1.09.45A1.06,1.06,0,0,0,47.3,25.49Z" transform="translate(0 -1.32)"/>
      <path class="a" d="M93.75,25.88l-.08.14a.88.88,0,0,0-.06.33.81.81,0,0,0,.14.46.83.83,0,0,0,.69.37l.17,0a.81.81,0,0,0,.42-.22.64.64,0,0,0,.1-.13.84.84,0,0,0,.13-.29,1,1,0,0,0,0-.17.91.91,0,0,0,0-.17,1,1,0,0,0-.05-.16,1,1,0,0,0-.08-.14l-.1-.12a.91.91,0,0,0-.42-.23l-.17,0a.84.84,0,0,0-.59.25Z" transform="translate(0 -1.32)"/>
      <path class="a" d="M101.39,26.06a.88.88,0,0,0-.06.29.76.76,0,0,0,1.51,0,.68.68,0,0,0-.06-.29.67.67,0,0,0-.16-.24.75.75,0,0,0-.53-.22.72.72,0,0,0-.53.22A.7.7,0,0,0,101.39,26.06Z" transform="translate(0 -1.32)"/>
      <path class="a" d="M39.36,25.68a1.67,1.67,0,0,0-.14.67,1.71,1.71,0,0,0,3.42,0,1.67,1.67,0,0,0-.14-.67,1.76,1.76,0,0,0-.36-.54,1.71,1.71,0,0,0-2.42,0A1.76,1.76,0,0,0,39.36,25.68Z" transform="translate(0 -1.32)"/>
      <path class="a" d="M86,26a.86.86,0,0,0-.08.36.93.93,0,0,0,1.85,0,1,1,0,0,0-.07-.36,1,1,0,0,0-.2-.29.92.92,0,0,0-.65-.28.89.89,0,0,0-.65.28A.72.72,0,0,0,86,26Z" transform="translate(0 -1.32)"/>
      <path class="a" d="M78.31,25.78a1,1,0,0,0-.1.17,1.06,1.06,0,0,0-.08.4,1,1,0,0,0,1,1l.21,0a1,1,0,0,0,.52-.28l.12-.15a.93.93,0,0,0,.15-.37.65.65,0,0,0,0-.2.75.75,0,0,0,0-.21.7.7,0,0,0-.06-.19.56.56,0,0,0-.09-.17l-.12-.16a1.08,1.08,0,0,0-.52-.27.75.75,0,0,0-.21,0,1,1,0,0,0-.72.29A.61.61,0,0,0,78.31,25.78Z" transform="translate(0 -1.32)"/>
      <path class="a" d="M.21,25.29A2.86,2.86,0,0,0,0,26.35a2.71,2.71,0,0,0,5.42,0,2.68,2.68,0,0,0-.22-1.06,2.61,2.61,0,0,0-.58-.86,2.72,2.72,0,0,0-3.83,0A3,3,0,0,0,.21,25.29Z" transform="translate(0 -1.32)"/>
      <path class="a" d="M31.72,25.29a1.81,1.81,0,0,0-.33,1.06,1.82,1.82,0,0,0,.33,1,1.87,1.87,0,0,0,1.57.84,1.64,1.64,0,0,0,.38,0,1.85,1.85,0,0,0,.95-.52,1,1,0,0,0,.23-.28,1.75,1.75,0,0,0,.29-.67,1.83,1.83,0,0,0,0-.76,1.89,1.89,0,0,0-.11-.36,2,2,0,0,0-.18-.32,1.49,1.49,0,0,0-.23-.28,1.85,1.85,0,0,0-.95-.52,2.43,2.43,0,0,0-.38,0A1.88,1.88,0,0,0,32,25,2,2,0,0,0,31.72,25.29Z" transform="translate(0 -1.32)"/>
      <path class="a" d="M8,25.35a2.51,2.51,0,0,0-.2,1,2.58,2.58,0,0,0,5.15,0,2.52,2.52,0,0,0-.21-1,2.42,2.42,0,0,0-.55-.82A2.57,2.57,0,0,0,8,25.35Z" transform="translate(0 -1.32)"/>
      <path class="a" d="M23.71,25.53a2,2,0,0,0-.16.82,2.1,2.1,0,0,0,4.19,0,2,2,0,0,0-.17-.82,2,2,0,0,0-.45-.66,2.08,2.08,0,0,0-3,0A2.15,2.15,0,0,0,23.71,25.53Z" transform="translate(0 -1.32)"/>
      <path class="a" d="M11.73,22.53a2.45,2.45,0,1,0,2.44-2.45A2.44,2.44,0,0,0,11.73,22.53Z" transform="translate(0 -1.32)"/>
      <path class="a" d="M16.35,24.71a2.23,2.23,0,0,0-.49.73A2.33,2.33,0,0,0,18,28.67a2.5,2.5,0,0,0,.47-.05,2.32,2.32,0,0,0,1.85-2.27,2.5,2.5,0,0,0-.18-.91,2.43,2.43,0,0,0-.5-.73,2.37,2.37,0,0,0-1.17-.64A2.49,2.49,0,0,0,18,24a2.32,2.32,0,0,0-1.3.39A2.45,2.45,0,0,0,16.35,24.71Z" transform="translate(0 -1.32)"/>
      <path class="a" d="M31.72,40.58a1.82,1.82,0,0,0-.29.67,2.58,2.58,0,0,0,0,.39,1.82,1.82,0,0,0,.33,1,1.87,1.87,0,0,0,1.57.84,2.45,2.45,0,0,0,.38,0,1.85,1.85,0,0,0,.95-.52,1.23,1.23,0,0,0,.23-.28,1.82,1.82,0,0,0,.29-.67,2.45,2.45,0,0,0,0-.38,2.58,2.58,0,0,0,0-.39,1.82,1.82,0,0,0-.29-.67,1.23,1.23,0,0,0-.23-.28,1.85,1.85,0,0,0-.95-.52,2.45,2.45,0,0,0-.38,0A1.9,1.9,0,0,0,31.72,40.58Z" transform="translate(0 -1.32)"/>
      <path class="a" d="M23.59,41.21a2,2,0,0,0,0,.43,2.1,2.1,0,0,0,4.19,0,3,3,0,0,0,0-.43,2.1,2.1,0,0,0-4.11,0Z" transform="translate(0 -1.32)"/>
      <path class="a" d="M39.26,41.29a2,2,0,0,0,0,.35,1.71,1.71,0,0,0,3.42,0,1.34,1.34,0,0,0,0-.35,1.71,1.71,0,0,0-3.34,0Z" transform="translate(0 -1.32)"/>
      <path class="a" d="M15.72,41.17a2.42,2.42,0,0,0,0,.47A2.32,2.32,0,0,0,18,44a2.5,2.5,0,0,0,.47-.05,2.33,2.33,0,0,0,1.85-2.27,2.42,2.42,0,0,0-.05-.47,2.32,2.32,0,0,0-1.8-1.81,2.5,2.5,0,0,0-.47,0,2.34,2.34,0,0,0-2.28,1.86Z" transform="translate(0 -1.32)"/>
      <path class="a" d="M47.3,40.77a1.52,1.52,0,0,0,0,1.73,1.52,1.52,0,0,0,1.28.68,1.1,1.1,0,0,0,.31,0,1.46,1.46,0,0,0,.77-.42,1,1,0,0,0,.19-.22,1.57,1.57,0,0,0,.23-.55,1.65,1.65,0,0,0,0-.31,1.76,1.76,0,0,0-.27-.87,1.3,1.3,0,0,0-.19-.22,1.46,1.46,0,0,0-.77-.42,1.65,1.65,0,0,0-.31,0A1.52,1.52,0,0,0,47.3,40.77Z" transform="translate(0 -1.32)"/>
      <path class="a" d="M70.4,41.41a.86.86,0,0,0,0,.23,1.13,1.13,0,1,0,2.26,0,1.64,1.64,0,0,0,0-.23,1.13,1.13,0,0,0-2.22,0Z" transform="translate(0 -1.32)"/>
      <path class="a" d="M62.63,41.38a2.11,2.11,0,0,0,0,.26,1.24,1.24,0,0,0,1.25,1.25,1.09,1.09,0,0,0,.26,0,1.24,1.24,0,0,0,1-1.22,1.09,1.09,0,0,0,0-.26,1.24,1.24,0,0,0-1-1,1.09,1.09,0,0,0-.26,0,1.21,1.21,0,0,0-.7.22A1.3,1.3,0,0,0,62.63,41.38Z" transform="translate(0 -1.32)"/>
      <path class="a" d="M54.86,41.36a1.27,1.27,0,0,0,0,.28,1.39,1.39,0,0,0,2.78,0,1.27,1.27,0,0,0,0-.28,1.39,1.39,0,0,0-2.72,0Z" transform="translate(0 -1.32)"/>
      <path class="a" d="M78.31,41.06a1,1,0,0,0-.16.37,1.49,1.49,0,0,0,0,.21,1,1,0,0,0,.18.57,1,1,0,0,0,.84.45l.21,0a1,1,0,0,0,.52-.28l.12-.15a1,1,0,0,0,.15-.37.65.65,0,0,0,0-.2.75.75,0,0,0,0-.21,1,1,0,0,0-.15-.37l-.12-.15a1.1,1.1,0,0,0-.52-.28l-.21,0A1,1,0,0,0,78.31,41.06Z" transform="translate(0 -1.32)"/>
      <path class="a" d="M27.47,45.46a2,2,0,1,0,2-2A2,2,0,0,0,27.47,45.46Z" transform="translate(0 -1.32)"/>
      <path class="a" d="M19.61,45.46a2.21,2.21,0,1,0,2.21-2.21A2.2,2.2,0,0,0,19.61,45.46Z" transform="translate(0 -1.32)"/>
      <path class="a" d="M109.07,41.5a.59.59,0,0,0,0,.14.68.68,0,0,0,.3.56.7.7,0,0,0,.38.11h.14a.68.68,0,0,0,.54-.66.59.59,0,0,0,0-.14.67.67,0,0,0-.52-.53h-.14a.7.7,0,0,0-.38.11A.67.67,0,0,0,109.07,41.5Z" transform="translate(0 -1.32)"/>
      <path class="a" d="M101.35,41.48a.78.78,0,0,0,0,.16.76.76,0,0,0,1.51,0,.78.78,0,0,0,0-.16.75.75,0,0,0-1.47,0Z" transform="translate(0 -1.32)"/>
      <path class="a" d="M116.78,41.51a.51.51,0,0,0,0,.13.62.62,0,0,0,1.23,0,.51.51,0,0,0,0-.13.61.61,0,0,0-1.19,0Z" transform="translate(0 -1.32)"/>
      <path class="a" d="M93.75,41.17a.79.79,0,0,0-.12.3.88.88,0,0,0,0,.17.81.81,0,0,0,.14.46.83.83,0,0,0,.69.37l.17,0a.76.76,0,0,0,.42-.23.4.4,0,0,0,.1-.12.81.81,0,0,0,.13-.3.86.86,0,0,0,0-.16.91.91,0,0,0,0-.17.81.81,0,0,0-.13-.3.58.58,0,0,0-.1-.12.76.76,0,0,0-.42-.23l-.17,0A.83.83,0,0,0,93.75,41.17Z" transform="translate(0 -1.32)"/>
      <path class="a" d="M85.89,41.45a1.11,1.11,0,0,0,0,.19.93.93,0,0,0,1.85,0,1.11,1.11,0,0,0,0-.19.92.92,0,0,0-.9-.74A.93.93,0,0,0,85.89,41.45Z" transform="translate(0 -1.32)"/>
      <path class="a" d="M31.72,32.93A1.87,1.87,0,0,0,31.39,34a1.85,1.85,0,0,0,.33,1.06,1.89,1.89,0,0,0,1.57.83,1.64,1.64,0,0,0,.38,0,1.77,1.77,0,0,0,.95-.51,1.49,1.49,0,0,0,.23-.28,1.8,1.8,0,0,0,.29-.68,1.82,1.82,0,0,0,0-.76,1.87,1.87,0,0,0-.29-.68,1.49,1.49,0,0,0-.23-.28,1.84,1.84,0,0,0-.95-.51,1.64,1.64,0,0,0-.38,0A1.89,1.89,0,0,0,31.72,32.93Z" transform="translate(0 -1.32)"/>
      <path class="a" d="M109.05,34a.66.66,0,0,0,.3.56.64.64,0,0,0,.38.12h.14a.69.69,0,0,0,.54-.67.67.67,0,0,0-.54-.66l-.14,0a.71.71,0,0,0-.38.12A.68.68,0,0,0,109.05,34Z" transform="translate(0 -1.32)"/>
      <path class="a" d="M101.33,34a.76.76,0,1,0,.76-.75A.75.75,0,0,0,101.33,34Z" transform="translate(0 -1.32)"/>
      <path class="a" d="M62.61,34a1.26,1.26,0,0,0,.55,1,1.21,1.21,0,0,0,.7.22,1.09,1.09,0,0,0,.26,0,1.26,1.26,0,0,0,0-2.46l-.26,0A1.24,1.24,0,0,0,62.61,34Z" transform="translate(0 -1.32)"/>
      <path class="a" d="M47.3,33.13A1.51,1.51,0,0,0,47,34a1.49,1.49,0,0,0,.27.86,1.52,1.52,0,0,0,1.28.68,1.63,1.63,0,0,0,.31,0,1.46,1.46,0,0,0,.77-.42,1.37,1.37,0,0,0,.19-.23,1.5,1.5,0,0,0,.23-.55,1.55,1.55,0,0,0,0-.31,1.65,1.65,0,0,0,0-.31,1.5,1.5,0,0,0-.23-.55,1.37,1.37,0,0,0-.19-.23,1.46,1.46,0,0,0-.77-.42,1.63,1.63,0,0,0-.31,0A1.52,1.52,0,0,0,47.3,33.13Z" transform="translate(0 -1.32)"/>
      <path class="a" d="M54.83,34a1.39,1.39,0,1,0,1.39-1.39A1.39,1.39,0,0,0,54.83,34Z" transform="translate(0 -1.32)"/>
      <path class="a" d="M39.22,34a1.71,1.71,0,1,0,1.71-1.71A1.72,1.72,0,0,0,39.22,34Z" transform="translate(0 -1.32)"/>
      <path class="a" d="M78.31,33.42A1,1,0,0,0,79.15,35a.75.75,0,0,0,.21,0,1,1,0,0,0,.52-.28,1,1,0,0,0,.12-.15,1,1,0,0,0,.15-.36.75.75,0,0,0,0-.21.65.65,0,0,0,0-.2.93.93,0,0,0-.15-.37c0-.05-.08-.11-.12-.15a1,1,0,0,0-.52-.28l-.21,0A1,1,0,0,0,78.31,33.42Z" transform="translate(0 -1.32)"/>
      <path class="a" d="M85.87,34a.93.93,0,1,0,.93-.92A.93.93,0,0,0,85.87,34Z" transform="translate(0 -1.32)"/>
      <path class="a" d="M70.38,34a1.13,1.13,0,0,0,2.26,0,1.13,1.13,0,1,0-2.26,0Z" transform="translate(0 -1.32)"/>
      <path class="a" d="M93.75,33.53a.81.81,0,0,0-.14.46.86.86,0,0,0,.14.47.83.83,0,0,0,.69.36h.17a.91.91,0,0,0,.42-.23l.1-.12a.81.81,0,0,0,.13-.3,1.45,1.45,0,0,0,0-.34.76.76,0,0,0-.13-.29.64.64,0,0,0-.1-.13.81.81,0,0,0-.42-.22.47.47,0,0,0-.17,0A.81.81,0,0,0,93.75,33.53Z" transform="translate(0 -1.32)"/>
      <path class="a" d="M105.19,37.81a.72.72,0,1,0,.72-.71A.72.72,0,0,0,105.19,37.81Z" transform="translate(0 -1.32)"/>
      <path class="a" d="M58.72,37.81A1.32,1.32,0,1,0,60,36.49,1.32,1.32,0,0,0,58.72,37.81Z" transform="translate(0 -1.32)"/>
      <path class="a" d="M74.25,37.81a1.08,1.08,0,1,0,1.08-1.07A1.08,1.08,0,0,0,74.25,37.81Z" transform="translate(0 -1.32)"/>
      <path class="a" d="M89.74,37.81a.88.88,0,1,0,.88-.87A.88.88,0,0,0,89.74,37.81Z" transform="translate(0 -1.32)"/>
      <path class="a" d="M66.49,37.81a1.2,1.2,0,1,0,1.2-1.19A1.2,1.2,0,0,0,66.49,37.81Z" transform="translate(0 -1.32)"/>
      <path class="a" d="M82,37.81a1,1,0,1,0,1-1A1,1,0,0,0,82,37.81Z" transform="translate(0 -1.32)"/>
      <path class="a" d="M97.47,37.81a.79.79,0,1,0,.79-.79A.79.79,0,0,0,97.47,37.81Z" transform="translate(0 -1.32)"/>
      <path class="a" d="M112.91,37.81a.65.65,0,1,0,.64-.64A.65.65,0,0,0,112.91,37.81Z" transform="translate(0 -1.32)"/>
      <path class="a" d="M50.93,37.81a1.47,1.47,0,1,0,1.47-1.46A1.47,1.47,0,0,0,50.93,37.81Z" transform="translate(0 -1.32)"/>
      <path class="a" d="M11.73,37.81a2.45,2.45,0,1,0,2.44-2.44A2.45,2.45,0,0,0,11.73,37.81Z" transform="translate(0 -1.32)"/>
      <path class="a" d="M19.61,37.81a2.21,2.21,0,1,0,2.21-2.2A2.21,2.21,0,0,0,19.61,37.81Z" transform="translate(0 -1.32)"/>
      <path class="a" d="M43.13,37.81a1.62,1.62,0,1,0,1.62-1.62A1.63,1.63,0,0,0,43.13,37.81Z" transform="translate(0 -1.32)"/>
      <path class="a" d="M27.47,37.81a2,2,0,1,0,2-2A2,2,0,0,0,27.47,37.81Z" transform="translate(0 -1.32)"/>
      <path class="a" d="M35.31,37.81A1.8,1.8,0,1,0,37.11,36,1.8,1.8,0,0,0,35.31,37.81Z" transform="translate(0 -1.32)"/>
      <path class="a" d="M66.49,14.88a1.2,1.2,0,1,0,1.2-1.19A1.19,1.19,0,0,0,66.49,14.88Z" transform="translate(0 -1.32)"/>
      <path class="a" d="M27.47,7.24a2,2,0,1,0,2-2A2,2,0,0,0,27.47,7.24Z" transform="translate(0 -1.32)"/>
      <path class="a" d="M19.61,7.24A2.21,2.21,0,1,0,21.82,5,2.2,2.2,0,0,0,19.61,7.24Z" transform="translate(0 -1.32)"/>
      <path class="a" d="M109.05,3.42a.68.68,0,0,0,.3.56.7.7,0,0,0,.38.11h.14a.68.68,0,0,0,0-1.33h-.14a.7.7,0,0,0-.38.11A.68.68,0,0,0,109.05,3.42Z" transform="translate(0 -1.32)"/>
      <path class="a" d="M116.76,3.41a.62.62,0,1,0,.62-.61A.62.62,0,0,0,116.76,3.41Z" transform="translate(0 -1.32)"/>
      <path class="a" d="M35.31,7.24a1.8,1.8,0,1,0,1.8-1.8A1.8,1.8,0,0,0,35.31,7.24Z" transform="translate(0 -1.32)"/>
      <path class="a" d="M93.75,3a.82.82,0,0,0-.14.47.81.81,0,0,0,.14.46.83.83,0,0,0,.69.37l.17,0A.76.76,0,0,0,95,4a.58.58,0,0,0,.1-.12.81.81,0,0,0,.13-.3.86.86,0,0,0,0-.16.91.91,0,0,0,0-.17.81.81,0,0,0-.13-.3.58.58,0,0,0-.1-.12.76.76,0,0,0-.42-.23l-.17,0A.83.83,0,0,0,93.75,3Z" transform="translate(0 -1.32)"/>
      <path class="a" d="M101.33,3.42a.76.76,0,1,0,.76-.76A.76.76,0,0,0,101.33,3.42Z" transform="translate(0 -1.32)"/>
      <path class="a" d="M105.19,7.24a.72.72,0,1,0,.72-.72A.71.71,0,0,0,105.19,7.24Z" transform="translate(0 -1.32)"/>
      <path class="a" d="M112.91,7.24a.65.65,0,1,0,.64-.65A.64.64,0,0,0,112.91,7.24Z" transform="translate(0 -1.32)"/>
      <path class="a" d="M43.13,7.24a1.62,1.62,0,1,0,1.62-1.63A1.63,1.63,0,0,0,43.13,7.24Z" transform="translate(0 -1.32)"/>
      <path class="a" d="M120.62,7.24a.58.58,0,1,0,.58-.58A.58.58,0,0,0,120.62,7.24Z" transform="translate(0 -1.32)"/>
      <path class="a" d="M58.72,7.24A1.32,1.32,0,1,0,60,5.92,1.32,1.32,0,0,0,58.72,7.24Z" transform="translate(0 -1.32)"/>
      <path class="a" d="M66.49,7.24A1.2,1.2,0,1,0,67.69,6,1.19,1.19,0,0,0,66.49,7.24Z" transform="translate(0 -1.32)"/>
      <path class="a" d="M74.25,7.24a1.08,1.08,0,1,0,1.08-1.08A1.08,1.08,0,0,0,74.25,7.24Z" transform="translate(0 -1.32)"/>
      <path class="a" d="M85.87,3.42a.93.93,0,1,0,.93-.93A.93.93,0,0,0,85.87,3.42Z" transform="translate(0 -1.32)"/>
      <path class="a" d="M97.47,7.24a.79.79,0,0,0,1.58,0,.79.79,0,0,0-1.58,0Z" transform="translate(0 -1.32)"/>
      <path class="a" d="M89.74,7.24a.88.88,0,1,0,.88-.88A.88.88,0,0,0,89.74,7.24Z" transform="translate(0 -1.32)"/>
      <path class="a" d="M82,7.24a1,1,0,1,0,1-1A1,1,0,0,0,82,7.24Z" transform="translate(0 -1.32)"/>
      <path class="a" d="M50.93,7.24A1.47,1.47,0,1,0,52.4,5.77,1.46,1.46,0,0,0,50.93,7.24Z" transform="translate(0 -1.32)"/>
      <path class="a" d="M31.72,2.36a1.85,1.85,0,0,0,0,2.11,1.87,1.87,0,0,0,1.57.84,2.45,2.45,0,0,0,.38,0,1.85,1.85,0,0,0,.95-.52,1.23,1.23,0,0,0,.23-.28,1.82,1.82,0,0,0,.29-.67,2.45,2.45,0,0,0,0-.38,2.45,2.45,0,0,0,0-.39,1.82,1.82,0,0,0-.29-.67,1.23,1.23,0,0,0-.23-.28,1.85,1.85,0,0,0-.95-.52,2.45,2.45,0,0,0-.38,0A1.87,1.87,0,0,0,31.72,2.36Z" transform="translate(0 -1.32)"/>
      <path class="a" d="M23.55,3.42a2.1,2.1,0,1,0,2.09-2.1A2.09,2.09,0,0,0,23.55,3.42Z" transform="translate(0 -1.32)"/>
      <path class="a" d="M47.3,2.55a1.52,1.52,0,0,0,0,1.73A1.52,1.52,0,0,0,48.58,5a1.65,1.65,0,0,0,.31,0,1.46,1.46,0,0,0,.77-.42,1.3,1.3,0,0,0,.19-.22,1.57,1.57,0,0,0,.23-.55,1.65,1.65,0,0,0,0-.31,1.75,1.75,0,0,0,0-.32,1.57,1.57,0,0,0-.23-.55,1.3,1.3,0,0,0-.19-.22,1.46,1.46,0,0,0-.77-.42,1.65,1.65,0,0,0-.31,0A1.52,1.52,0,0,0,47.3,2.55Z" transform="translate(0 -1.32)"/>
      <path class="a" d="M39.22,3.42a1.71,1.71,0,1,0,1.71-1.71A1.71,1.71,0,0,0,39.22,3.42Z" transform="translate(0 -1.32)"/>
      <path class="a" d="M3.82,22.53a2.71,2.71,0,1,0,2.71-2.71A2.71,2.71,0,0,0,3.82,22.53Z" transform="translate(0 -1.32)"/>
      <path class="a" d="M54.83,3.42A1.39,1.39,0,1,0,56.22,2,1.39,1.39,0,0,0,54.83,3.42Z" transform="translate(0 -1.32)"/>
      <path class="a" d="M62.61,3.42a1.24,1.24,0,0,0,1.25,1.25,1.09,1.09,0,0,0,.26,0,1.25,1.25,0,0,0,0-2.45,1.09,1.09,0,0,0-.26,0,1.24,1.24,0,0,0-1.25,1.26Z" transform="translate(0 -1.32)"/>
      <path class="a" d="M78.31,2.84a1,1,0,0,0,0,1.15,1,1,0,0,0,.84.45l.21,0a1,1,0,0,0,.52-.28L80,4a1,1,0,0,0,.15-.37.68.68,0,0,0,0-.2.71.71,0,0,0,0-.21A1,1,0,0,0,80,2.84l-.12-.15a1,1,0,0,0-.52-.28l-.21,0A1,1,0,0,0,78.31,2.84Z" transform="translate(0 -1.32)"/>
      <path class="a" d="M70.38,3.42a1.13,1.13,0,1,0,1.13-1.14A1.13,1.13,0,0,0,70.38,3.42Z" transform="translate(0 -1.32)"/>
      <path class="a" d="M7.78,18.7a2.58,2.58,0,1,0,2.57-2.57A2.58,2.58,0,0,0,7.78,18.7Z" transform="translate(0 -1.32)"/>
      <path class="a" d="M97.47,14.88a.79.79,0,1,0,.79-.79A.79.79,0,0,0,97.47,14.88Z" transform="translate(0 -1.32)"/>
      <path class="a" d="M39.22,18.7A1.71,1.71,0,1,0,40.93,17,1.71,1.71,0,0,0,39.22,18.7Z" transform="translate(0 -1.32)"/>
      <path class="a" d="M31.72,17.65a1.85,1.85,0,0,0,0,2.11,1.89,1.89,0,0,0,1.57.83,2.43,2.43,0,0,0,.38,0,1.85,1.85,0,0,0,.95-.52,1.49,1.49,0,0,0,.23-.28,1.8,1.8,0,0,0,.29-.68,2.33,2.33,0,0,0,0-.38,2.45,2.45,0,0,0,0-.38,1.82,1.82,0,0,0-.29-.67,1.23,1.23,0,0,0-.23-.28,1.85,1.85,0,0,0-.95-.52,2.45,2.45,0,0,0-.38,0A1.87,1.87,0,0,0,31.72,17.65Z" transform="translate(0 -1.32)"/>
      <path class="a" d="M15.68,18.7A2.3,2.3,0,0,0,18,21a2.49,2.49,0,0,0,.47,0,2.32,2.32,0,0,0,0-4.55,2.5,2.5,0,0,0-.47-.05,2.32,2.32,0,0,0-2.32,2.32Z" transform="translate(0 -1.32)"/>
      <path class="a" d="M112.91,14.88a.65.65,0,1,0,.64-.64A.65.65,0,0,0,112.91,14.88Z" transform="translate(0 -1.32)"/>
      <path class="a" d="M105.19,14.88a.72.72,0,1,0,.72-.71A.72.72,0,0,0,105.19,14.88Z" transform="translate(0 -1.32)"/>
      <path class="a" d="M47.3,17.84a1.51,1.51,0,0,0-.27.86,1.49,1.49,0,0,0,.27.86,1.52,1.52,0,0,0,1.28.68,1.63,1.63,0,0,0,.31,0,1.46,1.46,0,0,0,.77-.42,1.06,1.06,0,0,0,.19-.23,1.5,1.5,0,0,0,.23-.55,1.55,1.55,0,0,0,0-.31,1.65,1.65,0,0,0,0-.31,1.57,1.57,0,0,0-.23-.55,1.37,1.37,0,0,0-.19-.23,1.53,1.53,0,0,0-.77-.42,1.63,1.63,0,0,0-.31,0A1.52,1.52,0,0,0,47.3,17.84Z" transform="translate(0 -1.32)"/>
      <path class="a" d="M23.55,18.7a2.1,2.1,0,1,0,2.09-2.09A2.09,2.09,0,0,0,23.55,18.7Z" transform="translate(0 -1.32)"/>
      <path class="a" d="M70.38,18.7a1.13,1.13,0,1,0,1.13-1.13A1.13,1.13,0,0,0,70.38,18.7Z" transform="translate(0 -1.32)"/>
      <path class="a" d="M85.87,18.7a.93.93,0,1,0,1.85,0,.93.93,0,0,0-1.85,0Z" transform="translate(0 -1.32)"/>
      <path class="a" d="M78.31,18.13a1,1,0,0,0-.18.57,1,1,0,0,0,.18.57,1,1,0,0,0,.84.45.75.75,0,0,0,.21,0,1.08,1.08,0,0,0,.52-.27l.12-.16a.89.89,0,0,0,.15-.36.75.75,0,0,0,0-.21.65.65,0,0,0,0-.2.93.93,0,0,0-.15-.37L79.88,18a1,1,0,0,0-.52-.28l-.21,0A1,1,0,0,0,78.31,18.13Z" transform="translate(0 -1.32)"/>
      <path class="a" d="M62.61,18.7a1.24,1.24,0,0,0,.55,1,1.21,1.21,0,0,0,.7.22,1.09,1.09,0,0,0,.26,0,1.25,1.25,0,0,0,1-1.23,1.26,1.26,0,0,0-1-1.23l-.26,0a1.24,1.24,0,0,0-1.25,1.25Z" transform="translate(0 -1.32)"/>
      <path class="a" d="M109.05,18.7a.7.7,0,0,0,.3.57.7.7,0,0,0,.38.11h.14a.69.69,0,0,0,.54-.67.68.68,0,0,0-.54-.66h-.14a.7.7,0,0,0-.38.11A.68.68,0,0,0,109.05,18.7Z" transform="translate(0 -1.32)"/>
      <path class="a" d="M54.83,18.7a1.39,1.39,0,1,0,1.39-1.39A1.39,1.39,0,0,0,54.83,18.7Z" transform="translate(0 -1.32)"/>
      <path class="a" d="M101.33,18.7a.76.76,0,1,0,.76-.75A.75.75,0,0,0,101.33,18.7Z" transform="translate(0 -1.32)"/>
      <path class="a" d="M93.75,18.24a.81.81,0,0,0-.14.46.82.82,0,0,0,.14.47.83.83,0,0,0,.69.37l.17,0a.83.83,0,0,0,.42-.23l.1-.12a.81.81,0,0,0,.13-.3.91.91,0,0,0,0-.17.86.86,0,0,0,0-.16.81.81,0,0,0-.13-.3.64.64,0,0,0-.1-.13.81.81,0,0,0-.42-.22l-.17,0A.83.83,0,0,0,93.75,18.24Z" transform="translate(0 -1.32)"/>
      <path class="a" d="M89.74,14.88a.88.88,0,1,0,.88-.87A.88.88,0,0,0,89.74,14.88Z" transform="translate(0 -1.32)"/>
      <path class="a" d="M86,10.7a.86.86,0,0,0-.08.36.93.93,0,0,0,1.85,0,1,1,0,0,0-.07-.36,1,1,0,0,0-.2-.29.91.91,0,0,0-.65-.27.88.88,0,0,0-.65.27A.72.72,0,0,0,86,10.7Z" transform="translate(0 -1.32)"/>
      <path class="a" d="M78.31,10.49a1,1,0,0,0-.1.17,1.06,1.06,0,0,0-.08.4,1,1,0,0,0,1,1l.21,0a1,1,0,0,0,.52-.28,1,1,0,0,0,.12-.15,1,1,0,0,0,.15-.36,1.11,1.11,0,0,0,0-.42.7.7,0,0,0-.06-.19.56.56,0,0,0-.09-.17,1,1,0,0,0-.12-.15,1,1,0,0,0-.52-.28.75.75,0,0,0-.21,0,1,1,0,0,0-.72.3A.44.44,0,0,0,78.31,10.49Z" transform="translate(0 -1.32)"/>
      <path class="a" d="M101.39,10.77a.94.94,0,0,0-.06.29.76.76,0,0,0,1.51,0,.72.72,0,0,0-.06-.29.78.78,0,0,0-.16-.24.75.75,0,0,0-.53-.22.72.72,0,0,0-.53.22A.81.81,0,0,0,101.39,10.77Z" transform="translate(0 -1.32)"/>
      <path class="a" d="M109.25,10.58a.55.55,0,0,0-.14.22.58.58,0,0,0-.06.26.68.68,0,0,0,.3.56.71.71,0,0,0,.38.12l.14,0a.67.67,0,0,0,.54-.66.75.75,0,0,0,0-.26.72.72,0,0,0-.49-.41h-.14a.64.64,0,0,0-.38.12Z" transform="translate(0 -1.32)"/>
      <path class="a" d="M70.46,10.62a1.23,1.23,0,0,0-.08.44,1.13,1.13,0,0,0,2.26,0,1,1,0,0,0-.09-.44,1.13,1.13,0,0,0-.24-.36,1.12,1.12,0,0,0-.8-.33,1.1,1.1,0,0,0-.8.33A1.16,1.16,0,0,0,70.46,10.62Z" transform="translate(0 -1.32)"/>
      <path class="a" d="M116.81,10.82a.6.6,0,0,0,0,.24.62.62,0,0,0,1.23,0,.6.6,0,0,0,0-.24.64.64,0,0,0-.13-.19.62.62,0,0,0-.87,0A.64.64,0,0,0,116.81,10.82Z" transform="translate(0 -1.32)"/>
      <path class="a" d="M23.71,10.24a2,2,0,0,0-.16.82,2.1,2.1,0,0,0,4.19,0,2,2,0,0,0-.17-.82,2,2,0,0,0-.45-.66,2.08,2.08,0,0,0-3,0A2.15,2.15,0,0,0,23.71,10.24Z" transform="translate(0 -1.32)"/>
      <path class="a" d="M31.72,10a1.81,1.81,0,0,0-.33,1.06,1.85,1.85,0,0,0,.33,1.06,1.89,1.89,0,0,0,1.57.83,1.64,1.64,0,0,0,.38,0,1.84,1.84,0,0,0,.95-.51,1.49,1.49,0,0,0,.23-.28,1.8,1.8,0,0,0,.29-.68,1.82,1.82,0,0,0,0-.76,2.47,2.47,0,0,0-.11-.36,2,2,0,0,0-.18-.32,1.49,1.49,0,0,0-.23-.28,1.84,1.84,0,0,0-.95-.51,1.64,1.64,0,0,0-.38,0A1.88,1.88,0,0,0,32,9.72,2,2,0,0,0,31.72,10Z" transform="translate(0 -1.32)"/>
      <path class="a" d="M16.35,9.42a2.17,2.17,0,0,0-.49.74,2.23,2.23,0,0,0-.18.9,2.29,2.29,0,0,0,1,1.92,2.25,2.25,0,0,0,1.3.4,2.5,2.5,0,0,0,.47-.05,2.32,2.32,0,0,0,1.85-2.27,2.41,2.41,0,0,0-.18-.9,2.36,2.36,0,0,0-1.67-1.38,2.49,2.49,0,0,0-.47,0,2.32,2.32,0,0,0-1.3.39A2.45,2.45,0,0,0,16.35,9.42Z" transform="translate(0 -1.32)"/>
      <path class="a" d="M63,10.17a1.18,1.18,0,0,0-.27.4,1.16,1.16,0,0,0-.1.49,1.24,1.24,0,0,0,1.25,1.25,1.1,1.1,0,0,0,.26,0,1.26,1.26,0,0,0,1-1.23,1.26,1.26,0,0,0-.37-.89,1.26,1.26,0,0,0-.63-.34,1.09,1.09,0,0,0-.26,0,1.21,1.21,0,0,0-.7.22Z" transform="translate(0 -1.32)"/>
      <path class="a" d="M39.36,10.4a1.59,1.59,0,0,0-.14.66,1.71,1.71,0,0,0,3.42,0,1.59,1.59,0,0,0-.14-.66,1.69,1.69,0,0,0-3.14,0Z" transform="translate(0 -1.32)"/>
      <path class="a" d="M54.94,10.52a1.37,1.37,0,0,0-.11.54,1.39,1.39,0,0,0,2.78,0,1.37,1.37,0,0,0-.11-.54,1.23,1.23,0,0,0-.3-.44,1.38,1.38,0,0,0-2,0A1.23,1.23,0,0,0,54.94,10.52Z" transform="translate(0 -1.32)"/>
      <path class="a" d="M47.3,10.2a.94.94,0,0,0-.14.26,1.48,1.48,0,0,0,.14,1.46,1.52,1.52,0,0,0,1.28.68,1.63,1.63,0,0,0,.31,0,1.46,1.46,0,0,0,.77-.42,1.37,1.37,0,0,0,.19-.23,1.5,1.5,0,0,0,.23-.55,1.22,1.22,0,0,0,0-.62,1.4,1.4,0,0,0-.09-.29.94.94,0,0,0-.14-.26,1.37,1.37,0,0,0-.19-.23,1.46,1.46,0,0,0-.77-.42,1.63,1.63,0,0,0-.31,0,1.51,1.51,0,0,0-1.09.45A1.37,1.37,0,0,0,47.3,10.2Z" transform="translate(0 -1.32)"/>
      <path class="a" d="M93.75,10.59l-.08.15a.83.83,0,0,0-.06.32.83.83,0,0,0,.83.83.47.47,0,0,0,.17,0,.81.81,0,0,0,.42-.22.64.64,0,0,0,.1-.13.7.7,0,0,0,.13-.29,1.45,1.45,0,0,0,0-.34.88.88,0,0,0-.05-.15,1.09,1.09,0,0,0-.08-.15l-.1-.12a.91.91,0,0,0-.42-.23h-.17a.83.83,0,0,0-.59.24Z" transform="translate(0 -1.32)"/>
      <path class="a" d="M50.93,14.88a1.47,1.47,0,1,0,2.93,0,1.47,1.47,0,0,0-2.93,0Z" transform="translate(0 -1.32)"/>
      <path class="a" d="M43.13,14.88a1.62,1.62,0,1,0,1.62-1.62A1.62,1.62,0,0,0,43.13,14.88Z" transform="translate(0 -1.32)"/>
      <path class="a" d="M27.47,14.88a2,2,0,1,0,2-2A2,2,0,0,0,27.47,14.88Z" transform="translate(0 -1.32)"/>
      <path class="a" d="M58.72,14.88A1.32,1.32,0,1,0,60,13.56,1.32,1.32,0,0,0,58.72,14.88Z" transform="translate(0 -1.32)"/>
      <path class="a" d="M82,14.88a1,1,0,1,0,1-1A1,1,0,0,0,82,14.88Z" transform="translate(0 -1.32)"/>
      <path class="a" d="M74.25,14.88a1.08,1.08,0,1,0,1.08-1.07A1.08,1.08,0,0,0,74.25,14.88Z" transform="translate(0 -1.32)"/>
      <path class="a" d="M35.31,45.46a1.8,1.8,0,1,0,1.8-1.8A1.8,1.8,0,0,0,35.31,45.46Z" transform="translate(0 -1.32)"/>
      <path class="a" d="M35.31,14.88a1.8,1.8,0,1,0,1.8-1.79A1.81,1.81,0,0,0,35.31,14.88Z" transform="translate(0 -1.32)"/>
      <path class="a" d="M11.73,14.88a2.45,2.45,0,1,0,2.44-2.44A2.45,2.45,0,0,0,11.73,14.88Z" transform="translate(0 -1.32)"/>
      <path class="a" d="M19.61,14.88a2.21,2.21,0,1,0,2.21-2.2A2.21,2.21,0,0,0,19.61,14.88Z" transform="translate(0 -1.32)"/>
      <path class="a" d="M43.13,45.46a1.62,1.62,0,1,0,1.62-1.62A1.63,1.63,0,0,0,43.13,45.46Z" transform="translate(0 -1.32)"/>
      <path class="a" d="M112.91,45.46a.65.65,0,1,0,.64-.65A.64.64,0,0,0,112.91,45.46Z" transform="translate(0 -1.32)"/>
      <path class="a" d="M120.62,45.46a.58.58,0,1,0,.58-.58A.58.58,0,0,0,120.62,45.46Z" transform="translate(0 -1.32)"/>
      <path class="a" d="M82,45.46a1,1,0,1,0,1-1A1,1,0,0,0,82,45.46Z" transform="translate(0 -1.32)"/>
      <path class="a" d="M66.49,45.46a1.2,1.2,0,1,0,1.2-1.19A1.19,1.19,0,0,0,66.49,45.46Z" transform="translate(0 -1.32)"/>
      <path class="a" d="M58.72,45.46A1.32,1.32,0,1,0,60,44.14,1.32,1.32,0,0,0,58.72,45.46Z" transform="translate(0 -1.32)"/>
      <path class="a" d="M50.93,45.46A1.47,1.47,0,1,0,52.4,44,1.46,1.46,0,0,0,50.93,45.46Z" transform="translate(0 -1.32)"/>
      <path class="a" d="M74.25,45.46a1.08,1.08,0,1,0,1.08-1.08A1.08,1.08,0,0,0,74.25,45.46Z" transform="translate(0 -1.32)"/>
      <path class="a" d="M97.47,45.46a.79.79,0,1,0,1.58,0,.79.79,0,1,0-1.58,0Z" transform="translate(0 -1.32)"/>
      <path class="a" d="M105.19,45.46a.72.72,0,1,0,.72-.72A.71.71,0,0,0,105.19,45.46Z" transform="translate(0 -1.32)"/>
      <path class="a" d="M89.74,45.46a.88.88,0,1,0,.88-.88A.88.88,0,0,0,89.74,45.46Z" transform="translate(0 -1.32)"/>
      <path class="a" d="M70.38,49.28a1.13,1.13,0,1,0,1.13-1.13A1.13,1.13,0,0,0,70.38,49.28Z" transform="translate(0 -1.32)"/>
      <path class="a" d="M101.33,49.28a.76.76,0,0,0,1.51,0,.76.76,0,0,0-1.51,0Z" transform="translate(0 -1.32)"/>
      <path class="a" d="M85.87,49.28a.93.93,0,1,0,.93-.92A.93.93,0,0,0,85.87,49.28Z" transform="translate(0 -1.32)"/>
      <path class="a" d="M78.31,48.71a1,1,0,0,0,.84,1.59l.21,0a1,1,0,0,0,.52-.28s.08-.1.12-.15a1,1,0,0,0,.15-.36,1.11,1.11,0,0,0,0-.42,1,1,0,0,0-.15-.36,1,1,0,0,0-.12-.15,1,1,0,0,0-.52-.28.75.75,0,0,0-.21,0A1,1,0,0,0,78.31,48.71Z" transform="translate(0 -1.32)"/>
      <path class="a" d="M93.75,48.81a.86.86,0,0,0-.14.47.83.83,0,0,0,.83.83.47.47,0,0,0,.17,0,.81.81,0,0,0,.42-.22.64.64,0,0,0,.1-.13.7.7,0,0,0,.13-.29,1.45,1.45,0,0,0,0-.34.81.81,0,0,0-.13-.3l-.1-.12a.91.91,0,0,0-.42-.23h-.17A.83.83,0,0,0,93.75,48.81Z" transform="translate(0 -1.32)"/>
      <path class="a" d="M109.05,49.28a.68.68,0,0,0,.3.56.71.71,0,0,0,.38.12l.14,0a.67.67,0,0,0,0-1.32l-.14,0a.64.64,0,0,0-.38.12A.68.68,0,0,0,109.05,49.28Z" transform="translate(0 -1.32)"/>
      <path class="a" d="M124.56,49a.54.54,0,0,0-.09.31.56.56,0,0,0,.09.31.57.57,0,0,0,.46.24h.11a.55.55,0,0,0,.28-.15l.07-.08a.5.5,0,0,0,.08-.2.41.41,0,0,0,0-.11.37.37,0,0,0,0-.11.5.5,0,0,0-.08-.2l-.07-.08a.48.48,0,0,0-.28-.15H125A.55.55,0,0,0,124.56,49Z" transform="translate(0 -1.32)"/>
      <path class="a" d="M124.56,3.11a.51.51,0,0,0-.09.3.52.52,0,0,0,.09.31A.56.56,0,0,0,125,4h.11a.63.63,0,0,0,.28-.15l.07-.09a.46.46,0,0,0,.08-.19.49.49,0,0,0,0-.12.45.45,0,0,0,0-.11.46.46,0,0,0-.08-.19L125.41,3a.63.63,0,0,0-.28-.15H125A.56.56,0,0,0,124.56,3.11Z" transform="translate(0 -1.32)"/>
      <path class="a" d="M116.76,49.28a.62.62,0,1,0,.62-.61A.61.61,0,0,0,116.76,49.28Z" transform="translate(0 -1.32)"/>
      <path class="a" d="M31.72,48.22a1.85,1.85,0,0,0-.33,1.06,1.9,1.9,0,0,0,1.9,1.89,1.64,1.64,0,0,0,.38,0,1.84,1.84,0,0,0,.95-.51,1.49,1.49,0,0,0,.23-.28,1.8,1.8,0,0,0,.29-.68,1.82,1.82,0,0,0,0-.76,1.8,1.8,0,0,0-.29-.68,1.49,1.49,0,0,0-.23-.28,1.84,1.84,0,0,0-.95-.51,1.64,1.64,0,0,0-.38,0A1.89,1.89,0,0,0,31.72,48.22Z" transform="translate(0 -1.32)"/>
      <path class="a" d="M62.61,49.28a1.24,1.24,0,0,0,1.25,1.25,1.1,1.1,0,0,0,.26,0,1.26,1.26,0,0,0,0-2.46,1.09,1.09,0,0,0-.26,0,1.21,1.21,0,0,0-.7.22A1.26,1.26,0,0,0,62.61,49.28Z" transform="translate(0 -1.32)"/>
      <path class="a" d="M23.55,49.28a2.1,2.1,0,1,0,2.09-2.1A2.08,2.08,0,0,0,23.55,49.28Z" transform="translate(0 -1.32)"/>
      <path class="a" d="M39.22,49.28a1.71,1.71,0,1,0,1.71-1.71A1.72,1.72,0,0,0,39.22,49.28Z" transform="translate(0 -1.32)"/>
      <path class="a" d="M54.83,49.28a1.39,1.39,0,1,0,1.39-1.39A1.39,1.39,0,0,0,54.83,49.28Z" transform="translate(0 -1.32)"/>
      <path class="a" d="M47.3,48.42a1.49,1.49,0,0,0-.27.86,1.56,1.56,0,0,0,1.55,1.54,1.63,1.63,0,0,0,.31,0,1.46,1.46,0,0,0,.77-.42,1.37,1.37,0,0,0,.19-.23,1.5,1.5,0,0,0,.23-.55,1.22,1.22,0,0,0,0-.62,1.5,1.5,0,0,0-.23-.55,1.37,1.37,0,0,0-.19-.23,1.46,1.46,0,0,0-.77-.42,1.63,1.63,0,0,0-.31,0A1.52,1.52,0,0,0,47.3,48.42Z" transform="translate(0 -1.32)"/>
    </g>
    <g>
      <path class="b" d="M127.14,8.27V7H155V8.27H142.69V45l-2.55,0V8.27Z" transform="translate(0 -1.32)"/>
      <path class="b" d="M158.48,36.84c0-3,1.16-4.62,3.37-4.77h11.32l-.06-3.87c-.06-2.12-.58-3.45-3.08-3.45h-5.92c-2.49,0-3.07,1.33-3.07,3.45h-2.56c0-3,1.16-4.61,3.37-4.77H172.3c2.2.16,3.36,1.75,3.36,4.77V45.05H161.85c-2.21-.16-3.37-1.75-3.37-4.77ZM161,40.28c0,2.12.58,3.44,3.07,3.44H170c2.5,0,3.08-1.32,3.08-3.44V33.39h-9c-2.49,0-3.07,1.33-3.07,3.45Z" transform="translate(0 -1.32)"/>
      <path class="b" d="M180.31,23.64h2.55v.9l11.26-1.06c2.21-.26,3.37,1.75,3.37,4.77v12c0,3-1.16,5-3.37,4.77l-11.37-1.06.06,11.92h-2.44Zm2.55,19,9,.53c2.5.32,3.08-.79,3.08-2.91v-12c0-2.12-.58-3.23-3.08-2.91l-9,.53Z" transform="translate(0 -1.32)"/>
    </g>
  </g>
</svg>
